<svg width="1440" height="147" viewBox="0 0 1440 147" fill="none" xmlns="http://www.w3.org/2000/svg">
<rect width="1440" height="147" fill="white"/>
<path d="M1123 94.5C1123 80.4167 1134.42 69 1148.5 69H1314.5C1328.58 69 1340 80.4167 1340 94.5V94.5C1340 108.583 1328.58 120 1314.5 120H1148.5C1134.42 120 1123 108.583 1123 94.5V94.5Z" fill="#8DC8AC"/>
<path d="M1159.46 90.3916L1155.98 101H1153.17L1157.93 88.2031H1159.71L1159.46 90.3916ZM1162.35 101L1158.86 90.3916L1158.58 88.2031H1160.38L1165.16 101H1162.35ZM1162.19 96.2363V98.3018H1155.43V96.2363H1162.19ZM1172.17 98.9258V87.5H1174.72V101H1172.42L1172.17 98.9258ZM1166.16 96.3594V96.1748C1166.16 95.4482 1166.24 94.7891 1166.4 94.1973C1166.57 93.5996 1166.81 93.0869 1167.12 92.6592C1167.44 92.2314 1167.83 91.9004 1168.29 91.666C1168.75 91.4316 1169.28 91.3145 1169.87 91.3145C1170.43 91.3145 1170.92 91.4316 1171.33 91.666C1171.75 91.9004 1172.11 92.2344 1172.4 92.668C1172.7 93.0957 1172.94 93.6025 1173.13 94.1885C1173.31 94.7686 1173.44 95.4043 1173.52 96.0957V96.5C1173.44 97.1621 1173.31 97.7773 1173.13 98.3457C1172.94 98.9141 1172.7 99.4121 1172.4 99.8398C1172.11 100.262 1171.75 100.59 1171.33 100.824C1170.91 101.059 1170.42 101.176 1169.86 101.176C1169.26 101.176 1168.74 101.056 1168.27 100.815C1167.82 100.575 1167.43 100.238 1167.11 99.8047C1166.8 99.3711 1166.57 98.8613 1166.4 98.2754C1166.24 97.6895 1166.16 97.0508 1166.16 96.3594ZM1168.69 96.1748V96.3594C1168.69 96.752 1168.72 97.1182 1168.77 97.458C1168.84 97.7979 1168.94 98.0996 1169.08 98.3633C1169.23 98.6211 1169.42 98.8232 1169.65 98.9697C1169.88 99.1104 1170.16 99.1807 1170.5 99.1807C1170.93 99.1807 1171.29 99.084 1171.57 98.8906C1171.85 98.6914 1172.06 98.4189 1172.21 98.0732C1172.36 97.7275 1172.45 97.3291 1172.48 96.8779V95.7266C1172.46 95.3574 1172.4 95.0264 1172.32 94.7334C1172.23 94.4346 1172.11 94.1797 1171.95 93.9688C1171.79 93.7578 1171.59 93.5938 1171.35 93.4766C1171.12 93.3594 1170.84 93.3008 1170.52 93.3008C1170.19 93.3008 1169.91 93.377 1169.67 93.5293C1169.44 93.6758 1169.25 93.8779 1169.1 94.1357C1168.96 94.3936 1168.85 94.6982 1168.78 95.0498C1168.72 95.3955 1168.69 95.7705 1168.69 96.1748ZM1182.67 98.9258V87.5H1185.22V101H1182.92L1182.67 98.9258ZM1176.66 96.3594V96.1748C1176.66 95.4482 1176.74 94.7891 1176.9 94.1973C1177.07 93.5996 1177.31 93.0869 1177.63 92.6592C1177.94 92.2314 1178.33 91.9004 1178.79 91.666C1179.26 91.4316 1179.78 91.3145 1180.38 91.3145C1180.93 91.3145 1181.42 91.4316 1181.84 91.666C1182.26 91.9004 1182.61 92.2344 1182.91 92.668C1183.21 93.0957 1183.45 93.6025 1183.63 94.1885C1183.81 94.7686 1183.94 95.4043 1184.02 96.0957V96.5C1183.94 97.1621 1183.81 97.7773 1183.63 98.3457C1183.45 98.9141 1183.21 99.4121 1182.91 99.8398C1182.61 100.262 1182.26 100.59 1181.84 100.824C1181.41 101.059 1180.92 101.176 1180.36 101.176C1179.77 101.176 1179.24 101.056 1178.78 100.815C1178.32 100.575 1177.93 100.238 1177.62 99.8047C1177.31 99.3711 1177.07 98.8613 1176.9 98.2754C1176.74 97.6895 1176.66 97.0508 1176.66 96.3594ZM1179.19 96.1748V96.3594C1179.19 96.752 1179.22 97.1182 1179.28 97.458C1179.34 97.7979 1179.44 98.0996 1179.59 98.3633C1179.73 98.6211 1179.92 98.8232 1180.15 98.9697C1180.38 99.1104 1180.67 99.1807 1181 99.1807C1181.43 99.1807 1181.79 99.084 1182.07 98.8906C1182.35 98.6914 1182.57 98.4189 1182.71 98.0732C1182.87 97.7275 1182.95 97.3291 1182.98 96.8779V95.7266C1182.96 95.3574 1182.91 95.0264 1182.82 94.7334C1182.74 94.4346 1182.61 94.1797 1182.45 93.9688C1182.29 93.7578 1182.09 93.5938 1181.85 93.4766C1181.62 93.3594 1181.34 93.3008 1181.02 93.3008C1180.69 93.3008 1180.41 93.377 1180.17 93.5293C1179.94 93.6758 1179.75 93.8779 1179.6 94.1357C1179.46 94.3936 1179.36 94.6982 1179.29 95.0498C1179.22 95.3955 1179.19 95.7705 1179.19 96.1748ZM1195.22 99.9277L1197.74 91.4902H1200.46L1196.64 102.433C1196.55 102.673 1196.44 102.931 1196.3 103.206C1196.17 103.481 1195.98 103.742 1195.75 103.988C1195.52 104.24 1195.23 104.445 1194.88 104.604C1194.53 104.762 1194.11 104.841 1193.6 104.841C1193.36 104.841 1193.17 104.826 1193.01 104.797C1192.86 104.768 1192.68 104.727 1192.47 104.674V102.819C1192.53 102.819 1192.6 102.819 1192.67 102.819C1192.74 102.825 1192.81 102.828 1192.87 102.828C1193.21 102.828 1193.48 102.79 1193.69 102.714C1193.9 102.638 1194.07 102.521 1194.2 102.362C1194.33 102.21 1194.43 102.011 1194.51 101.765L1195.22 99.9277ZM1194.17 91.4902L1196.23 98.3809L1196.59 101.062L1194.87 101.246L1191.45 91.4902H1194.17ZM1201.28 96.3418V96.1572C1201.28 95.46 1201.38 94.8184 1201.58 94.2324C1201.78 93.6406 1202.07 93.1279 1202.45 92.6943C1202.83 92.2607 1203.3 91.9238 1203.86 91.6836C1204.42 91.4375 1205.05 91.3145 1205.78 91.3145C1206.5 91.3145 1207.14 91.4375 1207.7 91.6836C1208.26 91.9238 1208.73 92.2607 1209.12 92.6943C1209.5 93.1279 1209.8 93.6406 1209.99 94.2324C1210.19 94.8184 1210.29 95.46 1210.29 96.1572V96.3418C1210.29 97.0332 1210.19 97.6748 1209.99 98.2666C1209.8 98.8525 1209.5 99.3652 1209.12 99.8047C1208.73 100.238 1208.27 100.575 1207.71 100.815C1207.15 101.056 1206.51 101.176 1205.79 101.176C1205.07 101.176 1204.43 101.056 1203.87 100.815C1203.31 100.575 1202.84 100.238 1202.45 99.8047C1202.07 99.3652 1201.78 98.8525 1201.58 98.2666C1201.38 97.6748 1201.28 97.0332 1201.28 96.3418ZM1203.82 96.1572V96.3418C1203.82 96.7402 1203.85 97.1123 1203.92 97.458C1203.99 97.8037 1204.1 98.1084 1204.25 98.3721C1204.41 98.6299 1204.62 98.832 1204.87 98.9785C1205.12 99.125 1205.43 99.1982 1205.79 99.1982C1206.14 99.1982 1206.45 99.125 1206.7 98.9785C1206.95 98.832 1207.15 98.6299 1207.3 98.3721C1207.46 98.1084 1207.57 97.8037 1207.64 97.458C1207.71 97.1123 1207.75 96.7402 1207.75 96.3418V96.1572C1207.75 95.7705 1207.71 95.4072 1207.64 95.0674C1207.57 94.7217 1207.45 94.417 1207.3 94.1533C1207.14 93.8838 1206.94 93.6729 1206.69 93.5205C1206.44 93.3682 1206.13 93.292 1205.78 93.292C1205.42 93.292 1205.11 93.3682 1204.86 93.5205C1204.62 93.6729 1204.41 93.8838 1204.25 94.1533C1204.1 94.417 1203.99 94.7217 1203.92 95.0674C1203.85 95.4072 1203.82 95.7705 1203.82 96.1572ZM1217.83 98.7236V91.4902H1220.36V101H1217.98L1217.83 98.7236ZM1218.11 96.7725L1218.86 96.7549C1218.86 97.3877 1218.79 97.9766 1218.64 98.5215C1218.5 99.0605 1218.28 99.5293 1217.98 99.9277C1217.69 100.32 1217.32 100.628 1216.88 100.851C1216.43 101.067 1215.91 101.176 1215.3 101.176C1214.84 101.176 1214.41 101.111 1214.02 100.982C1213.63 100.848 1213.3 100.64 1213.02 100.358C1212.74 100.071 1212.53 99.7051 1212.37 99.2598C1212.21 98.8086 1212.14 98.2666 1212.14 97.6338V91.4902H1214.67V97.6514C1214.67 97.9326 1214.7 98.1699 1214.77 98.3633C1214.84 98.5566 1214.93 98.7148 1215.06 98.8379C1215.18 98.9609 1215.32 99.0488 1215.49 99.1016C1215.66 99.1543 1215.84 99.1807 1216.05 99.1807C1216.57 99.1807 1216.98 99.0752 1217.28 98.8643C1217.58 98.6533 1217.8 98.3662 1217.92 98.0029C1218.05 97.6338 1218.11 97.2236 1218.11 96.7725ZM1225.19 93.5645V101H1222.66V91.4902H1225.04L1225.19 93.5645ZM1228.06 91.4287L1228.01 93.7754C1227.89 93.7578 1227.74 93.7432 1227.56 93.7314C1227.39 93.7139 1227.24 93.7051 1227.1 93.7051C1226.74 93.7051 1226.43 93.752 1226.17 93.8457C1225.91 93.9336 1225.69 94.0654 1225.51 94.2412C1225.35 94.417 1225.22 94.6309 1225.13 94.8828C1225.05 95.1348 1225 95.4219 1224.99 95.7441L1224.48 95.5859C1224.48 94.9707 1224.54 94.4053 1224.66 93.8896C1224.79 93.3682 1224.96 92.9141 1225.2 92.5273C1225.44 92.1406 1225.73 91.8418 1226.08 91.6309C1226.42 91.4199 1226.82 91.3145 1227.26 91.3145C1227.4 91.3145 1227.55 91.3262 1227.69 91.3496C1227.84 91.3672 1227.96 91.3936 1228.06 91.4287ZM1239.62 95.3838H1236.33L1236.32 93.5732H1239.08C1239.56 93.5732 1239.96 93.5117 1240.27 93.3887C1240.58 93.2598 1240.81 93.0752 1240.97 92.835C1241.12 92.5889 1241.2 92.29 1241.2 91.9385C1241.2 91.54 1241.13 91.2178 1240.97 90.9717C1240.83 90.7256 1240.6 90.5469 1240.28 90.4355C1239.97 90.3242 1239.57 90.2686 1239.08 90.2686H1237.25V101H1234.61V88.2031H1239.08C1239.82 88.2031 1240.49 88.2734 1241.07 88.4141C1241.66 88.5547 1242.16 88.7686 1242.57 89.0557C1242.98 89.3428 1243.3 89.7061 1243.51 90.1455C1243.73 90.5791 1243.84 91.0947 1243.84 91.6924C1243.84 92.2197 1243.72 92.7061 1243.48 93.1514C1243.24 93.5967 1242.87 93.96 1242.36 94.2412C1241.86 94.5225 1241.2 94.6777 1240.39 94.707L1239.62 95.3838ZM1239.51 101H1235.61L1236.64 98.9434H1239.51C1239.97 98.9434 1240.35 98.8701 1240.64 98.7236C1240.93 98.5713 1241.15 98.3662 1241.29 98.1084C1241.43 97.8506 1241.5 97.5547 1241.5 97.2207C1241.5 96.8457 1241.44 96.5205 1241.31 96.2451C1241.19 95.9697 1240.99 95.7588 1240.71 95.6123C1240.44 95.46 1240.07 95.3838 1239.62 95.3838H1237.08L1237.1 93.5732H1240.26L1240.87 94.2852C1241.65 94.2734 1242.28 94.4111 1242.75 94.6982C1243.23 94.9795 1243.58 95.3457 1243.8 95.7969C1244.02 96.248 1244.13 96.7314 1244.13 97.2471C1244.13 98.0674 1243.95 98.7588 1243.59 99.3213C1243.24 99.8779 1242.71 100.297 1242.02 100.578C1241.33 100.859 1240.5 101 1239.51 101ZM1251.93 98.7236V91.4902H1254.47V101H1252.08L1251.93 98.7236ZM1252.22 96.7725L1252.96 96.7549C1252.96 97.3877 1252.89 97.9766 1252.74 98.5215C1252.6 99.0605 1252.38 99.5293 1252.08 99.9277C1251.79 100.32 1251.42 100.628 1250.98 100.851C1250.53 101.067 1250.01 101.176 1249.4 101.176C1248.94 101.176 1248.51 101.111 1248.12 100.982C1247.73 100.848 1247.4 100.64 1247.12 100.358C1246.84 100.071 1246.63 99.7051 1246.47 99.2598C1246.31 98.8086 1246.24 98.2666 1246.24 97.6338V91.4902H1248.77V97.6514C1248.77 97.9326 1248.8 98.1699 1248.87 98.3633C1248.94 98.5566 1249.03 98.7148 1249.16 98.8379C1249.28 98.9609 1249.42 99.0488 1249.59 99.1016C1249.76 99.1543 1249.94 99.1807 1250.15 99.1807C1250.67 99.1807 1251.08 99.0752 1251.38 98.8643C1251.68 98.6533 1251.9 98.3662 1252.02 98.0029C1252.15 97.6338 1252.22 97.2236 1252.22 96.7725ZM1261.9 98.3721C1261.9 98.1904 1261.85 98.0264 1261.74 97.8799C1261.64 97.7334 1261.44 97.5986 1261.15 97.4756C1260.87 97.3467 1260.46 97.2295 1259.93 97.124C1259.45 97.0186 1259 96.8867 1258.59 96.7285C1258.18 96.5645 1257.82 96.3682 1257.51 96.1396C1257.22 95.9111 1256.98 95.6416 1256.81 95.3311C1256.64 95.0146 1256.56 94.6543 1256.56 94.25C1256.56 93.8516 1256.64 93.4766 1256.81 93.125C1256.99 92.7734 1257.24 92.4629 1257.56 92.1934C1257.89 91.918 1258.29 91.7041 1258.75 91.5518C1259.23 91.3936 1259.76 91.3145 1260.35 91.3145C1261.18 91.3145 1261.89 91.4463 1262.48 91.71C1263.08 91.9736 1263.54 92.3369 1263.85 92.7998C1264.17 93.2568 1264.33 93.7783 1264.33 94.3643H1261.8C1261.8 94.1182 1261.75 93.8984 1261.65 93.7051C1261.55 93.5059 1261.39 93.3506 1261.17 93.2393C1260.96 93.1221 1260.68 93.0635 1260.34 93.0635C1260.06 93.0635 1259.82 93.1133 1259.62 93.2129C1259.41 93.3066 1259.25 93.4355 1259.14 93.5996C1259.04 93.7578 1258.98 93.9336 1258.98 94.127C1258.98 94.2734 1259.01 94.4053 1259.07 94.5225C1259.13 94.6338 1259.24 94.7363 1259.38 94.8301C1259.52 94.9238 1259.7 95.0117 1259.92 95.0938C1260.15 95.1699 1260.43 95.2402 1260.77 95.3047C1261.45 95.4453 1262.06 95.6299 1262.6 95.8584C1263.14 96.0811 1263.57 96.3857 1263.89 96.7725C1264.2 97.1533 1264.36 97.6543 1264.36 98.2754C1264.36 98.6973 1264.27 99.084 1264.08 99.4355C1263.89 99.7871 1263.62 100.095 1263.27 100.358C1262.92 100.616 1262.5 100.818 1262.01 100.965C1261.52 101.105 1260.97 101.176 1260.36 101.176C1259.48 101.176 1258.73 101.018 1258.11 100.701C1257.5 100.385 1257.04 99.9834 1256.72 99.4971C1256.41 99.0049 1256.26 98.501 1256.26 97.9854H1258.66C1258.67 98.3311 1258.76 98.6094 1258.92 98.8203C1259.09 99.0312 1259.3 99.1836 1259.56 99.2773C1259.83 99.3711 1260.11 99.418 1260.41 99.418C1260.74 99.418 1261.02 99.374 1261.23 99.2861C1261.45 99.1924 1261.61 99.0693 1261.72 98.917C1261.84 98.7588 1261.9 98.5771 1261.9 98.3721ZM1269.04 91.4902V101H1266.5V91.4902H1269.04ZM1266.34 89.0117C1266.34 88.6426 1266.47 88.3379 1266.73 88.0977C1266.98 87.8574 1267.33 87.7373 1267.76 87.7373C1268.19 87.7373 1268.53 87.8574 1268.79 88.0977C1269.05 88.3379 1269.19 88.6426 1269.19 89.0117C1269.19 89.3809 1269.05 89.6855 1268.79 89.9258C1268.53 90.166 1268.19 90.2861 1267.76 90.2861C1267.33 90.2861 1266.98 90.166 1266.73 89.9258C1266.47 89.6855 1266.34 89.3809 1266.34 89.0117ZM1273.97 93.5205V101H1271.44V91.4902H1273.81L1273.97 93.5205ZM1273.6 95.9111H1272.91C1272.91 95.208 1273 94.5752 1273.18 94.0127C1273.37 93.4443 1273.62 92.9609 1273.95 92.5625C1274.28 92.1582 1274.67 91.8506 1275.12 91.6396C1275.58 91.4229 1276.09 91.3145 1276.65 91.3145C1277.09 91.3145 1277.5 91.3789 1277.87 91.5078C1278.24 91.6367 1278.55 91.8418 1278.82 92.123C1279.09 92.4043 1279.29 92.7764 1279.43 93.2393C1279.58 93.7021 1279.65 94.2676 1279.65 94.9355V101H1277.1V94.9268C1277.1 94.5049 1277.05 94.1768 1276.93 93.9424C1276.81 93.708 1276.64 93.5439 1276.41 93.4502C1276.19 93.3506 1275.91 93.3008 1275.58 93.3008C1275.24 93.3008 1274.95 93.3682 1274.7 93.5029C1274.45 93.6377 1274.25 93.8252 1274.08 94.0654C1273.92 94.2998 1273.8 94.5752 1273.72 94.8916C1273.64 95.208 1273.6 95.5479 1273.6 95.9111ZM1286.32 101.176C1285.58 101.176 1284.91 101.059 1284.33 100.824C1283.74 100.584 1283.24 100.253 1282.83 99.8311C1282.43 99.4092 1282.12 98.9199 1281.9 98.3633C1281.69 97.8008 1281.58 97.2031 1281.58 96.5703V96.2188C1281.58 95.498 1281.68 94.8389 1281.89 94.2412C1282.09 93.6436 1282.38 93.125 1282.76 92.6855C1283.15 92.2461 1283.62 91.9092 1284.17 91.6748C1284.72 91.4346 1285.34 91.3145 1286.03 91.3145C1286.71 91.3145 1287.31 91.4258 1287.83 91.6484C1288.35 91.8711 1288.79 92.1875 1289.14 92.5977C1289.49 93.0078 1289.76 93.5 1289.95 94.0742C1290.13 94.6426 1290.22 95.2754 1290.22 95.9727V97.0273H1282.66V95.3398H1287.73V95.1465C1287.73 94.7949 1287.67 94.4814 1287.54 94.2061C1287.41 93.9248 1287.23 93.7021 1286.97 93.5381C1286.72 93.374 1286.4 93.292 1286.01 93.292C1285.67 93.292 1285.39 93.3652 1285.15 93.5117C1284.91 93.6582 1284.71 93.8633 1284.56 94.127C1284.41 94.3906 1284.3 94.7012 1284.22 95.0586C1284.15 95.4102 1284.12 95.7969 1284.12 96.2188V96.5703C1284.12 96.9512 1284.17 97.3027 1284.28 97.625C1284.39 97.9473 1284.54 98.2256 1284.74 98.46C1284.95 98.6943 1285.19 98.876 1285.48 99.0049C1285.77 99.1338 1286.1 99.1982 1286.47 99.1982C1286.93 99.1982 1287.36 99.1104 1287.75 98.9346C1288.15 98.7529 1288.49 98.4805 1288.78 98.1172L1290.01 99.4531C1289.81 99.7402 1289.54 100.016 1289.19 100.279C1288.85 100.543 1288.44 100.76 1287.96 100.93C1287.48 101.094 1286.93 101.176 1286.32 101.176ZM1297.16 98.3721C1297.16 98.1904 1297.11 98.0264 1297 97.8799C1296.9 97.7334 1296.7 97.5986 1296.41 97.4756C1296.13 97.3467 1295.73 97.2295 1295.19 97.124C1294.71 97.0186 1294.26 96.8867 1293.85 96.7285C1293.44 96.5645 1293.08 96.3682 1292.77 96.1396C1292.48 95.9111 1292.24 95.6416 1292.07 95.3311C1291.9 95.0146 1291.82 94.6543 1291.82 94.25C1291.82 93.8516 1291.9 93.4766 1292.07 93.125C1292.25 92.7734 1292.5 92.4629 1292.82 92.1934C1293.15 91.918 1293.55 91.7041 1294.01 91.5518C1294.49 91.3936 1295.02 91.3145 1295.61 91.3145C1296.44 91.3145 1297.15 91.4463 1297.74 91.71C1298.34 91.9736 1298.8 92.3369 1299.11 92.7998C1299.43 93.2568 1299.6 93.7783 1299.6 94.3643H1297.06C1297.06 94.1182 1297.01 93.8984 1296.91 93.7051C1296.81 93.5059 1296.65 93.3506 1296.43 93.2393C1296.22 93.1221 1295.94 93.0635 1295.6 93.0635C1295.32 93.0635 1295.08 93.1133 1294.88 93.2129C1294.67 93.3066 1294.51 93.4355 1294.4 93.5996C1294.3 93.7578 1294.24 93.9336 1294.24 94.127C1294.24 94.2734 1294.27 94.4053 1294.33 94.5225C1294.39 94.6338 1294.5 94.7363 1294.64 94.8301C1294.78 94.9238 1294.96 95.0117 1295.18 95.0938C1295.41 95.1699 1295.69 95.2402 1296.03 95.3047C1296.71 95.4453 1297.32 95.6299 1297.86 95.8584C1298.4 96.0811 1298.83 96.3857 1299.15 96.7725C1299.46 97.1533 1299.62 97.6543 1299.62 98.2754C1299.62 98.6973 1299.53 99.084 1299.34 99.4355C1299.15 99.7871 1298.88 100.095 1298.53 100.358C1298.18 100.616 1297.76 100.818 1297.27 100.965C1296.78 101.105 1296.23 101.176 1295.62 101.176C1294.74 101.176 1293.99 101.018 1293.37 100.701C1292.76 100.385 1292.3 99.9834 1291.98 99.4971C1291.67 99.0049 1291.52 98.501 1291.52 97.9854H1293.92C1293.93 98.3311 1294.02 98.6094 1294.18 98.8203C1294.35 99.0312 1294.56 99.1836 1294.82 99.2773C1295.09 99.3711 1295.37 99.418 1295.68 99.418C1296 99.418 1296.28 99.374 1296.49 99.2861C1296.71 99.1924 1296.87 99.0693 1296.98 98.917C1297.1 98.7588 1297.16 98.5771 1297.16 98.3721ZM1306.77 98.3721C1306.77 98.1904 1306.71 98.0264 1306.61 97.8799C1306.5 97.7334 1306.31 97.5986 1306.02 97.4756C1305.74 97.3467 1305.33 97.2295 1304.8 97.124C1304.32 97.0186 1303.87 96.8867 1303.45 96.7285C1303.04 96.5645 1302.69 96.3682 1302.38 96.1396C1302.08 95.9111 1301.85 95.6416 1301.68 95.3311C1301.51 95.0146 1301.42 94.6543 1301.42 94.25C1301.42 93.8516 1301.51 93.4766 1301.68 93.125C1301.85 92.7734 1302.1 92.4629 1302.42 92.1934C1302.75 91.918 1303.15 91.7041 1303.62 91.5518C1304.09 91.3936 1304.63 91.3145 1305.22 91.3145C1306.05 91.3145 1306.76 91.4463 1307.35 91.71C1307.94 91.9736 1308.4 92.3369 1308.72 92.7998C1309.04 93.2568 1309.2 93.7783 1309.2 94.3643H1306.67C1306.67 94.1182 1306.62 93.8984 1306.51 93.7051C1306.41 93.5059 1306.25 93.3506 1306.04 93.2393C1305.83 93.1221 1305.55 93.0635 1305.21 93.0635C1304.93 93.0635 1304.69 93.1133 1304.48 93.2129C1304.28 93.3066 1304.12 93.4355 1304.01 93.5996C1303.9 93.7578 1303.85 93.9336 1303.85 94.127C1303.85 94.2734 1303.88 94.4053 1303.94 94.5225C1304 94.6338 1304.1 94.7363 1304.24 94.8301C1304.38 94.9238 1304.57 95.0117 1304.79 95.0938C1305.02 95.1699 1305.3 95.2402 1305.63 95.3047C1306.32 95.4453 1306.93 95.6299 1307.47 95.8584C1308.01 96.0811 1308.44 96.3857 1308.75 96.7725C1309.07 97.1533 1309.23 97.6543 1309.23 98.2754C1309.23 98.6973 1309.13 99.084 1308.95 99.4355C1308.76 99.7871 1308.49 100.095 1308.14 100.358C1307.79 100.616 1307.36 100.818 1306.87 100.965C1306.39 101.105 1305.84 101.176 1305.23 101.176C1304.34 101.176 1303.59 101.018 1302.98 100.701C1302.37 100.385 1301.91 99.9834 1301.59 99.4971C1301.28 99.0049 1301.12 98.501 1301.12 97.9854H1303.52C1303.54 98.3311 1303.62 98.6094 1303.79 98.8203C1303.96 99.0312 1304.17 99.1836 1304.43 99.2773C1304.69 99.3711 1304.98 99.418 1305.28 99.418C1305.61 99.418 1305.88 99.374 1306.1 99.2861C1306.32 99.1924 1306.48 99.0693 1306.59 98.917C1306.71 98.7588 1306.77 98.5771 1306.77 98.3721Z" fill="white"/>
<path d="M849.284 88.9082L845.461 100H843.149L847.966 87.2031H849.442L849.284 88.9082ZM852.483 100L848.651 88.9082L848.484 87.2031H849.97L854.804 100H852.483ZM852.299 95.2539V97.0029H845.338V95.2539H852.299ZM856.394 86.5H858.512V97.9697L858.31 100H856.394V86.5ZM864.717 95.1572V95.3418C864.717 96.0449 864.638 96.6924 864.48 97.2842C864.328 97.8701 864.093 98.3799 863.777 98.8135C863.466 99.2471 863.08 99.584 862.617 99.8242C862.16 100.059 861.63 100.176 861.026 100.176C860.434 100.176 859.919 100.064 859.479 99.8418C859.04 99.6191 858.671 99.3027 858.372 98.8926C858.079 98.4824 857.841 97.9932 857.66 97.4248C857.478 96.8564 857.349 96.2295 857.273 95.5439V94.9551C857.349 94.2637 857.478 93.6367 857.66 93.0742C857.841 92.5059 858.079 92.0166 858.372 91.6064C858.671 91.1904 859.037 90.8711 859.47 90.6484C859.91 90.4258 860.422 90.3145 861.008 90.3145C861.618 90.3145 862.154 90.4316 862.617 90.666C863.086 90.9004 863.475 91.2344 863.786 91.668C864.096 92.0957 864.328 92.6055 864.48 93.1973C864.638 93.7891 864.717 94.4424 864.717 95.1572ZM862.599 95.3418V95.1572C862.599 94.7295 862.564 94.3281 862.494 93.9531C862.423 93.5723 862.306 93.2383 862.142 92.9512C861.984 92.6641 861.767 92.4385 861.492 92.2744C861.222 92.1045 860.885 92.0195 860.481 92.0195C860.106 92.0195 859.784 92.084 859.514 92.2129C859.245 92.3418 859.019 92.5176 858.838 92.7402C858.656 92.9629 858.512 93.2207 858.407 93.5137C858.307 93.8066 858.24 94.123 858.205 94.4629V96.0537C858.257 96.4932 858.369 96.8975 858.539 97.2666C858.714 97.6299 858.961 97.9229 859.277 98.1455C859.593 98.3623 860.001 98.4707 860.499 98.4707C860.891 98.4707 861.222 98.3916 861.492 98.2334C861.761 98.0752 861.975 97.8555 862.133 97.5742C862.297 97.2871 862.415 96.9531 862.485 96.5723C862.561 96.1914 862.599 95.7812 862.599 95.3418ZM866.466 95.3506V95.1484C866.466 94.4629 866.566 93.8271 866.765 93.2412C866.964 92.6494 867.251 92.1367 867.626 91.7031C868.007 91.2637 868.47 90.9238 869.015 90.6836C869.566 90.4375 870.187 90.3145 870.878 90.3145C871.575 90.3145 872.197 90.4375 872.741 90.6836C873.292 90.9238 873.758 91.2637 874.139 91.7031C874.52 92.1367 874.81 92.6494 875.009 93.2412C875.208 93.8271 875.308 94.4629 875.308 95.1484V95.3506C875.308 96.0361 875.208 96.6719 875.009 97.2578C874.81 97.8438 874.52 98.3564 874.139 98.7959C873.758 99.2295 873.295 99.5693 872.75 99.8154C872.205 100.056 871.587 100.176 870.896 100.176C870.199 100.176 869.574 100.056 869.024 99.8154C868.479 99.5693 868.016 99.2295 867.635 98.7959C867.254 98.3564 866.964 97.8438 866.765 97.2578C866.566 96.6719 866.466 96.0361 866.466 95.3506ZM868.584 95.1484V95.3506C868.584 95.7783 868.628 96.1826 868.716 96.5635C868.804 96.9443 868.942 97.2783 869.129 97.5654C869.317 97.8525 869.557 98.0781 869.85 98.2422C870.143 98.4062 870.491 98.4883 870.896 98.4883C871.288 98.4883 871.628 98.4062 871.915 98.2422C872.208 98.0781 872.449 97.8525 872.636 97.5654C872.824 97.2783 872.961 96.9443 873.049 96.5635C873.143 96.1826 873.19 95.7783 873.19 95.3506V95.1484C873.19 94.7266 873.143 94.3281 873.049 93.9531C872.961 93.5723 872.821 93.2354 872.627 92.9424C872.44 92.6494 872.199 92.4209 871.907 92.2568C871.619 92.0869 871.277 92.002 870.878 92.002C870.48 92.002 870.134 92.0869 869.841 92.2568C869.554 92.4209 869.317 92.6494 869.129 92.9424C868.942 93.2354 868.804 93.5723 868.716 93.9531C868.628 94.3281 868.584 94.7266 868.584 95.1484ZM883.165 97.7588V90.4902H885.292V100H883.288L883.165 97.7588ZM883.464 95.7812L884.176 95.7637C884.176 96.4023 884.105 96.9912 883.965 97.5303C883.824 98.0635 883.607 98.5293 883.314 98.9277C883.021 99.3203 882.646 99.6279 882.189 99.8506C881.732 100.067 881.184 100.176 880.546 100.176C880.083 100.176 879.658 100.108 879.271 99.9736C878.885 99.8389 878.551 99.6309 878.269 99.3496C877.994 99.0684 877.78 98.7021 877.628 98.251C877.476 97.7998 877.399 97.2607 877.399 96.6338V90.4902H879.518V96.6514C879.518 96.9971 879.559 97.2871 879.641 97.5215C879.723 97.75 879.834 97.9346 879.975 98.0752C880.115 98.2158 880.279 98.3154 880.467 98.374C880.654 98.4326 880.853 98.4619 881.064 98.4619C881.668 98.4619 882.143 98.3447 882.488 98.1104C882.84 97.8701 883.089 97.5479 883.235 97.1436C883.388 96.7393 883.464 96.2852 883.464 95.7812ZM892.182 90.4902V92.0371H886.821V90.4902H892.182ZM888.368 88.1611H890.486V97.3721C890.486 97.665 890.527 97.8906 890.609 98.0488C890.697 98.2012 890.817 98.3037 890.969 98.3564C891.122 98.4092 891.3 98.4355 891.505 98.4355C891.652 98.4355 891.793 98.4268 891.927 98.4092C892.062 98.3916 892.17 98.374 892.252 98.3564L892.261 99.9736C892.086 100.026 891.88 100.073 891.646 100.114C891.418 100.155 891.154 100.176 890.855 100.176C890.369 100.176 889.938 100.091 889.563 99.9209C889.188 99.7451 888.895 99.4609 888.684 99.0684C888.473 98.6758 888.368 98.1543 888.368 97.5039V88.1611Z" fill="#232323"/>
<path d="M734.1 94.2168H730.839L730.821 92.6084H733.669C734.149 92.6084 734.557 92.5381 734.891 92.3975C735.23 92.251 735.488 92.043 735.664 91.7734C735.84 91.498 735.928 91.167 735.928 90.7803C735.928 90.3525 735.846 90.0039 735.682 89.7344C735.518 89.4648 735.266 89.2686 734.926 89.1455C734.592 89.0225 734.164 88.9609 733.643 88.9609H731.507V100H729.301V87.2031H733.643C734.346 87.2031 734.973 87.2705 735.523 87.4053C736.08 87.54 736.552 87.751 736.938 88.0381C737.331 88.3193 737.627 88.6768 737.826 89.1104C738.031 89.5439 738.134 90.0596 738.134 90.6572C738.134 91.1846 738.008 91.668 737.756 92.1074C737.504 92.541 737.132 92.8955 736.64 93.1709C736.147 93.4463 735.535 93.6104 734.803 93.6631L734.1 94.2168ZM734.003 100H730.145L731.138 98.251H734.003C734.501 98.251 734.917 98.1689 735.251 98.0049C735.585 97.835 735.834 97.6035 735.998 97.3105C736.168 97.0117 736.253 96.6631 736.253 96.2646C736.253 95.8486 736.18 95.4883 736.033 95.1836C735.887 94.873 735.655 94.6357 735.339 94.4717C735.022 94.3018 734.609 94.2168 734.1 94.2168H731.621L731.639 92.6084H734.864L735.365 93.2148C736.068 93.2383 736.646 93.3936 737.097 93.6807C737.554 93.9678 737.894 94.3398 738.116 94.7969C738.339 95.2539 738.45 95.7461 738.45 96.2734C738.45 97.0879 738.271 97.7705 737.914 98.3213C737.562 98.8721 737.056 99.291 736.394 99.5781C735.731 99.8594 734.935 100 734.003 100ZM742.95 92.3008V100H740.832V90.4902H742.853L742.95 92.3008ZM745.859 90.4287L745.841 92.3975C745.713 92.374 745.572 92.3564 745.42 92.3447C745.273 92.333 745.127 92.3271 744.98 92.3271C744.617 92.3271 744.297 92.3799 744.022 92.4854C743.747 92.585 743.515 92.7314 743.328 92.9248C743.146 93.1123 743.006 93.3408 742.906 93.6104C742.806 93.8799 742.748 94.1816 742.73 94.5156L742.247 94.5508C742.247 93.9531 742.305 93.3994 742.422 92.8896C742.54 92.3799 742.715 91.9316 742.95 91.5449C743.19 91.1582 743.489 90.8564 743.846 90.6396C744.21 90.4229 744.629 90.3145 745.103 90.3145C745.232 90.3145 745.37 90.3262 745.516 90.3496C745.669 90.373 745.783 90.3994 745.859 90.4287ZM746.913 95.3506V95.1484C746.913 94.4629 747.013 93.8271 747.212 93.2412C747.411 92.6494 747.699 92.1367 748.074 91.7031C748.454 91.2637 748.917 90.9238 749.462 90.6836C750.013 90.4375 750.634 90.3145 751.325 90.3145C752.023 90.3145 752.644 90.4375 753.189 90.6836C753.74 90.9238 754.205 91.2637 754.586 91.7031C754.967 92.1367 755.257 92.6494 755.456 93.2412C755.656 93.8271 755.755 94.4629 755.755 95.1484V95.3506C755.755 96.0361 755.656 96.6719 755.456 97.2578C755.257 97.8438 754.967 98.3564 754.586 98.7959C754.205 99.2295 753.742 99.5693 753.198 99.8154C752.653 100.056 752.034 100.176 751.343 100.176C750.646 100.176 750.022 100.056 749.471 99.8154C748.926 99.5693 748.463 99.2295 748.082 98.7959C747.701 98.3564 747.411 97.8438 747.212 97.2578C747.013 96.6719 746.913 96.0361 746.913 95.3506ZM749.032 95.1484V95.3506C749.032 95.7783 749.075 96.1826 749.163 96.5635C749.251 96.9443 749.389 97.2783 749.576 97.5654C749.764 97.8525 750.004 98.0781 750.297 98.2422C750.59 98.4062 750.939 98.4883 751.343 98.4883C751.736 98.4883 752.075 98.4062 752.363 98.2422C752.656 98.0781 752.896 97.8525 753.083 97.5654C753.271 97.2783 753.408 96.9443 753.496 96.5635C753.59 96.1826 753.637 95.7783 753.637 95.3506V95.1484C753.637 94.7266 753.59 94.3281 753.496 93.9531C753.408 93.5723 753.268 93.2354 753.074 92.9424C752.887 92.6494 752.647 92.4209 752.354 92.2568C752.067 92.0869 751.724 92.002 751.325 92.002C750.927 92.002 750.581 92.0869 750.288 92.2568C750.001 92.4209 749.764 92.6494 749.576 92.9424C749.389 93.2354 749.251 93.5723 749.163 93.9531C749.075 94.3281 749.032 94.7266 749.032 95.1484ZM760.475 97.8906L762.672 90.4902H764.025L763.656 92.7051L761.441 100H760.228L760.475 97.8906ZM759.183 90.4902L760.896 97.9258L761.037 100H759.684L757.108 90.4902H759.183ZM766.082 97.8379L767.743 90.4902H769.809L767.242 100H765.889L766.082 97.8379ZM764.254 90.4902L766.425 97.8027L766.697 100H765.484L763.243 92.6963L762.874 90.4902H764.254ZM776.945 97.4248C776.945 97.2139 776.892 97.0234 776.787 96.8535C776.681 96.6777 776.479 96.5195 776.18 96.3789C775.887 96.2383 775.454 96.1094 774.879 95.9922C774.376 95.8809 773.913 95.749 773.491 95.5967C773.075 95.4385 772.717 95.248 772.419 95.0254C772.12 94.8027 771.888 94.5391 771.724 94.2344C771.56 93.9297 771.478 93.5781 771.478 93.1797C771.478 92.793 771.563 92.4268 771.733 92.0811C771.903 91.7354 772.146 91.4307 772.462 91.167C772.779 90.9033 773.163 90.6953 773.614 90.543C774.071 90.3906 774.581 90.3145 775.143 90.3145C775.94 90.3145 776.623 90.4492 777.191 90.7188C777.765 90.9824 778.205 91.3428 778.509 91.7998C778.814 92.251 778.966 92.7607 778.966 93.3291H776.848C776.848 93.0771 776.784 92.8428 776.655 92.626C776.532 92.4033 776.344 92.2246 776.092 92.0898C775.84 91.9492 775.524 91.8789 775.143 91.8789C774.78 91.8789 774.478 91.9375 774.238 92.0547C774.003 92.166 773.828 92.3125 773.711 92.4941C773.599 92.6758 773.544 92.875 773.544 93.0918C773.544 93.25 773.573 93.3936 773.631 93.5225C773.696 93.6455 773.801 93.7598 773.948 93.8652C774.094 93.9648 774.294 94.0586 774.545 94.1465C774.803 94.2344 775.126 94.3193 775.512 94.4014C776.239 94.5537 776.863 94.75 777.384 94.9902C777.912 95.2246 778.316 95.5293 778.597 95.9043C778.878 96.2734 779.019 96.7422 779.019 97.3105C779.019 97.7324 778.928 98.1191 778.747 98.4707C778.571 98.8164 778.313 99.1182 777.973 99.376C777.633 99.6279 777.226 99.8242 776.752 99.9648C776.283 100.105 775.755 100.176 775.169 100.176C774.308 100.176 773.579 100.023 772.981 99.7188C772.383 99.4082 771.929 99.0127 771.619 98.5322C771.314 98.0459 771.162 97.542 771.162 97.0205H773.21C773.233 97.4131 773.341 97.7266 773.535 97.9609C773.734 98.1895 773.98 98.3564 774.273 98.4619C774.572 98.5615 774.879 98.6113 775.196 98.6113C775.577 98.6113 775.896 98.5615 776.154 98.4619C776.412 98.3564 776.608 98.2158 776.743 98.04C776.877 97.8584 776.945 97.6533 776.945 97.4248ZM785.426 100.176C784.723 100.176 784.087 100.062 783.519 99.833C782.956 99.5986 782.476 99.2734 782.077 98.8574C781.685 98.4414 781.383 97.9521 781.172 97.3896C780.961 96.8271 780.856 96.2207 780.856 95.5703V95.2188C780.856 94.4746 780.964 93.8008 781.181 93.1973C781.398 92.5938 781.699 92.0781 782.086 91.6504C782.473 91.2168 782.93 90.8857 783.457 90.6572C783.985 90.4287 784.556 90.3145 785.171 90.3145C785.851 90.3145 786.446 90.4287 786.955 90.6572C787.465 90.8857 787.887 91.208 788.221 91.624C788.561 92.0342 788.813 92.5234 788.977 93.0918C789.147 93.6602 789.232 94.2871 789.232 94.9727V95.8779H781.884V94.3574H787.14V94.1904C787.128 93.8096 787.052 93.4521 786.911 93.1182C786.777 92.7842 786.569 92.5146 786.287 92.3096C786.006 92.1045 785.631 92.002 785.162 92.002C784.811 92.002 784.497 92.0781 784.222 92.2305C783.952 92.377 783.727 92.5908 783.545 92.8721C783.363 93.1533 783.223 93.4932 783.123 93.8916C783.029 94.2842 782.983 94.7266 782.983 95.2188V95.5703C782.983 95.9863 783.038 96.373 783.15 96.7305C783.267 97.082 783.437 97.3896 783.659 97.6533C783.882 97.917 784.152 98.125 784.468 98.2773C784.784 98.4238 785.145 98.4971 785.549 98.4971C786.059 98.4971 786.513 98.3945 786.911 98.1895C787.31 97.9844 787.655 97.6943 787.948 97.3193L789.065 98.4004C788.86 98.6992 788.593 98.9863 788.265 99.2617C787.937 99.5312 787.535 99.751 787.061 99.9209C786.592 100.091 786.047 100.176 785.426 100.176Z" fill="#232323"/>
<path d="M949.507 87.2031V100H947.301V87.2031H949.507ZM954.728 92.8018V94.5508H948.944V92.8018H954.728ZM955.457 87.2031V88.9609H948.944V87.2031H955.457ZM956.766 95.3506V95.1484C956.766 94.4629 956.866 93.8271 957.065 93.2412C957.264 92.6494 957.551 92.1367 957.926 91.7031C958.307 91.2637 958.77 90.9238 959.315 90.6836C959.866 90.4375 960.487 90.3145 961.178 90.3145C961.876 90.3145 962.497 90.4375 963.042 90.6836C963.592 90.9238 964.058 91.2637 964.439 91.7031C964.82 92.1367 965.11 92.6494 965.309 93.2412C965.508 93.8271 965.608 94.4629 965.608 95.1484V95.3506C965.608 96.0361 965.508 96.6719 965.309 97.2578C965.11 97.8438 964.82 98.3564 964.439 98.7959C964.058 99.2295 963.595 99.5693 963.05 99.8154C962.506 100.056 961.887 100.176 961.196 100.176C960.499 100.176 959.875 100.056 959.324 99.8154C958.779 99.5693 958.316 99.2295 957.935 98.7959C957.554 98.3564 957.264 97.8438 957.065 97.2578C956.866 96.6719 956.766 96.0361 956.766 95.3506ZM958.884 95.1484V95.3506C958.884 95.7783 958.928 96.1826 959.016 96.5635C959.104 96.9443 959.242 97.2783 959.429 97.5654C959.617 97.8525 959.857 98.0781 960.15 98.2422C960.443 98.4062 960.792 98.4883 961.196 98.4883C961.589 98.4883 961.928 98.4062 962.215 98.2422C962.508 98.0781 962.749 97.8525 962.936 97.5654C963.124 97.2783 963.261 96.9443 963.349 96.5635C963.443 96.1826 963.49 95.7783 963.49 95.3506V95.1484C963.49 94.7266 963.443 94.3281 963.349 93.9531C963.261 93.5723 963.121 93.2354 962.927 92.9424C962.74 92.6494 962.5 92.4209 962.207 92.2568C961.92 92.0869 961.577 92.002 961.178 92.002C960.78 92.002 960.434 92.0869 960.141 92.2568C959.854 92.4209 959.617 92.6494 959.429 92.9424C959.242 93.2354 959.104 93.5723 959.016 93.9531C958.928 94.3281 958.884 94.7266 958.884 95.1484ZM969.87 92.3008V100H967.752V90.4902H969.774L969.87 92.3008ZM972.78 90.4287L972.762 92.3975C972.633 92.374 972.492 92.3564 972.34 92.3447C972.194 92.333 972.047 92.3271 971.901 92.3271C971.537 92.3271 971.218 92.3799 970.943 92.4854C970.667 92.585 970.436 92.7314 970.248 92.9248C970.067 93.1123 969.926 93.3408 969.826 93.6104C969.727 93.8799 969.668 94.1816 969.651 94.5156L969.167 94.5508C969.167 93.9531 969.226 93.3994 969.343 92.8896C969.46 92.3799 969.636 91.9316 969.87 91.5449C970.111 91.1582 970.409 90.8564 970.767 90.6396C971.13 90.4229 971.549 90.3145 972.024 90.3145C972.153 90.3145 972.29 90.3262 972.437 90.3496C972.589 90.373 972.703 90.3994 972.78 90.4287ZM984.319 94.2168H981.058L981.041 92.6084H983.888C984.369 92.6084 984.776 92.5381 985.11 92.3975C985.45 92.251 985.708 92.043 985.883 91.7734C986.059 91.498 986.147 91.167 986.147 90.7803C986.147 90.3525 986.065 90.0039 985.901 89.7344C985.737 89.4648 985.485 89.2686 985.145 89.1455C984.811 89.0225 984.383 88.9609 983.862 88.9609H981.726V100H979.52V87.2031H983.862C984.565 87.2031 985.192 87.2705 985.743 87.4053C986.299 87.54 986.771 87.751 987.158 88.0381C987.55 88.3193 987.846 88.6768 988.045 89.1104C988.251 89.5439 988.353 90.0596 988.353 90.6572C988.353 91.1846 988.227 91.668 987.975 92.1074C987.723 92.541 987.351 92.8955 986.859 93.1709C986.367 93.4463 985.754 93.6104 985.022 93.6631L984.319 94.2168ZM984.222 100H980.364L981.357 98.251H984.222C984.72 98.251 985.136 98.1689 985.47 98.0049C985.804 97.835 986.053 97.6035 986.217 97.3105C986.387 97.0117 986.472 96.6631 986.472 96.2646C986.472 95.8486 986.399 95.4883 986.252 95.1836C986.106 94.873 985.875 94.6357 985.558 94.4717C985.242 94.3018 984.829 94.2168 984.319 94.2168H981.84L981.858 92.6084H985.084L985.585 93.2148C986.288 93.2383 986.865 93.3936 987.316 93.6807C987.773 93.9678 988.113 94.3398 988.336 94.7969C988.558 95.2539 988.669 95.7461 988.669 96.2734C988.669 97.0879 988.491 97.7705 988.133 98.3213C987.782 98.8721 987.275 99.291 986.613 99.5781C985.951 99.8594 985.154 100 984.222 100ZM996.764 97.7588V90.4902H998.891V100H996.887L996.764 97.7588ZM997.063 95.7812L997.775 95.7637C997.775 96.4023 997.704 96.9912 997.564 97.5303C997.423 98.0635 997.206 98.5293 996.913 98.9277C996.62 99.3203 996.245 99.6279 995.788 99.8506C995.331 100.067 994.783 100.176 994.145 100.176C993.682 100.176 993.257 100.108 992.87 99.9736C992.484 99.8389 992.15 99.6309 991.868 99.3496C991.593 99.0684 991.379 98.7021 991.227 98.251C991.074 97.7998 990.998 97.2607 990.998 96.6338V90.4902H993.116V96.6514C993.116 96.9971 993.157 97.2871 993.239 97.5215C993.321 97.75 993.433 97.9346 993.573 98.0752C993.714 98.2158 993.878 98.3154 994.066 98.374C994.253 98.4326 994.452 98.4619 994.663 98.4619C995.267 98.4619 995.741 98.3447 996.087 98.1104C996.439 97.8701 996.688 97.5479 996.834 97.1436C996.987 96.7393 997.063 96.2852 997.063 95.7812ZM1006.76 97.4248C1006.76 97.2139 1006.7 97.0234 1006.6 96.8535C1006.49 96.6777 1006.29 96.5195 1005.99 96.3789C1005.7 96.2383 1005.27 96.1094 1004.69 95.9922C1004.19 95.8809 1003.72 95.749 1003.3 95.5967C1002.89 95.4385 1002.53 95.248 1002.23 95.0254C1001.93 94.8027 1001.7 94.5391 1001.54 94.2344C1001.37 93.9297 1001.29 93.5781 1001.29 93.1797C1001.29 92.793 1001.37 92.4268 1001.54 92.0811C1001.71 91.7354 1001.96 91.4307 1002.27 91.167C1002.59 90.9033 1002.97 90.6953 1003.43 90.543C1003.88 90.3906 1004.39 90.3145 1004.95 90.3145C1005.75 90.3145 1006.43 90.4492 1007 90.7188C1007.58 90.9824 1008.02 91.3428 1008.32 91.7998C1008.63 92.251 1008.78 92.7607 1008.78 93.3291H1006.66C1006.66 93.0771 1006.6 92.8428 1006.47 92.626C1006.34 92.4033 1006.16 92.2246 1005.9 92.0898C1005.65 91.9492 1005.34 91.8789 1004.95 91.8789C1004.59 91.8789 1004.29 91.9375 1004.05 92.0547C1003.82 92.166 1003.64 92.3125 1003.52 92.4941C1003.41 92.6758 1003.36 92.875 1003.36 93.0918C1003.36 93.25 1003.38 93.3936 1003.44 93.5225C1003.51 93.6455 1003.61 93.7598 1003.76 93.8652C1003.91 93.9648 1004.11 94.0586 1004.36 94.1465C1004.62 94.2344 1004.94 94.3193 1005.32 94.4014C1006.05 94.5537 1006.67 94.75 1007.2 94.9902C1007.72 95.2246 1008.13 95.5293 1008.41 95.9043C1008.69 96.2734 1008.83 96.7422 1008.83 97.3105C1008.83 97.7324 1008.74 98.1191 1008.56 98.4707C1008.38 98.8164 1008.12 99.1182 1007.78 99.376C1007.45 99.6279 1007.04 99.8242 1006.56 99.9648C1006.09 100.105 1005.57 100.176 1004.98 100.176C1004.12 100.176 1003.39 100.023 1002.79 99.7188C1002.2 99.4082 1001.74 99.0127 1001.43 98.5322C1001.13 98.0459 1000.97 97.542 1000.97 97.0205H1003.02C1003.04 97.4131 1003.15 97.7266 1003.35 97.9609C1003.55 98.1895 1003.79 98.3564 1004.08 98.4619C1004.38 98.5615 1004.69 98.6113 1005.01 98.6113C1005.39 98.6113 1005.71 98.5615 1005.97 98.4619C1006.22 98.3564 1006.42 98.2158 1006.55 98.04C1006.69 97.8584 1006.76 97.6533 1006.76 97.4248ZM1013.31 90.4902V100H1011.19V90.4902H1013.31ZM1011.05 87.9941C1011.05 87.6719 1011.15 87.4053 1011.36 87.1943C1011.58 86.9775 1011.88 86.8691 1012.26 86.8691C1012.63 86.8691 1012.93 86.9775 1013.15 87.1943C1013.36 87.4053 1013.47 87.6719 1013.47 87.9941C1013.47 88.3105 1013.36 88.5742 1013.15 88.7852C1012.93 88.9961 1012.63 89.1016 1012.26 89.1016C1011.88 89.1016 1011.58 88.9961 1011.36 88.7852C1011.15 88.5742 1011.05 88.3105 1011.05 87.9941ZM1018.09 92.5205V100H1015.98V90.4902H1017.97L1018.09 92.5205ZM1017.72 94.8936L1017.03 94.8848C1017.04 94.2109 1017.13 93.5928 1017.31 93.0303C1017.5 92.4678 1017.76 91.9844 1018.09 91.5801C1018.42 91.1758 1018.82 90.8652 1019.28 90.6484C1019.74 90.4258 1020.26 90.3145 1020.83 90.3145C1021.28 90.3145 1021.7 90.3789 1022.07 90.5078C1022.44 90.6309 1022.76 90.833 1023.02 91.1143C1023.29 91.3955 1023.5 91.7617 1023.64 92.2129C1023.78 92.6582 1023.85 93.2061 1023.85 93.8564V100H1021.72V93.8477C1021.72 93.3906 1021.66 93.0303 1021.52 92.7666C1021.39 92.4971 1021.2 92.3066 1020.95 92.1953C1020.7 92.0781 1020.4 92.0195 1020.03 92.0195C1019.66 92.0195 1019.34 92.0957 1019.05 92.248C1018.76 92.4004 1018.52 92.6084 1018.32 92.8721C1018.13 93.1357 1017.98 93.4404 1017.87 93.7861C1017.77 94.1318 1017.72 94.501 1017.72 94.8936ZM1030.57 100.176C1029.86 100.176 1029.23 100.062 1028.66 99.833C1028.1 99.5986 1027.61 99.2734 1027.22 98.8574C1026.82 98.4414 1026.52 97.9521 1026.31 97.3896C1026.1 96.8271 1025.99 96.2207 1025.99 95.5703V95.2188C1025.99 94.4746 1026.1 93.8008 1026.32 93.1973C1026.54 92.5938 1026.84 92.0781 1027.23 91.6504C1027.61 91.2168 1028.07 90.8857 1028.6 90.6572C1029.12 90.4287 1029.7 90.3145 1030.31 90.3145C1030.99 90.3145 1031.58 90.4287 1032.09 90.6572C1032.6 90.8857 1033.03 91.208 1033.36 91.624C1033.7 92.0342 1033.95 92.5234 1034.12 93.0918C1034.29 93.6602 1034.37 94.2871 1034.37 94.9727V95.8779H1027.02V94.3574H1032.28V94.1904C1032.27 93.8096 1032.19 93.4521 1032.05 93.1182C1031.92 92.7842 1031.71 92.5146 1031.43 92.3096C1031.15 92.1045 1030.77 92.002 1030.3 92.002C1029.95 92.002 1029.64 92.0781 1029.36 92.2305C1029.09 92.377 1028.87 92.5908 1028.68 92.8721C1028.5 93.1533 1028.36 93.4932 1028.26 93.8916C1028.17 94.2842 1028.12 94.7266 1028.12 95.2188V95.5703C1028.12 95.9863 1028.18 96.373 1028.29 96.7305C1028.41 97.082 1028.58 97.3896 1028.8 97.6533C1029.02 97.917 1029.29 98.125 1029.61 98.2773C1029.92 98.4238 1030.28 98.4971 1030.69 98.4971C1031.2 98.4971 1031.65 98.3945 1032.05 98.1895C1032.45 97.9844 1032.79 97.6943 1033.09 97.3193L1034.2 98.4004C1034 98.6992 1033.73 98.9863 1033.4 99.2617C1033.08 99.5312 1032.67 99.751 1032.2 99.9209C1031.73 100.091 1031.19 100.176 1030.57 100.176ZM1041.72 97.4248C1041.72 97.2139 1041.67 97.0234 1041.56 96.8535C1041.45 96.6777 1041.25 96.5195 1040.95 96.3789C1040.66 96.2383 1040.23 96.1094 1039.65 95.9922C1039.15 95.8809 1038.69 95.749 1038.26 95.5967C1037.85 95.4385 1037.49 95.248 1037.19 95.0254C1036.89 94.8027 1036.66 94.5391 1036.5 94.2344C1036.33 93.9297 1036.25 93.5781 1036.25 93.1797C1036.25 92.793 1036.34 92.4268 1036.51 92.0811C1036.68 91.7354 1036.92 91.4307 1037.24 91.167C1037.55 90.9033 1037.94 90.6953 1038.39 90.543C1038.84 90.3906 1039.35 90.3145 1039.92 90.3145C1040.71 90.3145 1041.4 90.4492 1041.96 90.7188C1042.54 90.9824 1042.98 91.3428 1043.28 91.7998C1043.59 92.251 1043.74 92.7607 1043.74 93.3291H1041.62C1041.62 93.0771 1041.56 92.8428 1041.43 92.626C1041.31 92.4033 1041.12 92.2246 1040.87 92.0898C1040.61 91.9492 1040.3 91.8789 1039.92 91.8789C1039.55 91.8789 1039.25 91.9375 1039.01 92.0547C1038.78 92.166 1038.6 92.3125 1038.48 92.4941C1038.37 92.6758 1038.32 92.875 1038.32 93.0918C1038.32 93.25 1038.35 93.3936 1038.4 93.5225C1038.47 93.6455 1038.57 93.7598 1038.72 93.8652C1038.87 93.9648 1039.07 94.0586 1039.32 94.1465C1039.58 94.2344 1039.9 94.3193 1040.29 94.4014C1041.01 94.5537 1041.64 94.75 1042.16 94.9902C1042.68 95.2246 1043.09 95.5293 1043.37 95.9043C1043.65 96.2734 1043.79 96.7422 1043.79 97.3105C1043.79 97.7324 1043.7 98.1191 1043.52 98.4707C1043.34 98.8164 1043.09 99.1182 1042.75 99.376C1042.41 99.6279 1042 99.8242 1041.52 99.9648C1041.06 100.105 1040.53 100.176 1039.94 100.176C1039.08 100.176 1038.35 100.023 1037.75 99.7188C1037.16 99.4082 1036.7 99.0127 1036.39 98.5322C1036.09 98.0459 1035.93 97.542 1035.93 97.0205H1037.98C1038.01 97.4131 1038.11 97.7266 1038.31 97.9609C1038.51 98.1895 1038.75 98.3564 1039.05 98.4619C1039.35 98.5615 1039.65 98.6113 1039.97 98.6113C1040.35 98.6113 1040.67 98.5615 1040.93 98.4619C1041.18 98.3564 1041.38 98.2158 1041.52 98.04C1041.65 97.8584 1041.72 97.6533 1041.72 97.4248ZM1051.34 97.4248C1051.34 97.2139 1051.29 97.0234 1051.18 96.8535C1051.08 96.6777 1050.88 96.5195 1050.58 96.3789C1050.28 96.2383 1049.85 96.1094 1049.28 95.9922C1048.77 95.8809 1048.31 95.749 1047.89 95.5967C1047.47 95.4385 1047.11 95.248 1046.82 95.0254C1046.52 94.8027 1046.29 94.5391 1046.12 94.2344C1045.96 93.9297 1045.88 93.5781 1045.88 93.1797C1045.88 92.793 1045.96 92.4268 1046.13 92.0811C1046.3 91.7354 1046.54 91.4307 1046.86 91.167C1047.18 90.9033 1047.56 90.6953 1048.01 90.543C1048.47 90.3906 1048.98 90.3145 1049.54 90.3145C1050.34 90.3145 1051.02 90.4492 1051.59 90.7188C1052.16 90.9824 1052.6 91.3428 1052.91 91.7998C1053.21 92.251 1053.36 92.7607 1053.36 93.3291H1051.25C1051.25 93.0771 1051.18 92.8428 1051.05 92.626C1050.93 92.4033 1050.74 92.2246 1050.49 92.0898C1050.24 91.9492 1049.92 91.8789 1049.54 91.8789C1049.18 91.8789 1048.88 91.9375 1048.63 92.0547C1048.4 92.166 1048.22 92.3125 1048.11 92.4941C1048 92.6758 1047.94 92.875 1047.94 93.0918C1047.94 93.25 1047.97 93.3936 1048.03 93.5225C1048.09 93.6455 1048.2 93.7598 1048.34 93.8652C1048.49 93.9648 1048.69 94.0586 1048.94 94.1465C1049.2 94.2344 1049.52 94.3193 1049.91 94.4014C1050.64 94.5537 1051.26 94.75 1051.78 94.9902C1052.31 95.2246 1052.71 95.5293 1052.99 95.9043C1053.28 96.2734 1053.42 96.7422 1053.42 97.3105C1053.42 97.7324 1053.33 98.1191 1053.14 98.4707C1052.97 98.8164 1052.71 99.1182 1052.37 99.376C1052.03 99.6279 1051.62 99.8242 1051.15 99.9648C1050.68 100.105 1050.15 100.176 1049.57 100.176C1048.71 100.176 1047.98 100.023 1047.38 99.7188C1046.78 99.4082 1046.33 99.0127 1046.02 98.5322C1045.71 98.0459 1045.56 97.542 1045.56 97.0205H1047.61C1047.63 97.4131 1047.74 97.7266 1047.93 97.9609C1048.13 98.1895 1048.38 98.3564 1048.67 98.4619C1048.97 98.5615 1049.28 98.6113 1049.59 98.6113C1049.97 98.6113 1050.29 98.5615 1050.55 98.4619C1050.81 98.3564 1051 98.2158 1051.14 98.04C1051.27 97.8584 1051.34 97.6533 1051.34 97.4248ZM1059.82 100.176C1059.12 100.176 1058.48 100.062 1057.92 99.833C1057.35 99.5986 1056.87 99.2734 1056.47 98.8574C1056.08 98.4414 1055.78 97.9521 1055.57 97.3896C1055.36 96.8271 1055.25 96.2207 1055.25 95.5703V95.2188C1055.25 94.4746 1055.36 93.8008 1055.58 93.1973C1055.79 92.5938 1056.1 92.0781 1056.48 91.6504C1056.87 91.2168 1057.33 90.8857 1057.85 90.6572C1058.38 90.4287 1058.95 90.3145 1059.57 90.3145C1060.25 90.3145 1060.84 90.4287 1061.35 90.6572C1061.86 90.8857 1062.28 91.208 1062.62 91.624C1062.96 92.0342 1063.21 92.5234 1063.37 93.0918C1063.54 93.6602 1063.63 94.2871 1063.63 94.9727V95.8779H1056.28V94.3574H1061.54V94.1904C1061.53 93.8096 1061.45 93.4521 1061.31 93.1182C1061.17 92.7842 1060.97 92.5146 1060.68 92.3096C1060.4 92.1045 1060.03 92.002 1059.56 92.002C1059.21 92.002 1058.89 92.0781 1058.62 92.2305C1058.35 92.377 1058.12 92.5908 1057.94 92.8721C1057.76 93.1533 1057.62 93.4932 1057.52 93.8916C1057.43 94.2842 1057.38 94.7266 1057.38 95.2188V95.5703C1057.38 95.9863 1057.44 96.373 1057.55 96.7305C1057.66 97.082 1057.83 97.3896 1058.06 97.6533C1058.28 97.917 1058.55 98.125 1058.86 98.2773C1059.18 98.4238 1059.54 98.4971 1059.95 98.4971C1060.46 98.4971 1060.91 98.3945 1061.31 98.1895C1061.71 97.9844 1062.05 97.6943 1062.35 97.3193L1063.46 98.4004C1063.26 98.6992 1062.99 98.9863 1062.66 99.2617C1062.33 99.5312 1061.93 99.751 1061.46 99.9209C1060.99 100.091 1060.44 100.176 1059.82 100.176ZM1070.98 97.4248C1070.98 97.2139 1070.92 97.0234 1070.82 96.8535C1070.71 96.6777 1070.51 96.5195 1070.21 96.3789C1069.92 96.2383 1069.48 96.1094 1068.91 95.9922C1068.41 95.8809 1067.94 95.749 1067.52 95.5967C1067.11 95.4385 1066.75 95.248 1066.45 95.0254C1066.15 94.8027 1065.92 94.5391 1065.76 94.2344C1065.59 93.9297 1065.51 93.5781 1065.51 93.1797C1065.51 92.793 1065.59 92.4268 1065.76 92.0811C1065.93 91.7354 1066.18 91.4307 1066.49 91.167C1066.81 90.9033 1067.19 90.6953 1067.64 90.543C1068.1 90.3906 1068.61 90.3145 1069.17 90.3145C1069.97 90.3145 1070.65 90.4492 1071.22 90.7188C1071.8 90.9824 1072.24 91.3428 1072.54 91.7998C1072.85 92.251 1073 92.7607 1073 93.3291H1070.88C1070.88 93.0771 1070.81 92.8428 1070.69 92.626C1070.56 92.4033 1070.38 92.2246 1070.12 92.0898C1069.87 91.9492 1069.56 91.8789 1069.17 91.8789C1068.81 91.8789 1068.51 91.9375 1068.27 92.0547C1068.03 92.166 1067.86 92.3125 1067.74 92.4941C1067.63 92.6758 1067.57 92.875 1067.57 93.0918C1067.57 93.25 1067.6 93.3936 1067.66 93.5225C1067.73 93.6455 1067.83 93.7598 1067.98 93.8652C1068.13 93.9648 1068.32 94.0586 1068.58 94.1465C1068.83 94.2344 1069.16 94.3193 1069.54 94.4014C1070.27 94.5537 1070.89 94.75 1071.42 94.9902C1071.94 95.2246 1072.35 95.5293 1072.63 95.9043C1072.91 96.2734 1073.05 96.7422 1073.05 97.3105C1073.05 97.7324 1072.96 98.1191 1072.78 98.4707C1072.6 98.8164 1072.34 99.1182 1072 99.376C1071.66 99.6279 1071.26 99.8242 1070.78 99.9648C1070.31 100.105 1069.79 100.176 1069.2 100.176C1068.34 100.176 1067.61 100.023 1067.01 99.7188C1066.41 99.4082 1065.96 99.0127 1065.65 98.5322C1065.35 98.0459 1065.19 97.542 1065.19 97.0205H1067.24C1067.26 97.4131 1067.37 97.7266 1067.57 97.9609C1067.76 98.1895 1068.01 98.3564 1068.3 98.4619C1068.6 98.5615 1068.91 98.6113 1069.23 98.6113C1069.61 98.6113 1069.93 98.5615 1070.18 98.4619C1070.44 98.3564 1070.64 98.2158 1070.77 98.04C1070.91 97.8584 1070.98 97.6533 1070.98 97.4248Z" fill="#232323"/>
<path d="M190.105 102.454C190.105 104.614 189.988 106.15 189.753 107.06C189.644 107.508 189.37 107.731 188.933 107.731C187.776 107.731 186.042 107.662 183.729 107.523C181.416 107.4 179.681 107.338 178.525 107.338C177.431 107.338 175.798 107.361 173.626 107.407C171.454 107.454 169.821 107.477 168.727 107.477C168.336 107.477 168.141 107.284 168.141 106.898C168.141 105.216 168.195 102.677 168.305 99.2824C168.43 95.8873 168.492 93.341 168.492 91.6435C168.492 89.8534 168.406 87.1759 168.234 83.6111C168.078 80.0309 168 77.3457 168 75.5556C168 75.216 168.195 75.0463 168.586 75.0463C168.867 75.0463 169.297 75.0694 169.875 75.1157C170.453 75.162 170.891 75.1852 171.188 75.1852C171.469 75.1852 171.907 75.162 172.501 75.1157C173.095 75.0694 173.532 75.0463 173.813 75.0463C174.188 75.0463 174.376 75.1929 174.376 75.4861C174.376 77.1219 174.313 79.5833 174.188 82.8704C174.063 86.1574 174.001 88.6265 174.001 90.2778C174.001 91.0802 174.001 92.2994 174.001 93.9352C173.985 95.571 173.977 96.7901 173.977 97.5926C173.977 101.019 174.118 102.731 174.399 102.731C180.166 102.731 184.518 102.593 187.456 102.315C187.597 102.299 187.956 102.245 188.534 102.153C189.003 102.06 189.363 102.014 189.613 102.014C189.941 102.014 190.105 102.16 190.105 102.454Z" fill="#232323"/>
<path d="M214.998 96.2037C214.998 99.429 213.928 102.184 211.787 104.468C209.599 106.829 206.888 108.009 203.653 108.009C200.402 108.009 197.683 106.836 195.495 104.491C193.354 102.222 192.284 99.4753 192.284 96.25C192.284 93.0247 193.354 90.2778 195.495 88.0093C197.699 85.6944 200.418 84.537 203.653 84.537C206.872 84.537 209.576 85.6944 211.763 88.0093C213.92 90.2623 214.998 92.9938 214.998 96.2037ZM210.052 96.25C210.052 94.3673 209.466 92.7623 208.294 91.4352C207.075 90.0309 205.528 89.3287 203.653 89.3287C201.778 89.3287 200.223 90.0231 198.988 91.412C197.816 92.7546 197.23 94.3673 197.23 96.25C197.23 98.1019 197.824 99.7068 199.012 101.065C200.262 102.5 201.809 103.218 203.653 103.218C205.512 103.218 207.06 102.5 208.294 101.065C209.466 99.7068 210.052 98.1019 210.052 96.25Z" fill="#232323"/>
<path d="M235.649 86.4815C235.649 86.821 235.469 87.5772 235.11 88.75C234.75 89.9228 234.5 90.5093 234.36 90.5093C233.656 90.2006 232.945 89.892 232.226 89.5833C231.523 89.2747 230.75 89.1204 229.906 89.1204C227.984 89.1204 226.382 89.8225 225.1 91.2269C223.819 92.6312 223.178 94.2901 223.178 96.2037C223.178 98.0864 223.819 99.7145 225.1 101.088C226.413 102.508 228.015 103.218 229.906 103.218C230.953 103.218 231.984 102.963 233 102.454C234.016 101.944 234.461 101.69 234.336 101.69C234.539 101.69 234.766 102.338 235.016 103.634C235.25 104.807 235.368 105.617 235.368 106.065C235.368 106.543 234.453 107.014 232.625 107.477C231.093 107.863 229.961 108.056 229.226 108.056C226.007 108.056 223.288 106.867 221.069 104.491C218.896 102.176 217.81 99.4136 217.81 96.2037C217.81 92.9321 218.873 90.1543 220.998 87.8704C223.186 85.5247 225.913 84.3519 229.179 84.3519C231.367 84.3519 233.367 84.8997 235.18 85.9954C235.493 86.1806 235.649 86.3426 235.649 86.4815Z" fill="#232323"/>
<path d="M262.347 86.5278C262.347 86.5895 262.324 86.7284 262.277 86.9444C261.667 90.4784 261.363 93.5262 261.363 96.088C261.363 96.2423 261.558 99.7068 261.949 106.481L261.972 106.806C261.988 107.253 261.777 107.477 261.339 107.477C260.917 107.477 260.269 107.523 259.394 107.616C258.534 107.724 257.893 107.778 257.472 107.778C257.175 107.778 256.948 107.238 256.792 106.157C256.635 105.077 256.487 104.537 256.346 104.537C256.253 104.537 255.831 104.838 255.081 105.44C254.159 106.181 253.299 106.744 252.502 107.13C251.267 107.747 250.033 108.056 248.798 108.056C245.767 108.056 243.212 106.86 241.133 104.468C239.164 102.184 238.18 99.5216 238.18 96.4815C238.18 93.0556 239.172 90.2238 241.157 87.9861C243.235 85.6559 245.97 84.4907 249.361 84.4907C251.752 84.4907 253.838 85.3086 255.62 86.9444C255.885 87.2531 256.299 87.7006 256.862 88.287C256.909 88.3333 256.956 88.3565 257.003 88.3565C257.096 88.3565 257.229 87.8704 257.401 86.8981C257.573 85.9259 257.792 85.4398 258.058 85.4398C258.479 85.4398 259.269 85.5556 260.425 85.787C261.707 86.0648 262.347 86.3117 262.347 86.5278ZM256.37 96.2037C256.37 94.3056 255.799 92.6775 254.659 91.3194C253.455 89.8534 251.916 89.1204 250.041 89.1204C248.165 89.1204 246.603 89.8457 245.353 91.2963C244.149 92.6852 243.548 94.321 243.548 96.2037C243.548 98.071 244.149 99.6914 245.353 101.065C246.603 102.5 248.165 103.218 250.041 103.218C251.869 103.218 253.401 102.485 254.635 101.019C255.792 99.6451 256.37 98.0401 256.37 96.2037Z" fill="#232323"/>
<path d="M273.082 75.3704L273.059 75.6713C272.715 81.412 272.543 86.3426 272.543 90.463C272.543 92.2994 272.574 95.054 272.637 98.7269C272.699 102.384 272.731 105.123 272.731 106.944C272.731 107.299 272.606 107.477 272.356 107.477H267.878C267.597 107.477 267.456 107.299 267.456 106.944C267.456 105.123 267.472 102.384 267.503 98.7269C267.535 95.054 267.55 92.2994 267.55 90.463C267.55 88.7963 267.464 86.2963 267.292 82.963C267.136 79.6142 267.058 77.1142 267.058 75.463C267.058 75.1543 267.222 75 267.55 75C267.831 75 268.253 75.0231 268.816 75.0694C269.379 75.1157 269.801 75.1389 270.082 75.1389C270.379 75.1389 270.816 75.1157 271.395 75.0694C271.973 75.0231 272.402 75 272.684 75C272.965 75 273.098 75.1235 273.082 75.3704Z" fill="#232323"/>
<path d="M284.638 75.3704L284.614 75.6713C284.271 81.412 284.099 86.3426 284.099 90.463C284.099 92.2994 284.13 95.054 284.192 98.7269C284.255 102.384 284.286 105.123 284.286 106.944C284.286 107.299 284.161 107.477 283.911 107.477H279.434C279.153 107.477 279.012 107.299 279.012 106.944C279.012 105.123 279.028 102.384 279.059 98.7269C279.09 95.054 279.106 92.2994 279.106 90.463C279.106 88.7963 279.02 86.2963 278.848 82.963C278.692 79.6142 278.613 77.1142 278.613 75.463C278.613 75.1543 278.778 75 279.106 75C279.387 75 279.809 75.0231 280.371 75.0694C280.934 75.1157 281.356 75.1389 281.637 75.1389C281.934 75.1389 282.372 75.1157 282.95 75.0694C283.528 75.0231 283.958 75 284.239 75C284.521 75 284.653 75.1235 284.638 75.3704Z" fill="#232323"/>
<path d="M310 91.3657C310 93.9738 309.922 95.5478 309.766 96.088C309.562 96.7824 307.625 99.8148 303.952 105.185C300.295 110.54 298.123 113.534 297.436 114.167C296.811 114.722 294.795 115 291.388 115C290.982 115 290.716 114.954 290.591 114.861C290.481 114.784 290.216 114.228 289.794 113.194C289.388 112.16 289.184 111.543 289.184 111.343C289.184 111.003 289.599 110.833 290.427 110.833C292.177 110.833 293.466 110.586 294.295 110.093C294.576 109.923 294.998 109.39 295.56 108.495C296.139 107.6 296.428 106.998 296.428 106.69C296.428 106.273 295.295 104.645 293.029 101.806C290.638 98.7963 289.302 96.8904 289.02 96.088C288.802 95.4552 288.692 93.9429 288.692 91.5509C288.692 90.9645 288.7 90.0849 288.716 88.912C288.731 87.7238 288.739 86.8287 288.739 86.2269C288.739 85.8873 288.927 85.7176 289.302 85.7176C289.802 85.7176 290.536 85.7485 291.505 85.8102C292.49 85.8719 293.232 85.9028 293.732 85.9028C293.982 85.9028 294.107 86.0648 294.107 86.3889C294.107 86.821 294.084 87.4691 294.037 88.3333C293.99 89.1975 293.966 89.8457 293.966 90.2778C293.966 92.1605 294.029 93.5648 294.154 94.4907C294.248 95.0772 295.099 96.5355 296.709 98.8657C298.319 101.196 299.311 102.361 299.686 102.361C299.952 102.361 300.795 101.219 302.218 98.9352C303.64 96.6358 304.398 95.216 304.491 94.6759C304.616 93.9043 304.679 92.5 304.679 90.463C304.679 90.0154 304.632 89.3596 304.538 88.4954C304.444 87.6157 304.398 86.9599 304.398 86.5278C304.398 86.142 304.523 85.9491 304.773 85.9491C305.273 85.9491 306.023 85.9182 307.023 85.8565C308.039 85.7793 308.797 85.7407 309.297 85.7407C309.766 85.7407 310 87.6157 310 91.3657Z" fill="#232323"/>
<path d="M151.429 105.231V82.2308" stroke="#232323" stroke-width="3.5625" stroke-linecap="round" stroke-linejoin="round"/>
<path d="M108.571 82.2308V105.231" stroke="#232323" stroke-width="3.5625" stroke-linecap="round" stroke-linejoin="round"/>
<path d="M144.115 61H115.885C113.453 61 111.257 62.3269 110.313 64.3682L105.48 74.8221C103.853 78.3396 106.555 82.3248 110.747 82.4519H110.97C114.474 82.4519 117.315 79.6676 117.315 76.6765C117.315 79.6621 120.156 82.4519 123.661 82.4519C127.165 82.4519 130 79.8666 130 76.6765C130 79.6621 132.841 82.4519 136.345 82.4519C139.849 82.4519 142.691 79.8666 142.691 76.6765C142.691 79.8666 145.531 82.4519 149.036 82.4519H149.253C153.445 82.3225 156.147 78.3374 154.52 74.8221L149.688 64.3682C148.743 62.3269 146.547 61 144.115 61Z" stroke="#232323" stroke-width="3.5625" stroke-linecap="round" stroke-linejoin="round"/>
<path d="M116.905 88.4696H123.17C123.669 88.4696 124.147 88.6714 124.499 89.0307C124.852 89.3899 125.05 89.8771 125.05 90.3852V97.4089H115.025V90.3852C115.025 89.8771 115.223 89.3899 115.575 89.0307C115.928 88.6714 116.406 88.4696 116.905 88.4696Z" fill="#232323" stroke="#232323" stroke-width="3.5625" stroke-linecap="round" stroke-linejoin="round"/>
<path d="M134.073 106.348V90.9076C134.073 90.261 134.322 89.6409 134.765 89.1837C135.208 88.7265 135.809 88.4696 136.436 88.4696H142.737C143.364 88.4696 143.965 88.7265 144.408 89.1837C144.851 89.6409 145.1 90.261 145.1 90.9076V106.348" fill="#232323"/>
<path d="M134.073 106.348V90.9076C134.073 90.261 134.322 89.6409 134.765 89.1837C135.208 88.7265 135.809 88.4696 136.436 88.4696H142.737C143.364 88.4696 143.965 88.7265 144.408 89.1837C144.851 89.6409 145.1 90.261 145.1 90.9076V106.348" stroke="#232323" stroke-width="3.5625" stroke-linecap="round" stroke-linejoin="round"/>
<path d="M105 107H155" stroke="#232323" stroke-width="3.5625" stroke-linecap="round" stroke-linejoin="round"/>
<path d="M130 29C132.917 29 135.715 30.174 137.778 32.2637C139.841 34.3534 141 37.1877 141 40.1429C141 45.4674 137.452 50.3685 130.491 54.8553C130.344 54.9498 130.174 55 130 55C129.826 55 129.656 54.9498 129.509 54.8553C122.547 50.3685 119 45.4674 119 40.1429C119 37.1877 120.159 34.3534 122.222 32.2637C124.285 30.174 127.083 29 130 29V29ZM130 36.4286C129.028 36.4286 128.095 36.82 127.407 37.5165C126.72 38.2131 126.333 39.1578 126.333 40.1429C126.333 41.128 126.72 42.0728 127.407 42.7694C128.095 43.4659 129.028 43.8573 130 43.8573C130.972 43.8573 131.905 43.4659 132.593 42.7694C133.28 42.0728 133.667 41.128 133.667 40.1429C133.667 39.1578 133.28 38.2131 132.593 37.5165C131.905 36.82 130.972 36.4286 130 36.4286V36.4286Z" fill="#8DC8AC"/>
</svg>
