<svg width="206" height="207" viewBox="0 0 206 207" fill="none" xmlns="http://www.w3.org/2000/svg">
<circle cx="102.909" cy="103.217" r="102.877" fill="#232323"/>
<g clip-path="url(#clip0_39_10)">
<path fill-rule="evenodd" clip-rule="evenodd" d="M52 103.06C52 128.304 70.4939 149.296 94.6816 153.553V116.88H81.8771V102.776H94.6816V91.4913C94.6816 78.7972 102.932 71.7478 114.601 71.7478C118.297 71.7478 122.284 72.3105 125.98 72.8733V85.8509H119.437C113.176 85.8509 111.754 88.9525 111.754 92.9046V102.776H125.412L123.137 116.88H111.754V153.553C135.942 149.296 154.436 128.308 154.436 103.06C154.436 74.9763 131.388 52 103.218 52C75.0481 52 52 74.9763 52 103.06Z" fill="white"/>
</g>
<defs>
<clipPath id="clip0_39_10">
<rect width="102.436" height="101.553" fill="white" transform="translate(52 52)"/>
</clipPath>
</defs>
</svg>
