<svg width="22" height="26" viewBox="0 0 22 26" fill="none" xmlns="http://www.w3.org/2000/svg">
<path d="M11 0C13.9174 0 16.7153 1.17399 18.7782 3.26369C20.8411 5.3534 22 8.18765 22 11.1429C22 16.4674 18.4525 21.3685 11.4913 25.8553C11.3444 25.9498 11.174 26 11 26C10.826 26 10.6556 25.9498 10.5087 25.8553C3.5475 21.3685 0 16.4674 0 11.1429C0 8.18765 1.15893 5.3534 3.22183 3.26369C5.28473 1.17399 8.08262 0 11 0V0ZM11 7.42863C10.0275 7.42863 9.09491 7.81996 8.40728 8.51653C7.71964 9.2131 7.33333 10.1578 7.33333 11.1429C7.33333 12.128 7.71964 13.0728 8.40728 13.7694C9.09491 14.4659 10.0275 14.8573 11 14.8573C11.9725 14.8573 12.9051 14.4659 13.5927 13.7694C14.2804 13.0728 14.6667 12.128 14.6667 11.1429C14.6667 10.1578 14.2804 9.2131 13.5927 8.51653C12.9051 7.81996 11.9725 7.42863 11 7.42863V7.42863Z" fill="#232323"/>
</svg>
