<svg width="60" height="84" viewBox="0 0 60 84" fill="none" xmlns="http://www.w3.org/2000/svg">
<path d="M51.4287 76.2308V53.2308" stroke="#232323" stroke-width="3.5625" stroke-linecap="round" stroke-linejoin="round"/>
<path d="M8.57129 53.2308V76.2308" stroke="#232323" stroke-width="3.5625" stroke-linecap="round" stroke-linejoin="round"/>
<path d="M44.1151 32H15.8852C13.4533 32 11.2568 33.3269 10.3126 35.3682L5.48005 45.8221C3.85282 49.3396 6.55483 53.3248 10.7468 53.4519H10.97C14.4745 53.4519 17.3149 50.6676 17.3149 47.6765C17.3149 50.6621 20.1564 53.4519 23.6609 53.4519C27.1653 53.4519 30.0001 50.8666 30.0001 47.6765C30.0001 50.6621 32.8405 53.4519 36.345 53.4519C39.8495 53.4519 42.691 50.8666 42.691 47.6765C42.691 50.8666 45.5314 53.4519 49.0359 53.4519H49.2535C53.4455 53.3225 56.1475 49.3374 54.5202 45.8221L49.6876 35.3682C48.7434 33.3269 46.547 32 44.1151 32Z" stroke="#232323" stroke-width="3.5625" stroke-linecap="round" stroke-linejoin="round"/>
<path d="M16.9046 59.4696H23.1703C23.6688 59.4696 24.1469 59.6715 24.4994 60.0307C24.8519 60.3899 25.05 60.8772 25.05 61.3852V68.4089H15.0249V61.3852C15.0249 60.8772 15.2229 60.3899 15.5755 60.0307C15.928 59.6715 16.4061 59.4696 16.9046 59.4696Z" fill="#232323" stroke="#232323" stroke-width="3.5625" stroke-linecap="round" stroke-linejoin="round"/>
<path d="M34.0728 77.3482V61.9076C34.0728 61.261 34.3217 60.6409 34.7649 60.1837C35.208 59.7265 35.8091 59.4696 36.4358 59.4696H42.7373C43.364 59.4696 43.965 59.7265 44.4082 60.1837C44.8514 60.6409 45.1003 61.261 45.1003 61.9076V77.3482" fill="#232323"/>
<path d="M34.0728 77.3482V61.9076C34.0728 61.261 34.3217 60.6409 34.7649 60.1837C35.208 59.7265 35.8091 59.4696 36.4358 59.4696H42.7373C43.364 59.4696 43.965 59.7265 44.4082 60.1837C44.8514 60.6409 45.1003 61.261 45.1003 61.9076V77.3482" stroke="#232323" stroke-width="3.5625" stroke-linecap="round" stroke-linejoin="round"/>
<path d="M5 78H55" stroke="#232323" stroke-width="3.5625" stroke-linecap="round" stroke-linejoin="round"/>
<path d="M30 0C32.9174 0 35.7153 1.17399 37.7782 3.26369C39.8411 5.3534 41 8.18765 41 11.1429C41 16.4674 37.4525 21.3685 30.4913 25.8553C30.3444 25.9498 30.174 26 30 26C29.826 26 29.6556 25.9498 29.5087 25.8553C22.5475 21.3685 19 16.4674 19 11.1429C19 8.18765 20.1589 5.3534 22.2218 3.26369C24.2847 1.17399 27.0826 0 30 0V0ZM30 7.42863C29.0275 7.42863 28.0949 7.81996 27.4073 8.51653C26.7196 9.2131 26.3333 10.1578 26.3333 11.1429C26.3333 12.128 26.7196 13.0728 27.4073 13.7694C28.0949 14.4659 29.0275 14.8573 30 14.8573C30.9725 14.8573 31.9051 14.4659 32.5927 13.7694C33.2804 13.0728 33.6667 12.128 33.6667 11.1429C33.6667 10.1578 33.2804 9.2131 32.5927 8.51653C31.9051 7.81996 30.9725 7.42863 30 7.42863V7.42863Z" fill="#8DC8AC"/>
</svg>
