<svg width="139" height="140" viewBox="0 0 139 140" fill="none" xmlns="http://www.w3.org/2000/svg">
<circle cx="69.6792" cy="69.8735" r="69.3208" fill="#232323"/>
<g clip-path="url(#clip0_39_11)">
<path d="M75.1987 28.8109H85.2525C85.9836 32.4414 87.9944 37.0215 91.5233 41.5659C94.9761 46.019 99.5562 49.1215 105.665 49.1215V59.2767C96.7635 59.2767 90.0762 55.1435 85.354 49.9897V84.6649C85.354 89.6862 83.865 94.5948 81.0753 98.7698C78.2856 102.945 74.3206 106.199 69.6815 108.121C65.0424 110.042 59.9377 110.545 55.0128 109.565C50.088 108.586 45.5643 106.168 42.0137 102.617C38.4631 99.0665 36.0451 94.5427 35.0655 89.6179C34.0859 84.6931 34.5886 79.5884 36.5102 74.9493C38.4318 70.3102 41.6858 66.3451 45.8609 63.5554C50.036 60.7657 54.9445 59.2767 59.9658 59.2767V69.432C56.953 69.432 54.0079 70.3254 51.5029 71.9992C48.9978 73.673 47.0454 76.0521 45.8925 78.8355C44.7395 81.619 44.4379 84.6818 45.0256 87.6367C45.6134 90.5916 47.0642 93.3059 49.1945 95.4362C51.3249 97.5666 54.0391 99.0174 56.994 99.6051C59.9489 100.193 63.0118 99.8912 65.7952 98.7383C68.5787 97.5854 70.9577 95.6329 72.6315 93.1279C74.3054 90.6228 75.1987 87.6777 75.1987 84.6649V28.8109Z" fill="white"/>
</g>
<defs>
<clipPath id="clip0_39_11">
<rect width="81.2422" height="81.2422" fill="white" transform="translate(29.5 28.8109)"/>
</clipPath>
</defs>
</svg>
