<svg width="147" height="61" viewBox="0 0 147 61" fill="none" xmlns="http://www.w3.org/2000/svg">
<path d="M63.0735 51.4176C63.0735 52.9299 62.9915 54.0048 62.8274 54.6421C62.7508 54.9554 62.5594 55.112 62.2531 55.112C61.4436 55.112 60.2293 55.0634 58.6103 54.9662C56.9913 54.8798 55.7771 54.8366 54.9676 54.8366C54.2019 54.8366 53.0587 54.8528 51.5382 54.8852C50.0176 54.9176 48.8745 54.9338 48.1088 54.9338C47.8353 54.9338 47.6985 54.7988 47.6985 54.5287C47.6985 53.3512 47.7368 51.5742 47.8134 49.1977C47.9009 46.8211 47.9447 45.0387 47.9447 43.8505C47.9447 42.5974 47.8845 40.7231 47.7642 38.2278C47.6548 35.7216 47.6001 33.842 47.6001 32.5889C47.6001 32.3512 47.7368 32.2324 48.0103 32.2324C48.2072 32.2324 48.508 32.2486 48.9128 32.281C49.3175 32.3134 49.6238 32.3296 49.8317 32.3296C50.0286 32.3296 50.3349 32.3134 50.7506 32.281C51.1663 32.2486 51.4726 32.2324 51.6695 32.2324C51.932 32.2324 52.0633 32.335 52.0633 32.5403C52.0633 33.6853 52.0195 35.4083 51.932 37.7093C51.8445 40.0102 51.8007 41.7386 51.8007 42.8944C51.8007 43.4562 51.8007 44.3096 51.8007 45.4546C51.7898 46.5997 51.7843 47.4531 51.7843 48.0148C51.7843 50.413 51.8828 51.612 52.0797 51.612C56.1162 51.612 59.1628 51.5148 61.2193 51.3204C61.3178 51.3096 61.5694 51.2718 61.9741 51.2069C62.3023 51.1421 62.5539 51.1097 62.7289 51.1097C62.9586 51.1097 63.0735 51.2123 63.0735 51.4176Z" fill="#232323"/>
<path d="M80.4989 47.0426C80.4989 49.3003 79.7496 51.2285 78.2509 52.8273C76.7194 54.4801 74.8215 55.3065 72.5571 55.3065C70.2817 55.3065 68.3783 54.4855 66.8469 52.8435C65.3482 51.2556 64.5989 49.3327 64.5989 47.075C64.5989 44.8173 65.3482 42.8944 66.8469 41.3065C68.3893 39.6861 70.2927 38.8759 72.5571 38.8759C74.8105 38.8759 76.703 39.6861 78.2345 41.3065C79.7441 42.8836 80.4989 44.7957 80.4989 47.0426ZM77.0367 47.075C77.0367 45.7571 76.6264 44.6336 75.806 43.7046C74.9528 42.7216 73.8698 42.2301 72.5571 42.2301C71.2444 42.2301 70.1559 42.7162 69.2917 43.6884C68.4713 44.6282 68.0611 45.7571 68.0611 47.075C68.0611 48.3713 68.4768 49.4948 69.3082 50.4454C70.1833 51.45 71.2663 51.9523 72.5571 51.9523C73.8588 51.9523 74.9418 51.45 75.806 50.4454C76.6264 49.4948 77.0367 48.3713 77.0367 47.075Z" fill="#232323"/>
<path d="M94.9543 40.237C94.9543 40.4747 94.8285 41.004 94.5769 41.825C94.3253 42.646 94.1503 43.0565 94.0518 43.0565C93.5596 42.8404 93.0618 42.6244 92.5586 42.4083C92.0664 42.1923 91.5249 42.0843 90.9342 42.0843C89.5887 42.0843 88.4674 42.5758 87.5704 43.5588C86.6734 44.5418 86.2249 45.7031 86.2249 47.0426C86.2249 48.3605 86.6734 49.5002 87.5704 50.4616C88.4893 51.4554 89.6105 51.9523 90.9342 51.9523C91.6671 51.9523 92.3891 51.7741 93.1001 51.4176C93.8112 51.0611 94.1229 50.8829 94.0354 50.8829C94.1776 50.8829 94.3362 51.3366 94.5113 52.244C94.6754 53.065 94.7574 53.6321 94.7574 53.9454C94.7574 54.2802 94.1175 54.6097 92.8376 54.9338C91.7655 55.2039 90.9725 55.3389 90.4583 55.3389C88.2049 55.3389 86.3014 54.5071 84.7481 52.8435C83.2276 51.2231 82.4673 49.2895 82.4673 47.0426C82.4673 44.7525 83.2111 42.808 84.6989 41.2093C86.2303 39.5673 88.1392 38.7463 90.4255 38.7463C91.957 38.7463 93.3572 39.1298 94.6261 39.8968C94.8449 40.0264 94.9543 40.1398 94.9543 40.237Z" fill="#232323"/>
<path d="M113.643 40.2694C113.643 40.3127 113.627 40.4099 113.594 40.5611C113.167 43.0349 112.954 45.1684 112.954 46.9616C112.954 47.0696 113.091 49.4948 113.364 54.237L113.381 54.4639C113.392 54.7772 113.244 54.9338 112.938 54.9338C112.642 54.9338 112.188 54.9662 111.576 55.031C110.974 55.1066 110.526 55.1444 110.23 55.1444C110.022 55.1444 109.864 54.7664 109.754 54.0102C109.645 53.254 109.541 52.8759 109.443 52.8759C109.377 52.8759 109.082 53.0866 108.556 53.5079C107.911 54.0264 107.309 54.4207 106.752 54.6907C105.887 55.1228 105.023 55.3389 104.159 55.3389C102.037 55.3389 100.248 54.5017 98.7933 52.8273C97.415 51.2285 96.7258 49.3651 96.7258 47.237C96.7258 44.8389 97.4204 42.8566 98.8097 41.2903C100.265 39.6591 102.179 38.8435 104.553 38.8435C106.226 38.8435 107.687 39.416 108.934 40.5611C109.12 40.7772 109.41 41.0904 109.804 41.5009C109.836 41.5333 109.869 41.5495 109.902 41.5495C109.968 41.5495 110.061 41.2093 110.181 40.5287C110.301 39.8481 110.454 39.5079 110.64 39.5079C110.936 39.5079 111.488 39.5889 112.298 39.7509C113.195 39.9454 113.643 40.1182 113.643 40.2694ZM109.459 47.0426C109.459 45.7139 109.06 44.5742 108.261 43.6236C107.419 42.5974 106.341 42.0843 105.029 42.0843C103.716 42.0843 102.622 42.592 101.747 43.6074C100.905 44.5796 100.483 45.7247 100.483 47.0426C100.483 48.3497 100.905 49.4839 101.747 50.4454C102.622 51.45 103.716 51.9523 105.029 51.9523C106.308 51.9523 107.381 51.4392 108.245 50.413C109.054 49.4515 109.459 48.3281 109.459 47.0426Z" fill="#232323"/>
<path d="M121.158 32.4593L121.141 32.6699C120.901 36.6884 120.78 40.1398 120.78 43.0241C120.78 44.3096 120.802 46.2378 120.846 48.8088C120.89 51.369 120.912 53.2864 120.912 54.5611C120.912 54.8096 120.824 54.9338 120.649 54.9338H117.515C117.318 54.9338 117.22 54.8096 117.22 54.5611C117.22 53.2864 117.231 51.369 117.252 48.8088C117.274 46.2378 117.285 44.3096 117.285 43.0241C117.285 41.8574 117.225 40.1074 117.105 37.7741C116.995 35.4299 116.941 33.6799 116.941 32.5241C116.941 32.308 117.056 32.2 117.285 32.2C117.482 32.2 117.777 32.2162 118.171 32.2486C118.565 32.281 118.86 32.2972 119.057 32.2972C119.265 32.2972 119.572 32.281 119.976 32.2486C120.381 32.2162 120.682 32.2 120.879 32.2C121.076 32.2 121.169 32.2864 121.158 32.4593Z" fill="#232323"/>
<path d="M129.247 32.4593L129.23 32.6699C128.989 36.6884 128.869 40.1398 128.869 43.0241C128.869 44.3096 128.891 46.2378 128.935 48.8088C128.979 51.369 129 53.2864 129 54.5611C129 54.8096 128.913 54.9338 128.738 54.9338H125.604C125.407 54.9338 125.308 54.8096 125.308 54.5611C125.308 53.2864 125.319 51.369 125.341 48.8088C125.363 46.2378 125.374 44.3096 125.374 43.0241C125.374 41.8574 125.314 40.1074 125.194 37.7741C125.084 35.4299 125.029 33.6799 125.029 32.5241C125.029 32.308 125.144 32.2 125.374 32.2C125.571 32.2 125.866 32.2162 126.26 32.2486C126.654 32.281 126.949 32.2972 127.146 32.2972C127.354 32.2972 127.66 32.281 128.065 32.2486C128.47 32.2162 128.771 32.2 128.968 32.2C129.164 32.2 129.257 32.2864 129.247 32.4593Z" fill="#232323"/>
<path d="M147 43.656C147 45.4816 146.945 46.5835 146.836 46.9616C146.694 47.4477 145.337 49.5704 142.767 53.3296C140.207 57.0781 138.686 59.1738 138.205 59.6167C137.767 60.0056 136.356 60.2 133.972 60.2C133.687 60.2 133.501 60.1676 133.414 60.1028C133.337 60.0488 133.151 59.6599 132.856 58.9361C132.571 58.2123 132.429 57.7802 132.429 57.6398C132.429 57.4022 132.719 57.2833 133.299 57.2833C134.524 57.2833 135.426 57.1105 136.006 56.7648C136.203 56.646 136.499 56.2733 136.892 55.6468C137.297 55.0202 137.499 54.5989 137.499 54.3829C137.499 54.0912 136.706 52.9515 135.12 50.9639C133.447 48.8574 132.511 47.5233 132.314 46.9616C132.161 46.5187 132.085 45.46 132.085 43.7856C132.085 43.3752 132.09 42.7594 132.101 41.9384C132.112 41.1066 132.117 40.4801 132.117 40.0588C132.117 39.8211 132.249 39.7023 132.511 39.7023C132.861 39.7023 133.375 39.7239 134.054 39.7671C134.743 39.8103 135.262 39.8319 135.612 39.8319C135.787 39.8319 135.875 39.9454 135.875 40.1722C135.875 40.4747 135.859 40.9284 135.826 41.5333C135.793 42.1383 135.777 42.592 135.777 42.8944C135.777 44.2123 135.82 45.1954 135.908 45.8435C135.973 46.254 136.57 47.2748 137.696 48.906C138.823 50.5372 139.518 51.3528 139.78 51.3528C139.966 51.3528 140.557 50.5534 141.552 48.9546C142.548 47.3451 143.078 46.3512 143.144 45.9731C143.232 45.433 143.275 44.45 143.275 43.0241C143.275 42.7108 143.243 42.2517 143.177 41.6468C143.111 41.031 143.078 40.5719 143.078 40.2694C143.078 39.9994 143.166 39.8643 143.341 39.8643C143.691 39.8643 144.216 39.8427 144.916 39.7995C145.627 39.7455 146.158 39.7185 146.508 39.7185C146.836 39.7185 147 41.031 147 43.656Z" fill="#232323"/>
<path d="M36 53.3615V37.2615" stroke="#232323" stroke-width="2.49375" stroke-linecap="round" stroke-linejoin="round"/>
<path d="M6 37.2615V53.3615" stroke="#232323" stroke-width="2.49375" stroke-linecap="round" stroke-linejoin="round"/>
<path d="M30.8807 22.4H11.1198C9.41743 22.4 7.87993 23.3288 7.21899 24.7577L3.83618 32.0755C2.69712 34.5377 4.58852 37.3273 7.5229 37.4163H7.67915C10.1323 37.4163 12.1206 35.4673 12.1206 33.3735C12.1206 35.4634 14.1096 37.4163 16.5627 37.4163C19.0159 37.4163 21.0002 35.6066 21.0002 33.3735C21.0002 35.4634 22.9885 37.4163 25.4416 37.4163C27.8948 37.4163 29.8838 35.6066 29.8838 33.3735C29.8838 35.6066 31.8721 37.4163 34.3252 37.4163H34.4776C37.412 37.3258 39.3034 34.5361 38.1643 32.0755L34.7815 24.7577C34.1206 23.3288 32.5831 22.4 30.8807 22.4Z" stroke="#232323" stroke-width="2.49375" stroke-linecap="round" stroke-linejoin="round"/>
<path d="M11.8334 41.6287H16.2193C16.5683 41.6287 16.903 41.77 17.1497 42.0215C17.3965 42.2729 17.5351 42.614 17.5351 42.9696V47.8862H10.5176V42.9696C10.5176 42.614 10.6562 42.2729 10.903 42.0215C11.1497 41.77 11.4844 41.6287 11.8334 41.6287Z" fill="#232323" stroke="#232323" stroke-width="2.49375" stroke-linecap="round" stroke-linejoin="round"/>
<path d="M23.8511 54.1437V43.3353C23.8511 42.8827 24.0253 42.4486 24.3356 42.1286C24.6458 41.8085 25.0665 41.6287 25.5052 41.6287H29.9162C30.3549 41.6287 30.7757 41.8085 31.0859 42.1286C31.3961 42.4486 31.5704 42.8827 31.5704 43.3353V54.1437" fill="#232323"/>
<path d="M23.8511 54.1437V43.3353C23.8511 42.8827 24.0253 42.4486 24.3356 42.1286C24.6458 41.8085 25.0665 41.6287 25.5052 41.6287H29.9162C30.3549 41.6287 30.7757 41.8085 31.0859 42.1286C31.3961 42.4486 31.5704 42.8827 31.5704 43.3353V54.1437" stroke="#232323" stroke-width="2.49375" stroke-linecap="round" stroke-linejoin="round"/>
<path d="M3.5 54.6H38.5" stroke="#232323" stroke-width="2.49375" stroke-linecap="round" stroke-linejoin="round"/>
<path d="M20.9998 0C23.042 0 25.0005 0.82179 26.4445 2.28458C27.8886 3.74738 28.6998 5.73136 28.6998 7.80006C28.6998 11.5272 26.2166 14.9579 21.3437 18.0987C21.2409 18.1649 21.1216 18.2 20.9998 18.2C20.878 18.2 20.7587 18.1649 20.6559 18.0987C15.7831 14.9579 13.2998 11.5272 13.2998 7.80006C13.2998 5.73136 14.1111 3.74738 15.5551 2.28458C16.9991 0.82179 18.9576 0 20.9998 0V0ZM20.9998 5.20004C20.3191 5.20004 19.6662 5.47397 19.1849 5.96157C18.7036 6.44917 18.4331 7.11049 18.4331 7.80006C18.4331 8.48963 18.7036 9.15095 19.1849 9.63855C19.6662 10.1262 20.3191 10.4001 20.9998 10.4001C21.6805 10.4001 22.3334 10.1262 22.8147 9.63855C23.2961 9.15095 23.5665 8.48963 23.5665 7.80006C23.5665 7.11049 23.2961 6.44917 22.8147 5.96157C22.3334 5.47397 21.6805 5.20004 20.9998 5.20004V5.20004Z" fill="#8DC8AC"/>
</svg>
