<svg width="210" height="86" viewBox="0 0 210 86" fill="none" xmlns="http://www.w3.org/2000/svg">
<path d="M90.1049 73.4537C90.1049 75.6142 89.9877 77.1497 89.7533 78.0602C89.6439 78.5077 89.3704 78.7315 88.9328 78.7315C87.7764 78.7315 86.0418 78.662 83.7289 78.5231C81.4161 78.3997 79.6814 78.338 78.525 78.338C77.4311 78.338 75.798 78.3611 73.6258 78.4074C71.4536 78.4537 69.8206 78.4769 68.7267 78.4769C68.336 78.4769 68.1406 78.284 68.1406 77.8981C68.1406 76.216 68.1953 73.6775 68.3047 70.2824C68.4298 66.8873 68.4923 64.341 68.4923 62.6435C68.4923 60.8534 68.4063 58.1759 68.2344 54.6111C68.0781 51.0309 68 48.3457 68 46.5556C68 46.216 68.1953 46.0463 68.586 46.0463C68.8673 46.0463 69.2971 46.0694 69.8753 46.1157C70.4535 46.162 70.8911 46.1852 71.188 46.1852C71.4693 46.1852 71.9068 46.162 72.5007 46.1157C73.0945 46.0694 73.5321 46.0463 73.8134 46.0463C74.1884 46.0463 74.376 46.1929 74.376 46.4861C74.376 48.1219 74.3134 50.5833 74.1884 53.8704C74.0634 57.1574 74.0009 59.6265 74.0009 61.2778C74.0009 62.0802 74.0009 63.2994 74.0009 64.9352C73.9853 66.571 73.9775 67.7901 73.9775 68.5926C73.9775 72.0185 74.1181 73.7315 74.3994 73.7315C80.1659 73.7315 84.5181 73.5926 87.456 73.3148C87.5967 73.2994 87.9561 73.2454 88.5343 73.1528C89.0031 73.0602 89.3626 73.0139 89.6126 73.0139C89.9408 73.0139 90.1049 73.1605 90.1049 73.4537Z" fill="white"/>
<path d="M114.998 67.2037C114.998 70.429 113.928 73.1836 111.787 75.4676C109.599 77.8287 106.888 79.0093 103.653 79.0093C100.402 79.0093 97.6832 77.8364 95.4954 75.4907C93.3544 73.2222 92.2839 70.4753 92.2839 67.25C92.2839 64.0247 93.3544 61.2778 95.4954 59.0093C97.6988 56.6944 100.418 55.537 103.653 55.537C106.872 55.537 109.576 56.6944 111.763 59.0093C113.92 61.2623 114.998 63.9938 114.998 67.2037ZM110.052 67.25C110.052 65.3673 109.466 63.7623 108.294 62.4352C107.075 61.0309 105.528 60.3287 103.653 60.3287C101.778 60.3287 100.223 61.0231 98.9881 62.412C97.816 63.7546 97.23 65.3673 97.23 67.25C97.23 69.1019 97.8238 70.7068 99.0115 72.0648C100.262 73.5 101.809 74.2176 103.653 74.2176C105.512 74.2176 107.06 73.5 108.294 72.0648C109.466 70.7068 110.052 69.1019 110.052 67.25Z" fill="white"/>
<path d="M135.649 57.4815C135.649 57.821 135.469 58.5772 135.11 59.75C134.75 60.9228 134.5 61.5093 134.36 61.5093C133.656 61.2006 132.945 60.892 132.226 60.5833C131.523 60.2747 130.75 60.1204 129.906 60.1204C127.984 60.1204 126.382 60.8225 125.1 62.2269C123.819 63.6312 123.178 65.2901 123.178 67.2037C123.178 69.0864 123.819 70.7145 125.1 72.088C126.413 73.5077 128.015 74.2176 129.906 74.2176C130.953 74.2176 131.984 73.963 133 73.4537C134.016 72.9444 134.461 72.6898 134.336 72.6898C134.539 72.6898 134.766 73.338 135.016 74.6343C135.25 75.8071 135.368 76.6173 135.368 77.0648C135.368 77.5432 134.453 78.0139 132.625 78.4769C131.093 78.8627 129.961 79.0556 129.226 79.0556C126.007 79.0556 123.288 77.8673 121.069 75.4907C118.896 73.1759 117.81 70.4136 117.81 67.2037C117.81 63.9321 118.873 61.1543 120.998 58.8704C123.186 56.5247 125.913 55.3519 129.179 55.3519C131.367 55.3519 133.367 55.8997 135.18 56.9954C135.493 57.1806 135.649 57.3426 135.649 57.4815Z" fill="white"/>
<path d="M162.347 57.5278C162.347 57.5895 162.324 57.7284 162.277 57.9444C161.667 61.4784 161.363 64.5262 161.363 67.088C161.363 67.2423 161.558 70.7068 161.949 77.4815L161.972 77.8056C161.988 78.2531 161.777 78.4769 161.339 78.4769C160.917 78.4769 160.269 78.5231 159.394 78.6157C158.534 78.7238 157.893 78.7778 157.472 78.7778C157.175 78.7778 156.948 78.2377 156.792 77.1574C156.635 76.0772 156.487 75.537 156.346 75.537C156.253 75.537 155.831 75.838 155.081 76.4398C154.159 77.1806 153.299 77.7438 152.502 78.1296C151.267 78.7469 150.033 79.0556 148.798 79.0556C145.767 79.0556 143.212 77.8596 141.133 75.4676C139.164 73.1836 138.18 70.5216 138.18 67.4815C138.18 64.0556 139.172 61.2238 141.157 58.9861C143.235 56.6559 145.97 55.4907 149.361 55.4907C151.752 55.4907 153.838 56.3086 155.62 57.9444C155.885 58.2531 156.299 58.7006 156.862 59.287C156.909 59.3333 156.956 59.3565 157.003 59.3565C157.096 59.3565 157.229 58.8704 157.401 57.8981C157.573 56.9259 157.792 56.4398 158.058 56.4398C158.479 56.4398 159.269 56.5556 160.425 56.787C161.707 57.0648 162.347 57.3117 162.347 57.5278ZM156.37 67.2037C156.37 65.3056 155.799 63.6775 154.659 62.3194C153.455 60.8534 151.916 60.1204 150.041 60.1204C148.165 60.1204 146.603 60.8457 145.353 62.2963C144.149 63.6852 143.548 65.321 143.548 67.2037C143.548 69.071 144.149 70.6914 145.353 72.0648C146.603 73.5 148.165 74.2176 150.041 74.2176C151.869 74.2176 153.401 73.4846 154.635 72.0185C155.792 70.6451 156.37 69.0401 156.37 67.2037Z" fill="white"/>
<path d="M173.082 46.3704L173.059 46.6713C172.715 52.412 172.543 57.3426 172.543 61.463C172.543 63.2994 172.574 66.054 172.637 69.7269C172.699 73.3843 172.731 76.1235 172.731 77.9444C172.731 78.2994 172.606 78.4769 172.356 78.4769H167.878C167.597 78.4769 167.456 78.2994 167.456 77.9444C167.456 76.1235 167.472 73.3843 167.503 69.7269C167.535 66.054 167.55 63.2994 167.55 61.463C167.55 59.7963 167.464 57.2963 167.292 53.963C167.136 50.6142 167.058 48.1142 167.058 46.463C167.058 46.1543 167.222 46 167.55 46C167.831 46 168.253 46.0231 168.816 46.0694C169.379 46.1157 169.801 46.1389 170.082 46.1389C170.379 46.1389 170.816 46.1157 171.395 46.0694C171.973 46.0231 172.402 46 172.684 46C172.965 46 173.098 46.1235 173.082 46.3704Z" fill="white"/>
<path d="M184.638 46.3704L184.614 46.6713C184.271 52.412 184.099 57.3426 184.099 61.463C184.099 63.2994 184.13 66.054 184.192 69.7269C184.255 73.3843 184.286 76.1235 184.286 77.9444C184.286 78.2994 184.161 78.4769 183.911 78.4769H179.434C179.153 78.4769 179.012 78.2994 179.012 77.9444C179.012 76.1235 179.028 73.3843 179.059 69.7269C179.09 66.054 179.106 63.2994 179.106 61.463C179.106 59.7963 179.02 57.2963 178.848 53.963C178.692 50.6142 178.613 48.1142 178.613 46.463C178.613 46.1543 178.778 46 179.106 46C179.387 46 179.809 46.0231 180.371 46.0694C180.934 46.1157 181.356 46.1389 181.637 46.1389C181.934 46.1389 182.372 46.1157 182.95 46.0694C183.528 46.0231 183.958 46 184.239 46C184.521 46 184.653 46.1235 184.638 46.3704Z" fill="white"/>
<path d="M210 62.3657C210 64.9738 209.922 66.5478 209.766 67.088C209.562 67.7824 207.625 70.8148 203.952 76.1852C200.295 81.5401 198.123 84.534 197.436 85.1667C196.811 85.7222 194.795 86 191.388 86C190.982 86 190.716 85.9537 190.591 85.8611C190.481 85.784 190.216 85.2284 189.794 84.1944C189.388 83.1605 189.184 82.5432 189.184 82.3426C189.184 82.0031 189.599 81.8333 190.427 81.8333C192.177 81.8333 193.466 81.5864 194.295 81.0926C194.576 80.9228 194.998 80.3904 195.56 79.4954C196.139 78.6003 196.428 77.9985 196.428 77.6898C196.428 77.2731 195.295 75.6451 193.029 72.8056C190.638 69.7963 189.302 67.8904 189.02 67.088C188.802 66.4552 188.692 64.9429 188.692 62.5509C188.692 61.9645 188.7 61.0849 188.716 59.912C188.731 58.7238 188.739 57.8287 188.739 57.2269C188.739 56.8873 188.927 56.7176 189.302 56.7176C189.802 56.7176 190.536 56.7485 191.505 56.8102C192.49 56.8719 193.232 56.9028 193.732 56.9028C193.982 56.9028 194.107 57.0648 194.107 57.3889C194.107 57.821 194.084 58.4691 194.037 59.3333C193.99 60.1975 193.966 60.8457 193.966 61.2778C193.966 63.1605 194.029 64.5648 194.154 65.4907C194.248 66.0772 195.099 67.5355 196.709 69.8657C198.319 72.196 199.311 73.3611 199.686 73.3611C199.952 73.3611 200.795 72.2191 202.218 69.9352C203.64 67.6358 204.398 66.216 204.491 65.6759C204.616 64.9043 204.679 63.5 204.679 61.463C204.679 61.0154 204.632 60.3596 204.538 59.4954C204.444 58.6157 204.398 57.9599 204.398 57.5278C204.398 57.142 204.523 56.9491 204.773 56.9491C205.273 56.9491 206.023 56.9182 207.023 56.8565C208.039 56.7793 208.797 56.7407 209.297 56.7407C209.766 56.7407 210 58.6157 210 62.3657Z" fill="white"/>
<path d="M51.4287 76.2308V53.2308" stroke="white" stroke-width="3.5625" stroke-linecap="round" stroke-linejoin="round"/>
<path d="M8.57129 53.2308V76.2308" stroke="white" stroke-width="3.5625" stroke-linecap="round" stroke-linejoin="round"/>
<path d="M44.1151 32H15.8852C13.4533 32 11.2568 33.3269 10.3126 35.3682L5.48005 45.8221C3.85282 49.3396 6.55483 53.3248 10.7468 53.4519H10.97C14.4745 53.4519 17.3149 50.6676 17.3149 47.6765C17.3149 50.6621 20.1564 53.4519 23.6609 53.4519C27.1653 53.4519 30.0001 50.8666 30.0001 47.6765C30.0001 50.6621 32.8405 53.4519 36.345 53.4519C39.8495 53.4519 42.691 50.8666 42.691 47.6765C42.691 50.8666 45.5314 53.4519 49.0359 53.4519H49.2535C53.4455 53.3225 56.1475 49.3374 54.5202 45.8221L49.6876 35.3682C48.7434 33.3269 46.547 32 44.1151 32Z" stroke="white" stroke-width="3.5625" stroke-linecap="round" stroke-linejoin="round"/>
<path d="M16.9046 59.4696H23.1703C23.6688 59.4696 24.1469 59.6715 24.4994 60.0307C24.8519 60.3899 25.05 60.8772 25.05 61.3852V68.4089H15.0249V61.3852C15.0249 60.8772 15.2229 60.3899 15.5755 60.0307C15.928 59.6715 16.4061 59.4696 16.9046 59.4696Z" fill="white" stroke="white" stroke-width="3.5625" stroke-linecap="round" stroke-linejoin="round"/>
<path d="M34.0728 77.3482V61.9076C34.0728 61.261 34.3217 60.6409 34.7649 60.1837C35.208 59.7265 35.8091 59.4696 36.4358 59.4696H42.7373C43.364 59.4696 43.965 59.7265 44.4082 60.1837C44.8514 60.6409 45.1003 61.261 45.1003 61.9076V77.3482" fill="white"/>
<path d="M34.0728 77.3482V61.9076C34.0728 61.261 34.3217 60.6409 34.7649 60.1837C35.208 59.7265 35.8091 59.4696 36.4358 59.4696H42.7373C43.364 59.4696 43.965 59.7265 44.4082 60.1837C44.8514 60.6409 45.1003 61.261 45.1003 61.9076V77.3482" stroke="white" stroke-width="3.5625" stroke-linecap="round" stroke-linejoin="round"/>
<path d="M5 78H55" stroke="white" stroke-width="3.5625" stroke-linecap="round" stroke-linejoin="round"/>
<path d="M30 0C32.9174 0 35.7153 1.17399 37.7782 3.26369C39.8411 5.3534 41 8.18765 41 11.1429C41 16.4674 37.4525 21.3685 30.4913 25.8553C30.3444 25.9498 30.174 26 30 26C29.826 26 29.6556 25.9498 29.5087 25.8553C22.5475 21.3685 19 16.4674 19 11.1429C19 8.18765 20.1589 5.3534 22.2218 3.26369C24.2847 1.17399 27.0826 0 30 0V0ZM30 7.42863C29.0275 7.42863 28.0949 7.81996 27.4073 8.51653C26.7196 9.2131 26.3333 10.1578 26.3333 11.1429C26.3333 12.128 26.7196 13.0728 27.4073 13.7694C28.0949 14.4659 29.0275 14.8573 30 14.8573C30.9725 14.8573 31.9051 14.4659 32.5927 13.7694C33.2804 13.0728 33.6667 12.128 33.6667 11.1429C33.6667 10.1578 33.2804 9.2131 32.5927 8.51653C31.9051 7.81996 30.9725 7.42863 30 7.42863V7.42863Z" fill="#8DC8AC"/>
</svg>
