<svg width="217" height="51" viewBox="0 0 217 51" fill="none" xmlns="http://www.w3.org/2000/svg">
<path d="M0 25.5C0 11.4167 11.4167 0 25.5 0H191.5C205.583 0 217 11.4167 217 25.5V25.5C217 39.5833 205.583 51 191.5 51H25.5C11.4167 51 0 39.5833 0 25.5V25.5Z" fill="#262626"/>
<path d="M36.4589 21.3916L32.9784 32H30.1747L34.9296 19.2031H36.7138L36.4589 21.3916ZM39.3505 32L35.8612 21.3916L35.58 19.2031H37.3817L42.163 32H39.3505ZM39.1923 27.2363V29.3018H32.4335V27.2363H39.1923ZM49.1675 29.9258V18.5H51.7163V32H49.4224L49.1675 29.9258ZM43.1558 27.3594V27.1748C43.1558 26.4482 43.2378 25.7891 43.4019 25.1973C43.5659 24.5996 43.8062 24.0869 44.1226 23.6592C44.439 23.2314 44.8286 22.9004 45.2915 22.666C45.7544 22.4316 46.2818 22.3145 46.8736 22.3145C47.4302 22.3145 47.9165 22.4316 48.3325 22.666C48.7544 22.9004 49.1118 23.2344 49.4048 23.668C49.7036 24.0957 49.9439 24.6025 50.1255 25.1885C50.3072 25.7686 50.439 26.4043 50.521 27.0957V27.5C50.439 28.1621 50.3072 28.7773 50.1255 29.3457C49.9439 29.9141 49.7036 30.4121 49.4048 30.8398C49.1118 31.2617 48.7544 31.5898 48.3325 31.8242C47.9107 32.0586 47.4185 32.1758 46.856 32.1758C46.2642 32.1758 45.7368 32.0557 45.2739 31.8154C44.8169 31.5752 44.4302 31.2383 44.1138 30.8047C43.8032 30.3711 43.5659 29.8613 43.4019 29.2754C43.2378 28.6895 43.1558 28.0508 43.1558 27.3594ZM45.687 27.1748V27.3594C45.687 27.752 45.7163 28.1182 45.7749 28.458C45.8394 28.7979 45.9419 29.0996 46.0825 29.3633C46.229 29.6211 46.4165 29.8232 46.645 29.9697C46.8794 30.1104 47.1636 30.1807 47.4976 30.1807C47.9312 30.1807 48.2886 30.084 48.5698 29.8906C48.8511 29.6914 49.065 29.4189 49.2114 29.0732C49.3638 28.7275 49.4517 28.3291 49.4751 27.8779V26.7266C49.4575 26.3574 49.4048 26.0264 49.3169 25.7334C49.2349 25.4346 49.1118 25.1797 48.9478 24.9688C48.7896 24.7578 48.5904 24.5938 48.3501 24.4766C48.1157 24.3594 47.8374 24.3008 47.5152 24.3008C47.187 24.3008 46.9058 24.377 46.6714 24.5293C46.437 24.6758 46.2466 24.8779 46.1001 25.1357C45.9595 25.3936 45.854 25.6982 45.7837 26.0498C45.7193 26.3955 45.687 26.7705 45.687 27.1748ZM59.6701 29.9258V18.5H62.2189V32H59.925L59.6701 29.9258ZM53.6584 27.3594V27.1748C53.6584 26.4482 53.7404 25.7891 53.9045 25.1973C54.0685 24.5996 54.3088 24.0869 54.6252 23.6592C54.9416 23.2314 55.3312 22.9004 55.7941 22.666C56.257 22.4316 56.7843 22.3145 57.3761 22.3145C57.9328 22.3145 58.4191 22.4316 58.8351 22.666C59.257 22.9004 59.6144 23.2344 59.9074 23.668C60.2062 24.0957 60.4464 24.6025 60.6281 25.1885C60.8097 25.7686 60.9416 26.4043 61.0236 27.0957V27.5C60.9416 28.1621 60.8097 28.7773 60.6281 29.3457C60.4464 29.9141 60.2062 30.4121 59.9074 30.8398C59.6144 31.2617 59.257 31.5898 58.8351 31.8242C58.4132 32.0586 57.9211 32.1758 57.3586 32.1758C56.7668 32.1758 56.2394 32.0557 55.7765 31.8154C55.3195 31.5752 54.9328 31.2383 54.6164 30.8047C54.3058 30.3711 54.0685 29.8613 53.9045 29.2754C53.7404 28.6895 53.6584 28.0508 53.6584 27.3594ZM56.1896 27.1748V27.3594C56.1896 27.752 56.2189 28.1182 56.2775 28.458C56.342 28.7979 56.4445 29.0996 56.5851 29.3633C56.7316 29.6211 56.9191 29.8232 57.1476 29.9697C57.382 30.1104 57.6662 30.1807 58.0002 30.1807C58.4338 30.1807 58.7912 30.084 59.0724 29.8906C59.3537 29.6914 59.5675 29.4189 59.714 29.0732C59.8664 28.7275 59.9543 28.3291 59.9777 27.8779V26.7266C59.9601 26.3574 59.9074 26.0264 59.8195 25.7334C59.7375 25.4346 59.6144 25.1797 59.4504 24.9688C59.2922 24.7578 59.0929 24.5938 58.8527 24.4766C58.6183 24.3594 58.34 24.3008 58.0177 24.3008C57.6896 24.3008 57.4084 24.377 57.174 24.5293C56.9396 24.6758 56.7492 24.8779 56.6027 25.1357C56.4621 25.3936 56.3566 25.6982 56.2863 26.0498C56.2218 26.3955 56.1896 26.7705 56.1896 27.1748ZM72.2202 30.9277L74.7426 22.4902H77.4584L73.6352 33.4326C73.5532 33.6729 73.4418 33.9307 73.3012 34.2061C73.1664 34.4814 72.9819 34.7422 72.7475 34.9883C72.519 35.2402 72.2289 35.4453 71.8774 35.6035C71.5317 35.7617 71.1069 35.8408 70.603 35.8408C70.3627 35.8408 70.1664 35.8262 70.0141 35.7969C69.8618 35.7676 69.6801 35.7266 69.4692 35.6738V33.8193C69.5336 33.8193 69.601 33.8193 69.6713 33.8193C69.7416 33.8252 69.809 33.8281 69.8735 33.8281C70.2075 33.8281 70.4799 33.79 70.6909 33.7139C70.9018 33.6377 71.0717 33.5205 71.2006 33.3623C71.3295 33.21 71.4321 33.0107 71.5082 32.7646L72.2202 30.9277ZM71.1655 22.4902L73.2309 29.3809L73.5913 32.0615L71.8686 32.2461L68.4496 22.4902H71.1655ZM78.2843 27.3418V27.1572C78.2843 26.46 78.3839 25.8184 78.5831 25.2324C78.7823 24.6406 79.0723 24.1279 79.4532 23.6943C79.8341 23.2607 80.3028 22.9238 80.8595 22.6836C81.4161 22.4375 82.0548 22.3145 82.7755 22.3145C83.4962 22.3145 84.1378 22.4375 84.7003 22.6836C85.2628 22.9238 85.7345 23.2607 86.1153 23.6943C86.502 24.1279 86.795 24.6406 86.9942 25.2324C87.1934 25.8184 87.293 26.46 87.293 27.1572V27.3418C87.293 28.0332 87.1934 28.6748 86.9942 29.2666C86.795 29.8525 86.502 30.3652 86.1153 30.8047C85.7345 31.2383 85.2657 31.5752 84.7091 31.8154C84.1524 32.0557 83.5138 32.1758 82.793 32.1758C82.0723 32.1758 81.4307 32.0557 80.8682 31.8154C80.3116 31.5752 79.8399 31.2383 79.4532 30.8047C79.0723 30.3652 78.7823 29.8525 78.5831 29.2666C78.3839 28.6748 78.2843 28.0332 78.2843 27.3418ZM80.8155 27.1572V27.3418C80.8155 27.7402 80.8507 28.1123 80.921 28.458C80.9913 28.8037 81.1026 29.1084 81.255 29.3721C81.4132 29.6299 81.6182 29.832 81.8702 29.9785C82.1222 30.125 82.4298 30.1982 82.793 30.1982C83.1446 30.1982 83.4464 30.125 83.6983 29.9785C83.9503 29.832 84.1524 29.6299 84.3048 29.3721C84.4571 29.1084 84.5684 28.8037 84.6388 28.458C84.7149 28.1123 84.753 27.7402 84.753 27.3418V27.1572C84.753 26.7705 84.7149 26.4072 84.6388 26.0674C84.5684 25.7217 84.4542 25.417 84.296 25.1533C84.1436 24.8838 83.9415 24.6729 83.6895 24.5205C83.4376 24.3682 83.1329 24.292 82.7755 24.292C82.418 24.292 82.1134 24.3682 81.8614 24.5205C81.6153 24.6729 81.4132 24.8838 81.255 25.1533C81.1026 25.417 80.9913 25.7217 80.921 26.0674C80.8507 26.4072 80.8155 26.7705 80.8155 27.1572ZM94.8337 29.7236V22.4902H97.365V32H94.9831L94.8337 29.7236ZM95.115 27.7725L95.862 27.7549C95.862 28.3877 95.7888 28.9766 95.6423 29.5215C95.4958 30.0605 95.2761 30.5293 94.9831 30.9277C94.6902 31.3203 94.321 31.6279 93.8757 31.8506C93.4304 32.0674 92.906 32.1758 92.3025 32.1758C91.8396 32.1758 91.4118 32.1113 91.0193 31.9824C90.6325 31.8477 90.2986 31.6396 90.0173 31.3584C89.7419 31.0713 89.5251 30.7051 89.3669 30.2598C89.2146 29.8086 89.1384 29.2666 89.1384 28.6338V22.4902H91.6697V28.6514C91.6697 28.9326 91.7019 29.1699 91.7663 29.3633C91.8366 29.5566 91.9333 29.7148 92.0564 29.8379C92.1794 29.9609 92.323 30.0488 92.487 30.1016C92.657 30.1543 92.8445 30.1807 93.0495 30.1807C93.571 30.1807 93.9812 30.0752 94.28 29.8643C94.5847 29.6533 94.7986 29.3662 94.9216 29.0029C95.0505 28.6338 95.115 28.2236 95.115 27.7725ZM102.19 24.5645V32H99.6586V22.4902H102.04L102.19 24.5645ZM105.055 22.4287L105.011 24.7754C104.888 24.7578 104.739 24.7432 104.563 24.7314C104.393 24.7139 104.238 24.7051 104.097 24.7051C103.74 24.7051 103.429 24.752 103.165 24.8457C102.908 24.9336 102.691 25.0654 102.515 25.2412C102.345 25.417 102.216 25.6309 102.128 25.8828C102.046 26.1348 101.999 26.4219 101.988 26.7441L101.478 26.5859C101.478 25.9707 101.539 25.4053 101.662 24.8896C101.786 24.3682 101.964 23.9141 102.199 23.5273C102.439 23.1406 102.732 22.8418 103.077 22.6309C103.423 22.4199 103.819 22.3145 104.264 22.3145C104.405 22.3145 104.548 22.3262 104.695 22.3496C104.841 22.3672 104.961 22.3936 105.055 22.4287ZM116.621 26.3838H113.334L113.316 24.5732H116.076C116.562 24.5732 116.961 24.5117 117.271 24.3887C117.582 24.2598 117.813 24.0752 117.965 23.835C118.124 23.5889 118.203 23.29 118.203 22.9385C118.203 22.54 118.127 22.2178 117.974 21.9717C117.828 21.7256 117.596 21.5469 117.28 21.4355C116.969 21.3242 116.568 21.2686 116.076 21.2686H114.248V32H111.611V19.2031H116.076C116.82 19.2031 117.485 19.2734 118.071 19.4141C118.663 19.5547 119.164 19.7686 119.574 20.0557C119.984 20.3428 120.298 20.7061 120.514 21.1455C120.731 21.5791 120.839 22.0947 120.839 22.6924C120.839 23.2197 120.719 23.7061 120.479 24.1514C120.245 24.5967 119.873 24.96 119.363 25.2412C118.859 25.5225 118.2 25.6777 117.385 25.707L116.621 26.3838ZM116.506 32H112.613L113.641 29.9434H116.506C116.969 29.9434 117.347 29.8701 117.64 29.7236C117.933 29.5713 118.15 29.3662 118.291 29.1084C118.431 28.8506 118.502 28.5547 118.502 28.2207C118.502 27.8457 118.437 27.5205 118.308 27.2451C118.185 26.9697 117.986 26.7588 117.711 26.6123C117.435 26.46 117.072 26.3838 116.621 26.3838H114.081L114.098 24.5732H117.262L117.869 25.2852C118.648 25.2734 119.275 25.4111 119.75 25.6982C120.23 25.9795 120.579 26.3457 120.796 26.7969C121.018 27.248 121.13 27.7314 121.13 28.2471C121.13 29.0674 120.951 29.7588 120.593 30.3213C120.236 30.8779 119.712 31.2969 119.02 31.5781C118.335 31.8594 117.497 32 116.506 32ZM128.934 29.7236V22.4902H131.465V32H129.083L128.934 29.7236ZM129.215 27.7725L129.962 27.7549C129.962 28.3877 129.889 28.9766 129.742 29.5215C129.596 30.0605 129.376 30.5293 129.083 30.9277C128.79 31.3203 128.421 31.6279 127.976 31.8506C127.531 32.0674 127.006 32.1758 126.403 32.1758C125.94 32.1758 125.512 32.1113 125.119 31.9824C124.733 31.8477 124.399 31.6396 124.117 31.3584C123.842 31.0713 123.625 30.7051 123.467 30.2598C123.315 29.8086 123.239 29.2666 123.239 28.6338V22.4902H125.77V28.6514C125.77 28.9326 125.802 29.1699 125.866 29.3633C125.937 29.5566 126.033 29.7148 126.157 29.8379C126.28 29.9609 126.423 30.0488 126.587 30.1016C126.757 30.1543 126.945 30.1807 127.15 30.1807C127.671 30.1807 128.081 30.0752 128.38 29.8643C128.685 29.6533 128.899 29.3662 129.022 29.0029C129.151 28.6338 129.215 28.2236 129.215 27.7725ZM138.9 29.3721C138.9 29.1904 138.848 29.0264 138.742 28.8799C138.637 28.7334 138.44 28.5986 138.153 28.4756C137.872 28.3467 137.465 28.2295 136.932 28.124C136.451 28.0186 136.003 27.8867 135.587 27.7285C135.177 27.5645 134.819 27.3682 134.515 27.1396C134.216 26.9111 133.981 26.6416 133.811 26.3311C133.642 26.0146 133.557 25.6543 133.557 25.25C133.557 24.8516 133.642 24.4766 133.811 24.125C133.987 23.7734 134.236 23.4629 134.559 23.1934C134.887 22.918 135.285 22.7041 135.754 22.5518C136.228 22.3936 136.762 22.3145 137.353 22.3145C138.18 22.3145 138.889 22.4463 139.48 22.71C140.078 22.9736 140.535 23.3369 140.851 23.7998C141.174 24.2568 141.335 24.7783 141.335 25.3643H138.804C138.804 25.1182 138.751 24.8984 138.645 24.7051C138.546 24.5059 138.388 24.3506 138.171 24.2393C137.96 24.1221 137.684 24.0635 137.345 24.0635C137.063 24.0635 136.82 24.1133 136.615 24.2129C136.41 24.3066 136.252 24.4355 136.141 24.5996C136.035 24.7578 135.982 24.9336 135.982 25.127C135.982 25.2734 136.012 25.4053 136.07 25.5225C136.135 25.6338 136.237 25.7363 136.378 25.8301C136.518 25.9238 136.7 26.0117 136.923 26.0938C137.151 26.1699 137.433 26.2402 137.767 26.3047C138.452 26.4453 139.064 26.6299 139.603 26.8584C140.143 27.0811 140.57 27.3857 140.887 27.7725C141.203 28.1533 141.361 28.6543 141.361 29.2754C141.361 29.6973 141.268 30.084 141.08 30.4355C140.893 30.7871 140.623 31.0947 140.271 31.3584C139.92 31.6162 139.498 31.8184 139.006 31.9648C138.519 32.1055 137.972 32.1758 137.362 32.1758C136.477 32.1758 135.727 32.0176 135.112 31.7012C134.503 31.3848 134.04 30.9834 133.724 30.4971C133.413 30.0049 133.258 29.501 133.258 28.9854H135.657C135.669 29.3311 135.757 29.6094 135.921 29.8203C136.091 30.0312 136.305 30.1836 136.562 30.2773C136.826 30.3711 137.11 30.418 137.415 30.418C137.743 30.418 138.016 30.374 138.232 30.2861C138.449 30.1924 138.613 30.0693 138.725 29.917C138.842 29.7588 138.9 29.5771 138.9 29.3721ZM146.037 22.4902V32H143.497V22.4902H146.037ZM143.338 20.0117C143.338 19.6426 143.467 19.3379 143.725 19.0977C143.983 18.8574 144.329 18.7373 144.762 18.7373C145.19 18.7373 145.533 18.8574 145.791 19.0977C146.054 19.3379 146.186 19.6426 146.186 20.0117C146.186 20.3809 146.054 20.6855 145.791 20.9258C145.533 21.166 145.19 21.2861 144.762 21.2861C144.329 21.2861 143.983 21.166 143.725 20.9258C143.467 20.6855 143.338 20.3809 143.338 20.0117ZM150.967 24.5205V32H148.436V22.4902H150.809L150.967 24.5205ZM150.598 26.9111H149.912C149.912 26.208 150.003 25.5752 150.185 25.0127C150.366 24.4443 150.621 23.9609 150.949 23.5625C151.278 23.1582 151.667 22.8506 152.118 22.6396C152.575 22.4229 153.085 22.3145 153.648 22.3145C154.093 22.3145 154.5 22.3789 154.869 22.5078C155.238 22.6367 155.555 22.8418 155.819 23.123C156.088 23.4043 156.293 23.7764 156.434 24.2393C156.58 24.7021 156.654 25.2676 156.654 25.9355V32H154.105V25.9268C154.105 25.5049 154.046 25.1768 153.929 24.9424C153.812 24.708 153.639 24.5439 153.41 24.4502C153.188 24.3506 152.912 24.3008 152.584 24.3008C152.244 24.3008 151.948 24.3682 151.696 24.5029C151.45 24.6377 151.245 24.8252 151.081 25.0654C150.923 25.2998 150.803 25.5752 150.721 25.8916C150.639 26.208 150.598 26.5479 150.598 26.9111ZM163.315 32.1758C162.577 32.1758 161.915 32.0586 161.329 31.8242C160.743 31.584 160.245 31.2529 159.835 30.8311C159.431 30.4092 159.12 29.9199 158.903 29.3633C158.686 28.8008 158.578 28.2031 158.578 27.5703V27.2188C158.578 26.498 158.681 25.8389 158.886 25.2412C159.091 24.6436 159.384 24.125 159.764 23.6855C160.151 23.2461 160.62 22.9092 161.171 22.6748C161.722 22.4346 162.343 22.3145 163.034 22.3145C163.708 22.3145 164.306 22.4258 164.827 22.6484C165.348 22.8711 165.785 23.1875 166.137 23.5977C166.494 24.0078 166.764 24.5 166.945 25.0742C167.127 25.6426 167.218 26.2754 167.218 26.9727V28.0273H159.659V26.3398H164.73V26.1465C164.73 25.7949 164.666 25.4814 164.537 25.2061C164.414 24.9248 164.226 24.7021 163.974 24.5381C163.723 24.374 163.4 24.292 163.008 24.292C162.674 24.292 162.387 24.3652 162.146 24.5117C161.906 24.6582 161.71 24.8633 161.557 25.127C161.411 25.3906 161.3 25.7012 161.223 26.0586C161.153 26.4102 161.118 26.7969 161.118 27.2188V27.5703C161.118 27.9512 161.171 28.3027 161.276 28.625C161.388 28.9473 161.543 29.2256 161.742 29.46C161.947 29.6943 162.193 29.876 162.48 30.0049C162.773 30.1338 163.104 30.1982 163.473 30.1982C163.931 30.1982 164.355 30.1104 164.748 29.9346C165.146 29.7529 165.489 29.4805 165.776 29.1172L167.007 30.4531C166.807 30.7402 166.535 31.0156 166.189 31.2793C165.849 31.543 165.439 31.7598 164.959 31.9297C164.478 32.0938 163.931 32.1758 163.315 32.1758ZM174.161 29.3721C174.161 29.1904 174.108 29.0264 174.002 28.8799C173.897 28.7334 173.701 28.5986 173.414 28.4756C173.132 28.3467 172.725 28.2295 172.192 28.124C171.711 28.0186 171.263 27.8867 170.847 27.7285C170.437 27.5645 170.08 27.3682 169.775 27.1396C169.476 26.9111 169.242 26.6416 169.072 26.3311C168.902 26.0146 168.817 25.6543 168.817 25.25C168.817 24.8516 168.902 24.4766 169.072 24.125C169.248 23.7734 169.497 23.4629 169.819 23.1934C170.147 22.918 170.545 22.7041 171.014 22.5518C171.489 22.3936 172.022 22.3145 172.614 22.3145C173.44 22.3145 174.149 22.4463 174.741 22.71C175.338 22.9736 175.795 23.3369 176.112 23.7998C176.434 24.2568 176.595 24.7783 176.595 25.3643H174.064C174.064 25.1182 174.011 24.8984 173.906 24.7051C173.806 24.5059 173.648 24.3506 173.431 24.2393C173.22 24.1221 172.945 24.0635 172.605 24.0635C172.324 24.0635 172.081 24.1133 171.875 24.2129C171.67 24.3066 171.512 24.4355 171.401 24.5996C171.295 24.7578 171.243 24.9336 171.243 25.127C171.243 25.2734 171.272 25.4053 171.331 25.5225C171.395 25.6338 171.498 25.7363 171.638 25.8301C171.779 25.9238 171.96 26.0117 172.183 26.0938C172.412 26.1699 172.693 26.2402 173.027 26.3047C173.712 26.4453 174.325 26.6299 174.864 26.8584C175.403 27.0811 175.831 27.3857 176.147 27.7725C176.463 28.1533 176.622 28.6543 176.622 29.2754C176.622 29.6973 176.528 30.084 176.34 30.4355C176.153 30.7871 175.883 31.0947 175.532 31.3584C175.18 31.6162 174.758 31.8184 174.266 31.9648C173.78 32.1055 173.232 32.1758 172.623 32.1758C171.738 32.1758 170.988 32.0176 170.373 31.7012C169.763 31.3848 169.3 30.9834 168.984 30.4971C168.673 30.0049 168.518 29.501 168.518 28.9854H170.917C170.929 29.3311 171.017 29.6094 171.181 29.8203C171.351 30.0312 171.565 30.1836 171.823 30.2773C172.086 30.3711 172.371 30.418 172.675 30.418C173.003 30.418 173.276 30.374 173.493 30.2861C173.709 30.1924 173.874 30.0693 173.985 29.917C174.102 29.7588 174.161 29.5771 174.161 29.3721ZM183.767 29.3721C183.767 29.1904 183.714 29.0264 183.609 28.8799C183.503 28.7334 183.307 28.5986 183.02 28.4756C182.738 28.3467 182.331 28.2295 181.798 28.124C181.318 28.0186 180.869 27.8867 180.453 27.7285C180.043 27.5645 179.686 27.3682 179.381 27.1396C179.082 26.9111 178.848 26.6416 178.678 26.3311C178.508 26.0146 178.423 25.6543 178.423 25.25C178.423 24.8516 178.508 24.4766 178.678 24.125C178.854 23.7734 179.103 23.4629 179.425 23.1934C179.753 22.918 180.151 22.7041 180.62 22.5518C181.095 22.3936 181.628 22.3145 182.22 22.3145C183.046 22.3145 183.755 22.4463 184.347 22.71C184.944 22.9736 185.401 23.3369 185.718 23.7998C186.04 24.2568 186.201 24.7783 186.201 25.3643H183.67C183.67 25.1182 183.617 24.8984 183.512 24.7051C183.412 24.5059 183.254 24.3506 183.037 24.2393C182.826 24.1221 182.551 24.0635 182.211 24.0635C181.93 24.0635 181.687 24.1133 181.482 24.2129C181.276 24.3066 181.118 24.4355 181.007 24.5996C180.901 24.7578 180.849 24.9336 180.849 25.127C180.849 25.2734 180.878 25.4053 180.937 25.5225C181.001 25.6338 181.104 25.7363 181.244 25.8301C181.385 25.9238 181.567 26.0117 181.789 26.0938C182.018 26.1699 182.299 26.2402 182.633 26.3047C183.318 26.4453 183.931 26.6299 184.47 26.8584C185.009 27.0811 185.437 27.3857 185.753 27.7725C186.069 28.1533 186.228 28.6543 186.228 29.2754C186.228 29.6973 186.134 30.084 185.946 30.4355C185.759 30.7871 185.489 31.0947 185.138 31.3584C184.786 31.6162 184.364 31.8184 183.872 31.9648C183.386 32.1055 182.838 32.1758 182.229 32.1758C181.344 32.1758 180.594 32.0176 179.979 31.7012C179.369 31.3848 178.906 30.9834 178.59 30.4971C178.279 30.0049 178.124 29.501 178.124 28.9854H180.524C180.535 29.3311 180.623 29.6094 180.787 29.8203C180.957 30.0312 181.171 30.1836 181.429 30.2773C181.693 30.3711 181.977 30.418 182.281 30.418C182.609 30.418 182.882 30.374 183.099 30.2861C183.316 30.1924 183.48 30.0693 183.591 29.917C183.708 29.7588 183.767 29.5771 183.767 29.3721Z" fill="white"/>
</svg>
