<svg width="262" height="51" viewBox="0 0 262 51" fill="none" xmlns="http://www.w3.org/2000/svg">
<path d="M0 25.5C0 11.4167 11.4167 0 25.5 0H236.5C250.583 0 262 11.4167 262 25.5C262 39.5833 250.583 51 236.5 51H25.5C11.4167 51 0 39.5833 0 25.5Z" fill="#232323"/>
<path d="M36.5859 21.3916L33.1055 32H30.3018L35.0566 19.2031H36.8408L36.5859 21.3916ZM39.4775 32L35.9883 21.3916L35.707 19.2031H37.5088L42.29 32H39.4775ZM39.3193 27.2363V29.3018H32.5605V27.2363H39.3193ZM48.9346 29.9258V18.5H51.4834V32H49.1895L48.9346 29.9258ZM42.9229 27.3594V27.1748C42.9229 26.4482 43.0049 25.7891 43.1689 25.1973C43.333 24.5996 43.5732 24.0869 43.8896 23.6592C44.2061 23.2314 44.5957 22.9004 45.0586 22.666C45.5215 22.4316 46.0488 22.3145 46.6406 22.3145C47.1973 22.3145 47.6836 22.4316 48.0996 22.666C48.5215 22.9004 48.8789 23.2344 49.1719 23.668C49.4707 24.0957 49.7109 24.6025 49.8926 25.1885C50.0742 25.7686 50.2061 26.4043 50.2881 27.0957V27.5C50.2061 28.1621 50.0742 28.7773 49.8926 29.3457C49.7109 29.9141 49.4707 30.4121 49.1719 30.8398C48.8789 31.2617 48.5215 31.5898 48.0996 31.8242C47.6777 32.0586 47.1855 32.1758 46.623 32.1758C46.0312 32.1758 45.5039 32.0557 45.041 31.8154C44.584 31.5752 44.1973 31.2383 43.8809 30.8047C43.5703 30.3711 43.333 29.8613 43.1689 29.2754C43.0049 28.6895 42.9229 28.0508 42.9229 27.3594ZM45.4541 27.1748V27.3594C45.4541 27.752 45.4834 28.1182 45.542 28.458C45.6064 28.7979 45.709 29.0996 45.8496 29.3633C45.9961 29.6211 46.1836 29.8232 46.4121 29.9697C46.6465 30.1104 46.9307 30.1807 47.2646 30.1807C47.6982 30.1807 48.0557 30.084 48.3369 29.8906C48.6182 29.6914 48.832 29.4189 48.9785 29.0732C49.1309 28.7275 49.2188 28.3291 49.2422 27.8779V26.7266C49.2246 26.3574 49.1719 26.0264 49.084 25.7334C49.002 25.4346 48.8789 25.1797 48.7148 24.9688C48.5566 24.7578 48.3574 24.5938 48.1172 24.4766C47.8828 24.3594 47.6045 24.3008 47.2822 24.3008C46.9541 24.3008 46.6729 24.377 46.4385 24.5293C46.2041 24.6758 46.0137 24.8779 45.8672 25.1357C45.7266 25.3936 45.6211 25.6982 45.5508 26.0498C45.4863 26.3955 45.4541 26.7705 45.4541 27.1748ZM59.0771 29.9258V18.5H61.626V32H59.332L59.0771 29.9258ZM53.0654 27.3594V27.1748C53.0654 26.4482 53.1475 25.7891 53.3115 25.1973C53.4756 24.5996 53.7158 24.0869 54.0322 23.6592C54.3486 23.2314 54.7383 22.9004 55.2012 22.666C55.6641 22.4316 56.1914 22.3145 56.7832 22.3145C57.3398 22.3145 57.8262 22.4316 58.2422 22.666C58.6641 22.9004 59.0215 23.2344 59.3145 23.668C59.6133 24.0957 59.8535 24.6025 60.0352 25.1885C60.2168 25.7686 60.3486 26.4043 60.4307 27.0957V27.5C60.3486 28.1621 60.2168 28.7773 60.0352 29.3457C59.8535 29.9141 59.6133 30.4121 59.3145 30.8398C59.0215 31.2617 58.6641 31.5898 58.2422 31.8242C57.8203 32.0586 57.3281 32.1758 56.7656 32.1758C56.1738 32.1758 55.6465 32.0557 55.1836 31.8154C54.7266 31.5752 54.3398 31.2383 54.0234 30.8047C53.7129 30.3711 53.4756 29.8613 53.3115 29.2754C53.1475 28.6895 53.0654 28.0508 53.0654 27.3594ZM55.5967 27.1748V27.3594C55.5967 27.752 55.626 28.1182 55.6846 28.458C55.749 28.7979 55.8516 29.0996 55.9922 29.3633C56.1387 29.6211 56.3262 29.8232 56.5547 29.9697C56.7891 30.1104 57.0732 30.1807 57.4072 30.1807C57.8408 30.1807 58.1982 30.084 58.4795 29.8906C58.7607 29.6914 58.9746 29.4189 59.1211 29.0732C59.2734 28.7275 59.3613 28.3291 59.3848 27.8779V26.7266C59.3672 26.3574 59.3145 26.0264 59.2266 25.7334C59.1445 25.4346 59.0215 25.1797 58.8574 24.9688C58.6992 24.7578 58.5 24.5938 58.2598 24.4766C58.0254 24.3594 57.7471 24.3008 57.4248 24.3008C57.0967 24.3008 56.8154 24.377 56.5811 24.5293C56.3467 24.6758 56.1562 24.8779 56.0098 25.1357C55.8691 25.3936 55.7637 25.6982 55.6934 26.0498C55.6289 26.3955 55.5967 26.7705 55.5967 27.1748ZM70.9072 30.9277L73.4297 22.4902H76.1455L72.3223 33.4326C72.2402 33.6729 72.1289 33.9307 71.9883 34.2061C71.8535 34.4814 71.6689 34.7422 71.4346 34.9883C71.2061 35.2402 70.916 35.4453 70.5645 35.6035C70.2188 35.7617 69.7939 35.8408 69.29 35.8408C69.0498 35.8408 68.8535 35.8262 68.7012 35.7969C68.5488 35.7676 68.3672 35.7266 68.1562 35.6738V33.8193C68.2207 33.8193 68.2881 33.8193 68.3584 33.8193C68.4287 33.8252 68.4961 33.8281 68.5605 33.8281C68.8945 33.8281 69.167 33.79 69.3779 33.7139C69.5889 33.6377 69.7588 33.5205 69.8877 33.3623C70.0166 33.21 70.1191 33.0107 70.1953 32.7646L70.9072 30.9277ZM69.8525 22.4902L71.918 29.3809L72.2783 32.0615L70.5557 32.2461L67.1367 22.4902H69.8525ZM76.6113 27.3418V27.1572C76.6113 26.46 76.7109 25.8184 76.9102 25.2324C77.1094 24.6406 77.3994 24.1279 77.7803 23.6943C78.1611 23.2607 78.6299 22.9238 79.1865 22.6836C79.7432 22.4375 80.3818 22.3145 81.1025 22.3145C81.8232 22.3145 82.4648 22.4375 83.0273 22.6836C83.5898 22.9238 84.0615 23.2607 84.4424 23.6943C84.8291 24.1279 85.1221 24.6406 85.3213 25.2324C85.5205 25.8184 85.6201 26.46 85.6201 27.1572V27.3418C85.6201 28.0332 85.5205 28.6748 85.3213 29.2666C85.1221 29.8525 84.8291 30.3652 84.4424 30.8047C84.0615 31.2383 83.5928 31.5752 83.0361 31.8154C82.4795 32.0557 81.8408 32.1758 81.1201 32.1758C80.3994 32.1758 79.7578 32.0557 79.1953 31.8154C78.6387 31.5752 78.167 31.2383 77.7803 30.8047C77.3994 30.3652 77.1094 29.8525 76.9102 29.2666C76.7109 28.6748 76.6113 28.0332 76.6113 27.3418ZM79.1426 27.1572V27.3418C79.1426 27.7402 79.1777 28.1123 79.248 28.458C79.3184 28.8037 79.4297 29.1084 79.582 29.3721C79.7402 29.6299 79.9453 29.832 80.1973 29.9785C80.4492 30.125 80.7568 30.1982 81.1201 30.1982C81.4717 30.1982 81.7734 30.125 82.0254 29.9785C82.2773 29.832 82.4795 29.6299 82.6318 29.3721C82.7842 29.1084 82.8955 28.8037 82.9658 28.458C83.042 28.1123 83.0801 27.7402 83.0801 27.3418V27.1572C83.0801 26.7705 83.042 26.4072 82.9658 26.0674C82.8955 25.7217 82.7812 25.417 82.623 25.1533C82.4707 24.8838 82.2686 24.6729 82.0166 24.5205C81.7646 24.3682 81.46 24.292 81.1025 24.292C80.7451 24.292 80.4404 24.3682 80.1885 24.5205C79.9424 24.6729 79.7402 24.8838 79.582 25.1533C79.4297 25.417 79.3184 25.7217 79.248 26.0674C79.1777 26.4072 79.1426 26.7705 79.1426 27.1572ZM92.8008 29.7236V22.4902H95.332V32H92.9502L92.8008 29.7236ZM93.082 27.7725L93.8291 27.7549C93.8291 28.3877 93.7559 28.9766 93.6094 29.5215C93.4629 30.0605 93.2432 30.5293 92.9502 30.9277C92.6572 31.3203 92.2881 31.6279 91.8428 31.8506C91.3975 32.0674 90.873 32.1758 90.2695 32.1758C89.8066 32.1758 89.3789 32.1113 88.9863 31.9824C88.5996 31.8477 88.2656 31.6396 87.9844 31.3584C87.709 31.0713 87.4922 30.7051 87.334 30.2598C87.1816 29.8086 87.1055 29.2666 87.1055 28.6338V22.4902H89.6367V28.6514C89.6367 28.9326 89.6689 29.1699 89.7334 29.3633C89.8037 29.5566 89.9004 29.7148 90.0234 29.8379C90.1465 29.9609 90.29 30.0488 90.4541 30.1016C90.624 30.1543 90.8115 30.1807 91.0166 30.1807C91.5381 30.1807 91.9482 30.0752 92.2471 29.8643C92.5518 29.6533 92.7656 29.3662 92.8887 29.0029C93.0176 28.6338 93.082 28.2236 93.082 27.7725ZM99.7969 24.5645V32H97.2656V22.4902H99.6475L99.7969 24.5645ZM102.662 22.4287L102.618 24.7754C102.495 24.7578 102.346 24.7432 102.17 24.7314C102 24.7139 101.845 24.7051 101.704 24.7051C101.347 24.7051 101.036 24.752 100.772 24.8457C100.515 24.9336 100.298 25.0654 100.122 25.2412C99.9521 25.417 99.8232 25.6309 99.7354 25.8828C99.6533 26.1348 99.6064 26.4219 99.5947 26.7441L99.085 26.5859C99.085 25.9707 99.1465 25.4053 99.2695 24.8896C99.3926 24.3682 99.5713 23.9141 99.8057 23.5273C100.046 23.1406 100.339 22.8418 100.685 22.6309C101.03 22.4199 101.426 22.3145 101.871 22.3145C102.012 22.3145 102.155 22.3262 102.302 22.3496C102.448 22.3672 102.568 22.3936 102.662 22.4287ZM113.508 26.3838H110.221L110.203 24.5732H112.963C113.449 24.5732 113.848 24.5117 114.158 24.3887C114.469 24.2598 114.7 24.0752 114.853 23.835C115.011 23.5889 115.09 23.29 115.09 22.9385C115.09 22.54 115.014 22.2178 114.861 21.9717C114.715 21.7256 114.483 21.5469 114.167 21.4355C113.856 21.3242 113.455 21.2686 112.963 21.2686H111.135V32H108.498V19.2031H112.963C113.707 19.2031 114.372 19.2734 114.958 19.4141C115.55 19.5547 116.051 19.7686 116.461 20.0557C116.871 20.3428 117.185 20.7061 117.401 21.1455C117.618 21.5791 117.727 22.0947 117.727 22.6924C117.727 23.2197 117.606 23.7061 117.366 24.1514C117.132 24.5967 116.76 24.96 116.25 25.2412C115.746 25.5225 115.087 25.6777 114.272 25.707L113.508 26.3838ZM113.394 32H109.5L110.528 29.9434H113.394C113.856 29.9434 114.234 29.8701 114.527 29.7236C114.82 29.5713 115.037 29.3662 115.178 29.1084C115.318 28.8506 115.389 28.5547 115.389 28.2207C115.389 27.8457 115.324 27.5205 115.195 27.2451C115.072 26.9697 114.873 26.7588 114.598 26.6123C114.322 26.46 113.959 26.3838 113.508 26.3838H110.968L110.985 24.5732H114.149L114.756 25.2852C115.535 25.2734 116.162 25.4111 116.637 25.6982C117.117 25.9795 117.466 26.3457 117.683 26.7969C117.905 27.248 118.017 27.7314 118.017 28.2471C118.017 29.0674 117.838 29.7588 117.48 30.3213C117.123 30.8779 116.599 31.2969 115.907 31.5781C115.222 31.8594 114.384 32 113.394 32ZM125.461 29.7236V22.4902H127.992V32H125.61L125.461 29.7236ZM125.742 27.7725L126.489 27.7549C126.489 28.3877 126.416 28.9766 126.27 29.5215C126.123 30.0605 125.903 30.5293 125.61 30.9277C125.317 31.3203 124.948 31.6279 124.503 31.8506C124.058 32.0674 123.533 32.1758 122.93 32.1758C122.467 32.1758 122.039 32.1113 121.646 31.9824C121.26 31.8477 120.926 31.6396 120.645 31.3584C120.369 31.0713 120.152 30.7051 119.994 30.2598C119.842 29.8086 119.766 29.2666 119.766 28.6338V22.4902H122.297V28.6514C122.297 28.9326 122.329 29.1699 122.394 29.3633C122.464 29.5566 122.561 29.7148 122.684 29.8379C122.807 29.9609 122.95 30.0488 123.114 30.1016C123.284 30.1543 123.472 30.1807 123.677 30.1807C124.198 30.1807 124.608 30.0752 124.907 29.8643C125.212 29.6533 125.426 29.3662 125.549 29.0029C125.678 28.6338 125.742 28.2236 125.742 27.7725ZM135.067 29.3721C135.067 29.1904 135.015 29.0264 134.909 28.8799C134.804 28.7334 134.607 28.5986 134.32 28.4756C134.039 28.3467 133.632 28.2295 133.099 28.124C132.618 28.0186 132.17 27.8867 131.754 27.7285C131.344 27.5645 130.986 27.3682 130.682 27.1396C130.383 26.9111 130.148 26.6416 129.979 26.3311C129.809 26.0146 129.724 25.6543 129.724 25.25C129.724 24.8516 129.809 24.4766 129.979 24.125C130.154 23.7734 130.403 23.4629 130.726 23.1934C131.054 22.918 131.452 22.7041 131.921 22.5518C132.396 22.3936 132.929 22.3145 133.521 22.3145C134.347 22.3145 135.056 22.4463 135.647 22.71C136.245 22.9736 136.702 23.3369 137.019 23.7998C137.341 24.2568 137.502 24.7783 137.502 25.3643H134.971C134.971 25.1182 134.918 24.8984 134.812 24.7051C134.713 24.5059 134.555 24.3506 134.338 24.2393C134.127 24.1221 133.852 24.0635 133.512 24.0635C133.23 24.0635 132.987 24.1133 132.782 24.2129C132.577 24.3066 132.419 24.4355 132.308 24.5996C132.202 24.7578 132.149 24.9336 132.149 25.127C132.149 25.2734 132.179 25.4053 132.237 25.5225C132.302 25.6338 132.404 25.7363 132.545 25.8301C132.686 25.9238 132.867 26.0117 133.09 26.0938C133.318 26.1699 133.6 26.2402 133.934 26.3047C134.619 26.4453 135.231 26.6299 135.771 26.8584C136.31 27.0811 136.737 27.3857 137.054 27.7725C137.37 28.1533 137.528 28.6543 137.528 29.2754C137.528 29.6973 137.435 30.084 137.247 30.4355C137.06 30.7871 136.79 31.0947 136.438 31.3584C136.087 31.6162 135.665 31.8184 135.173 31.9648C134.687 32.1055 134.139 32.1758 133.529 32.1758C132.645 32.1758 131.895 32.0176 131.279 31.7012C130.67 31.3848 130.207 30.9834 129.891 30.4971C129.58 30.0049 129.425 29.501 129.425 28.9854H131.824C131.836 29.3311 131.924 29.6094 132.088 29.8203C132.258 30.0312 132.472 30.1836 132.729 30.2773C132.993 30.3711 133.277 30.418 133.582 30.418C133.91 30.418 134.183 30.374 134.399 30.2861C134.616 30.1924 134.78 30.0693 134.892 29.917C135.009 29.7588 135.067 29.5771 135.067 29.3721ZM141.844 22.4902V32H139.304V22.4902H141.844ZM139.146 20.0117C139.146 19.6426 139.274 19.3379 139.532 19.0977C139.79 18.8574 140.136 18.7373 140.569 18.7373C140.997 18.7373 141.34 18.8574 141.598 19.0977C141.861 19.3379 141.993 19.6426 141.993 20.0117C141.993 20.3809 141.861 20.6855 141.598 20.9258C141.34 21.166 140.997 21.2861 140.569 21.2861C140.136 21.2861 139.79 21.166 139.532 20.9258C139.274 20.6855 139.146 20.3809 139.146 20.0117ZM146.414 24.5205V32H143.883V22.4902H146.256L146.414 24.5205ZM146.045 26.9111H145.359C145.359 26.208 145.45 25.5752 145.632 25.0127C145.813 24.4443 146.068 23.9609 146.396 23.5625C146.725 23.1582 147.114 22.8506 147.565 22.6396C148.022 22.4229 148.532 22.3145 149.095 22.3145C149.54 22.3145 149.947 22.3789 150.316 22.5078C150.686 22.6367 151.002 22.8418 151.266 23.123C151.535 23.4043 151.74 23.7764 151.881 24.2393C152.027 24.7021 152.101 25.2676 152.101 25.9355V32H149.552V25.9268C149.552 25.5049 149.493 25.1768 149.376 24.9424C149.259 24.708 149.086 24.5439 148.857 24.4502C148.635 24.3506 148.359 24.3008 148.031 24.3008C147.691 24.3008 147.396 24.3682 147.144 24.5029C146.897 24.6377 146.692 24.8252 146.528 25.0654C146.37 25.2998 146.25 25.5752 146.168 25.8916C146.086 26.208 146.045 26.5479 146.045 26.9111ZM158.402 32.1758C157.664 32.1758 157.002 32.0586 156.416 31.8242C155.83 31.584 155.332 31.2529 154.922 30.8311C154.518 30.4092 154.207 29.9199 153.99 29.3633C153.773 28.8008 153.665 28.2031 153.665 27.5703V27.2188C153.665 26.498 153.768 25.8389 153.973 25.2412C154.178 24.6436 154.471 24.125 154.852 23.6855C155.238 23.2461 155.707 22.9092 156.258 22.6748C156.809 22.4346 157.43 22.3145 158.121 22.3145C158.795 22.3145 159.393 22.4258 159.914 22.6484C160.436 22.8711 160.872 23.1875 161.224 23.5977C161.581 24.0078 161.851 24.5 162.032 25.0742C162.214 25.6426 162.305 26.2754 162.305 26.9727V28.0273H154.746V26.3398H159.817V26.1465C159.817 25.7949 159.753 25.4814 159.624 25.2061C159.501 24.9248 159.313 24.7021 159.062 24.5381C158.81 24.374 158.487 24.292 158.095 24.292C157.761 24.292 157.474 24.3652 157.233 24.5117C156.993 24.6582 156.797 24.8633 156.645 25.127C156.498 25.3906 156.387 25.7012 156.311 26.0586C156.24 26.4102 156.205 26.7969 156.205 27.2188V27.5703C156.205 27.9512 156.258 28.3027 156.363 28.625C156.475 28.9473 156.63 29.2256 156.829 29.46C157.034 29.6943 157.28 29.876 157.567 30.0049C157.86 30.1338 158.191 30.1982 158.561 30.1982C159.018 30.1982 159.442 30.1104 159.835 29.9346C160.233 29.7529 160.576 29.4805 160.863 29.1172L162.094 30.4531C161.895 30.7402 161.622 31.0156 161.276 31.2793C160.937 31.543 160.526 31.7598 160.046 31.9297C159.565 32.0938 159.018 32.1758 158.402 32.1758ZM168.888 29.3721C168.888 29.1904 168.835 29.0264 168.729 28.8799C168.624 28.7334 168.428 28.5986 168.141 28.4756C167.859 28.3467 167.452 28.2295 166.919 28.124C166.438 28.0186 165.99 27.8867 165.574 27.7285C165.164 27.5645 164.807 27.3682 164.502 27.1396C164.203 26.9111 163.969 26.6416 163.799 26.3311C163.629 26.0146 163.544 25.6543 163.544 25.25C163.544 24.8516 163.629 24.4766 163.799 24.125C163.975 23.7734 164.224 23.4629 164.546 23.1934C164.874 22.918 165.272 22.7041 165.741 22.5518C166.216 22.3936 166.749 22.3145 167.341 22.3145C168.167 22.3145 168.876 22.4463 169.468 22.71C170.065 22.9736 170.522 23.3369 170.839 23.7998C171.161 24.2568 171.322 24.7783 171.322 25.3643H168.791C168.791 25.1182 168.738 24.8984 168.633 24.7051C168.533 24.5059 168.375 24.3506 168.158 24.2393C167.947 24.1221 167.672 24.0635 167.332 24.0635C167.051 24.0635 166.808 24.1133 166.603 24.2129C166.397 24.3066 166.239 24.4355 166.128 24.5996C166.022 24.7578 165.97 24.9336 165.97 25.127C165.97 25.2734 165.999 25.4053 166.058 25.5225C166.122 25.6338 166.225 25.7363 166.365 25.8301C166.506 25.9238 166.688 26.0117 166.91 26.0938C167.139 26.1699 167.42 26.2402 167.754 26.3047C168.439 26.4453 169.052 26.6299 169.591 26.8584C170.13 27.0811 170.558 27.3857 170.874 27.7725C171.19 28.1533 171.349 28.6543 171.349 29.2754C171.349 29.6973 171.255 30.084 171.067 30.4355C170.88 30.7871 170.61 31.0947 170.259 31.3584C169.907 31.6162 169.485 31.8184 168.993 31.9648C168.507 32.1055 167.959 32.1758 167.35 32.1758C166.465 32.1758 165.715 32.0176 165.1 31.7012C164.49 31.3848 164.027 30.9834 163.711 30.4971C163.4 30.0049 163.245 29.501 163.245 28.9854H165.645C165.656 29.3311 165.744 29.6094 165.908 29.8203C166.078 30.0312 166.292 30.1836 166.55 30.2773C166.813 30.3711 167.098 30.418 167.402 30.418C167.73 30.418 168.003 30.374 168.22 30.2861C168.437 30.1924 168.601 30.0693 168.712 29.917C168.829 29.7588 168.888 29.5771 168.888 29.3721ZM178.134 29.3721C178.134 29.1904 178.081 29.0264 177.976 28.8799C177.87 28.7334 177.674 28.5986 177.387 28.4756C177.105 28.3467 176.698 28.2295 176.165 28.124C175.685 28.0186 175.236 27.8867 174.82 27.7285C174.41 27.5645 174.053 27.3682 173.748 27.1396C173.449 26.9111 173.215 26.6416 173.045 26.3311C172.875 26.0146 172.79 25.6543 172.79 25.25C172.79 24.8516 172.875 24.4766 173.045 24.125C173.221 23.7734 173.47 23.4629 173.792 23.1934C174.12 22.918 174.519 22.7041 174.987 22.5518C175.462 22.3936 175.995 22.3145 176.587 22.3145C177.413 22.3145 178.122 22.4463 178.714 22.71C179.312 22.9736 179.769 23.3369 180.085 23.7998C180.407 24.2568 180.568 24.7783 180.568 25.3643H178.037C178.037 25.1182 177.984 24.8984 177.879 24.7051C177.779 24.5059 177.621 24.3506 177.404 24.2393C177.193 24.1221 176.918 24.0635 176.578 24.0635C176.297 24.0635 176.054 24.1133 175.849 24.2129C175.644 24.3066 175.485 24.4355 175.374 24.5996C175.269 24.7578 175.216 24.9336 175.216 25.127C175.216 25.2734 175.245 25.4053 175.304 25.5225C175.368 25.6338 175.471 25.7363 175.611 25.8301C175.752 25.9238 175.934 26.0117 176.156 26.0938C176.385 26.1699 176.666 26.2402 177 26.3047C177.686 26.4453 178.298 26.6299 178.837 26.8584C179.376 27.0811 179.804 27.3857 180.12 27.7725C180.437 28.1533 180.595 28.6543 180.595 29.2754C180.595 29.6973 180.501 30.084 180.313 30.4355C180.126 30.7871 179.856 31.0947 179.505 31.3584C179.153 31.6162 178.731 31.8184 178.239 31.9648C177.753 32.1055 177.205 32.1758 176.596 32.1758C175.711 32.1758 174.961 32.0176 174.346 31.7012C173.736 31.3848 173.273 30.9834 172.957 30.4971C172.646 30.0049 172.491 29.501 172.491 28.9854H174.891C174.902 29.3311 174.99 29.6094 175.154 29.8203C175.324 30.0312 175.538 30.1836 175.796 30.2773C176.06 30.3711 176.344 30.418 176.648 30.418C176.977 30.418 177.249 30.374 177.466 30.2861C177.683 30.1924 177.847 30.0693 177.958 29.917C178.075 29.7588 178.134 29.5771 178.134 29.3721ZM192.126 19.2031V32H189.498V19.2031H192.126ZM196.063 19.2031V21.2686H185.622V19.2031H196.063ZM195.475 27.3418V27.1572C195.475 26.46 195.574 25.8184 195.773 25.2324C195.973 24.6406 196.263 24.1279 196.644 23.6943C197.024 23.2607 197.493 22.9238 198.05 22.6836C198.606 22.4375 199.245 22.3145 199.966 22.3145C200.687 22.3145 201.328 22.4375 201.891 22.6836C202.453 22.9238 202.925 23.2607 203.306 23.6943C203.692 24.1279 203.985 24.6406 204.185 25.2324C204.384 25.8184 204.483 26.46 204.483 27.1572V27.3418C204.483 28.0332 204.384 28.6748 204.185 29.2666C203.985 29.8525 203.692 30.3652 203.306 30.8047C202.925 31.2383 202.456 31.5752 201.899 31.8154C201.343 32.0557 200.704 32.1758 199.983 32.1758C199.263 32.1758 198.621 32.0557 198.059 31.8154C197.502 31.5752 197.03 31.2383 196.644 30.8047C196.263 30.3652 195.973 29.8525 195.773 29.2666C195.574 28.6748 195.475 28.0332 195.475 27.3418ZM198.006 27.1572V27.3418C198.006 27.7402 198.041 28.1123 198.111 28.458C198.182 28.8037 198.293 29.1084 198.445 29.3721C198.604 29.6299 198.809 29.832 199.061 29.9785C199.312 30.125 199.62 30.1982 199.983 30.1982C200.335 30.1982 200.637 30.125 200.889 29.9785C201.141 29.832 201.343 29.6299 201.495 29.3721C201.647 29.1084 201.759 28.8037 201.829 28.458C201.905 28.1123 201.943 27.7402 201.943 27.3418V27.1572C201.943 26.7705 201.905 26.4072 201.829 26.0674C201.759 25.7217 201.645 25.417 201.486 25.1533C201.334 24.8838 201.132 24.6729 200.88 24.5205C200.628 24.3682 200.323 24.292 199.966 24.292C199.608 24.292 199.304 24.3682 199.052 24.5205C198.806 24.6729 198.604 24.8838 198.445 25.1533C198.293 25.417 198.182 25.7217 198.111 26.0674C198.041 26.4072 198.006 26.7705 198.006 27.1572ZM211.655 29.9258V18.5H214.204V32H211.91L211.655 29.9258ZM205.644 27.3594V27.1748C205.644 26.4482 205.726 25.7891 205.89 25.1973C206.054 24.5996 206.294 24.0869 206.61 23.6592C206.927 23.2314 207.316 22.9004 207.779 22.666C208.242 22.4316 208.77 22.3145 209.361 22.3145C209.918 22.3145 210.404 22.4316 210.82 22.666C211.242 22.9004 211.6 23.2344 211.893 23.668C212.191 24.0957 212.432 24.6025 212.613 25.1885C212.795 25.7686 212.927 26.4043 213.009 27.0957V27.5C212.927 28.1621 212.795 28.7773 212.613 29.3457C212.432 29.9141 212.191 30.4121 211.893 30.8398C211.6 31.2617 211.242 31.5898 210.82 31.8242C210.398 32.0586 209.906 32.1758 209.344 32.1758C208.752 32.1758 208.225 32.0557 207.762 31.8154C207.305 31.5752 206.918 31.2383 206.602 30.8047C206.291 30.3711 206.054 29.8613 205.89 29.2754C205.726 28.6895 205.644 28.0508 205.644 27.3594ZM208.175 27.1748V27.3594C208.175 27.752 208.204 28.1182 208.263 28.458C208.327 28.7979 208.43 29.0996 208.57 29.3633C208.717 29.6211 208.904 29.8232 209.133 29.9697C209.367 30.1104 209.651 30.1807 209.985 30.1807C210.419 30.1807 210.776 30.084 211.058 29.8906C211.339 29.6914 211.553 29.4189 211.699 29.0732C211.852 28.7275 211.939 28.3291 211.963 27.8779V26.7266C211.945 26.3574 211.893 26.0264 211.805 25.7334C211.723 25.4346 211.6 25.1797 211.436 24.9688C211.277 24.7578 211.078 24.5938 210.838 24.4766C210.604 24.3594 210.325 24.3008 210.003 24.3008C209.675 24.3008 209.394 24.377 209.159 24.5293C208.925 24.6758 208.734 24.8779 208.588 25.1357C208.447 25.3936 208.342 25.6982 208.271 26.0498C208.207 26.3955 208.175 26.7705 208.175 27.1748ZM221.314 29.8555V25.6191C221.314 25.3145 221.265 25.0537 221.165 24.8369C221.065 24.6143 220.91 24.4414 220.699 24.3184C220.494 24.1953 220.228 24.1338 219.899 24.1338C219.618 24.1338 219.375 24.1836 219.17 24.2832C218.965 24.377 218.807 24.5146 218.695 24.6963C218.584 24.8721 218.528 25.0801 218.528 25.3203H215.997C215.997 24.916 216.091 24.5322 216.278 24.1689C216.466 23.8057 216.738 23.4863 217.096 23.2109C217.453 22.9297 217.878 22.71 218.37 22.5518C218.868 22.3936 219.425 22.3145 220.04 22.3145C220.778 22.3145 221.435 22.4375 222.009 22.6836C222.583 22.9297 223.034 23.2988 223.362 23.791C223.696 24.2832 223.863 24.8984 223.863 25.6367V29.7061C223.863 30.2275 223.896 30.6553 223.96 30.9893C224.024 31.3174 224.118 31.6045 224.241 31.8506V32H221.684C221.561 31.7422 221.467 31.4199 221.402 31.0332C221.344 30.6406 221.314 30.248 221.314 29.8555ZM221.648 26.208L221.666 27.6406H220.251C219.917 27.6406 219.627 27.6787 219.381 27.7549C219.135 27.8311 218.933 27.9395 218.774 28.0801C218.616 28.2148 218.499 28.373 218.423 28.5547C218.353 28.7363 218.317 28.9355 218.317 29.1523C218.317 29.3691 218.367 29.5654 218.467 29.7412C218.566 29.9111 218.71 30.0459 218.897 30.1455C219.085 30.2393 219.305 30.2861 219.557 30.2861C219.938 30.2861 220.269 30.21 220.55 30.0576C220.831 29.9053 221.048 29.7178 221.2 29.4951C221.358 29.2725 221.44 29.0615 221.446 28.8623L222.114 29.9346C222.021 30.1748 221.892 30.4238 221.728 30.6816C221.569 30.9395 221.367 31.1826 221.121 31.4111C220.875 31.6338 220.579 31.8184 220.233 31.9648C219.888 32.1055 219.478 32.1758 219.003 32.1758C218.399 32.1758 217.852 32.0557 217.359 31.8154C216.873 31.5693 216.486 31.2324 216.199 30.8047C215.918 30.3711 215.777 29.8789 215.777 29.3281C215.777 28.8301 215.871 28.3877 216.059 28.001C216.246 27.6143 216.521 27.2891 216.885 27.0254C217.254 26.7559 217.714 26.5537 218.265 26.4189C218.815 26.2783 219.454 26.208 220.181 26.208H221.648ZM228.495 30.9277L231.018 22.4902H233.733L229.91 33.4326C229.828 33.6729 229.717 33.9307 229.576 34.2061C229.441 34.4814 229.257 34.7422 229.022 34.9883C228.794 35.2402 228.504 35.4453 228.152 35.6035C227.807 35.7617 227.382 35.8408 226.878 35.8408C226.638 35.8408 226.441 35.8262 226.289 35.7969C226.137 35.7676 225.955 35.7266 225.744 35.6738V33.8193C225.809 33.8193 225.876 33.8193 225.946 33.8193C226.017 33.8252 226.084 33.8281 226.148 33.8281C226.482 33.8281 226.755 33.79 226.966 33.7139C227.177 33.6377 227.347 33.5205 227.476 33.3623C227.604 33.21 227.707 33.0107 227.783 32.7646L228.495 30.9277ZM227.44 22.4902L229.506 29.3809L229.866 32.0615L228.144 32.2461L224.725 22.4902H227.44Z" fill="white"/>
</svg>
