<svg width="198" height="51" viewBox="0 0 198 51" fill="none" xmlns="http://www.w3.org/2000/svg">
<path d="M0 25.5C0 11.4167 11.4167 0 25.5 0H172.5C186.583 0 198 11.4167 198 25.5V25.5C198 39.5833 186.583 51 172.5 51H25.5C11.4167 51 0 39.5833 0 25.5V25.5Z" fill="#232323"/>
<path d="M38.8477 27.7549H41.4756C41.4229 28.6162 41.1855 29.3809 40.7637 30.0488C40.3477 30.7168 39.7646 31.2383 39.0146 31.6133C38.2705 31.9883 37.374 32.1758 36.3252 32.1758C35.5049 32.1758 34.7695 32.0352 34.1191 31.7539C33.4688 31.4668 32.9121 31.0566 32.4492 30.5234C31.9922 29.9902 31.6436 29.3457 31.4033 28.5898C31.1631 27.834 31.043 26.9873 31.043 26.0498V25.1621C31.043 24.2246 31.166 23.3779 31.4121 22.6221C31.6641 21.8604 32.0215 21.2129 32.4844 20.6797C32.9531 20.1465 33.5127 19.7363 34.1631 19.4492C34.8135 19.1621 35.54 19.0186 36.3428 19.0186C37.4092 19.0186 38.3086 19.2119 39.041 19.5986C39.7793 19.9854 40.3506 20.5186 40.7549 21.1982C41.165 21.8779 41.4111 22.6514 41.4932 23.5186H38.8564C38.8271 23.0029 38.7246 22.5664 38.5488 22.209C38.373 21.8457 38.1064 21.5732 37.749 21.3916C37.3975 21.2041 36.9287 21.1104 36.3428 21.1104C35.9033 21.1104 35.5195 21.1924 35.1914 21.3564C34.8633 21.5205 34.5879 21.7695 34.3652 22.1035C34.1426 22.4375 33.9756 22.8594 33.8643 23.3691C33.7588 23.873 33.7061 24.4648 33.7061 25.1445V26.0498C33.7061 26.7119 33.7559 27.2949 33.8555 27.7988C33.9551 28.2969 34.1074 28.7188 34.3125 29.0645C34.5234 29.4043 34.793 29.6621 35.1211 29.8379C35.4551 30.0078 35.8564 30.0928 36.3252 30.0928C36.876 30.0928 37.3301 30.0049 37.6875 29.8291C38.0449 29.6533 38.3174 29.3926 38.5049 29.0469C38.6982 28.7012 38.8125 28.2705 38.8477 27.7549ZM42.6445 27.3418V27.1572C42.6445 26.46 42.7441 25.8184 42.9434 25.2324C43.1426 24.6406 43.4326 24.1279 43.8135 23.6943C44.1943 23.2607 44.6631 22.9238 45.2197 22.6836C45.7764 22.4375 46.415 22.3145 47.1357 22.3145C47.8564 22.3145 48.498 22.4375 49.0605 22.6836C49.623 22.9238 50.0947 23.2607 50.4756 23.6943C50.8623 24.1279 51.1553 24.6406 51.3545 25.2324C51.5537 25.8184 51.6533 26.46 51.6533 27.1572V27.3418C51.6533 28.0332 51.5537 28.6748 51.3545 29.2666C51.1553 29.8525 50.8623 30.3652 50.4756 30.8047C50.0947 31.2383 49.626 31.5752 49.0693 31.8154C48.5127 32.0557 47.874 32.1758 47.1533 32.1758C46.4326 32.1758 45.791 32.0557 45.2285 31.8154C44.6719 31.5752 44.2002 31.2383 43.8135 30.8047C43.4326 30.3652 43.1426 29.8525 42.9434 29.2666C42.7441 28.6748 42.6445 28.0332 42.6445 27.3418ZM45.1758 27.1572V27.3418C45.1758 27.7402 45.2109 28.1123 45.2812 28.458C45.3516 28.8037 45.4629 29.1084 45.6152 29.3721C45.7734 29.6299 45.9785 29.832 46.2305 29.9785C46.4824 30.125 46.79 30.1982 47.1533 30.1982C47.5049 30.1982 47.8066 30.125 48.0586 29.9785C48.3105 29.832 48.5127 29.6299 48.665 29.3721C48.8174 29.1084 48.9287 28.8037 48.999 28.458C49.0752 28.1123 49.1133 27.7402 49.1133 27.3418V27.1572C49.1133 26.7705 49.0752 26.4072 48.999 26.0674C48.9287 25.7217 48.8145 25.417 48.6562 25.1533C48.5039 24.8838 48.3018 24.6729 48.0498 24.5205C47.7979 24.3682 47.4932 24.292 47.1357 24.292C46.7783 24.292 46.4736 24.3682 46.2217 24.5205C45.9756 24.6729 45.7734 24.8838 45.6152 25.1533C45.4629 25.417 45.3516 25.7217 45.2812 26.0674C45.2109 26.4072 45.1758 26.7705 45.1758 27.1572ZM55.7402 24.459V32H53.2002V22.4902H55.582L55.7402 24.459ZM55.3887 26.9111H54.6855C54.6855 26.249 54.7646 25.6396 54.9229 25.083C55.0869 24.5205 55.3242 24.0342 55.6348 23.624C55.9512 23.208 56.3408 22.8857 56.8037 22.6572C57.2666 22.4287 57.8027 22.3145 58.4121 22.3145C58.834 22.3145 59.2207 22.3789 59.5723 22.5078C59.9238 22.6309 60.2256 22.8271 60.4775 23.0967C60.7354 23.3604 60.9346 23.7061 61.0752 24.1338C61.2158 24.5557 61.2861 25.0625 61.2861 25.6543V32H58.7549V25.9355C58.7549 25.502 58.6963 25.168 58.5791 24.9336C58.4619 24.6992 58.2949 24.5352 58.0781 24.4414C57.8672 24.3477 57.6123 24.3008 57.3135 24.3008C56.9854 24.3008 56.6982 24.3682 56.4521 24.5029C56.2119 24.6377 56.0127 24.8252 55.8545 25.0654C55.6963 25.2998 55.5791 25.5752 55.5029 25.8916C55.4268 26.208 55.3887 26.5479 55.3887 26.9111ZM61.0488 26.6211L60.1436 26.7354C60.1436 26.1143 60.2197 25.5371 60.3721 25.0039C60.5303 24.4707 60.7617 24.002 61.0664 23.5977C61.377 23.1934 61.7607 22.8799 62.2178 22.6572C62.6748 22.4287 63.2021 22.3145 63.7998 22.3145C64.2568 22.3145 64.6729 22.3818 65.0479 22.5166C65.4229 22.6455 65.7422 22.8535 66.0059 23.1406C66.2754 23.4219 66.4805 23.791 66.6211 24.248C66.7676 24.7051 66.8408 25.2646 66.8408 25.9268V32H64.3008V25.9268C64.3008 25.4873 64.2422 25.1533 64.125 24.9248C64.0137 24.6904 63.8496 24.5293 63.6328 24.4414C63.4219 24.3477 63.1699 24.3008 62.877 24.3008C62.5723 24.3008 62.3057 24.3623 62.0771 24.4854C61.8486 24.6025 61.6582 24.7666 61.5059 24.9775C61.3535 25.1885 61.2393 25.4346 61.1631 25.7158C61.0869 25.9912 61.0488 26.293 61.0488 26.6211ZM71.332 24.3184V35.6562H68.8008V22.4902H71.1475L71.332 24.3184ZM77.3525 27.1396V27.3242C77.3525 28.0156 77.2705 28.6572 77.1064 29.249C76.9482 29.8408 76.7139 30.3564 76.4033 30.7959C76.0928 31.2295 75.7061 31.5693 75.2432 31.8154C74.7861 32.0557 74.2588 32.1758 73.6611 32.1758C73.0811 32.1758 72.5771 32.0586 72.1494 31.8242C71.7217 31.5898 71.3613 31.2617 71.0684 30.8398C70.7812 30.4121 70.5498 29.917 70.374 29.3545C70.1982 28.792 70.0635 28.1885 69.9697 27.5439V27.0605C70.0635 26.3691 70.1982 25.7363 70.374 25.1621C70.5498 24.582 70.7812 24.0811 71.0684 23.6592C71.3613 23.2314 71.7188 22.9004 72.1406 22.666C72.5684 22.4316 73.0693 22.3145 73.6436 22.3145C74.2471 22.3145 74.7773 22.4287 75.2344 22.6572C75.6973 22.8857 76.084 23.2139 76.3945 23.6416C76.7109 24.0693 76.9482 24.5791 77.1064 25.1709C77.2705 25.7627 77.3525 26.4189 77.3525 27.1396ZM74.8125 27.3242V27.1396C74.8125 26.7354 74.7773 26.3633 74.707 26.0234C74.6426 25.6777 74.5371 25.376 74.3906 25.1182C74.25 24.8604 74.0625 24.6611 73.8281 24.5205C73.5996 24.374 73.3213 24.3008 72.9932 24.3008C72.6475 24.3008 72.3516 24.3564 72.1055 24.4678C71.8652 24.5791 71.6689 24.7402 71.5166 24.9512C71.3643 25.1621 71.25 25.4141 71.1738 25.707C71.0977 26 71.0508 26.3311 71.0332 26.7002V27.9219C71.0625 28.3555 71.1445 28.7451 71.2793 29.0908C71.4141 29.4307 71.6221 29.7002 71.9033 29.8994C72.1846 30.0986 72.5537 30.1982 73.0107 30.1982C73.3447 30.1982 73.626 30.125 73.8545 29.9785C74.083 29.8262 74.2676 29.6182 74.4082 29.3545C74.5547 29.0908 74.6572 28.7861 74.7158 28.4404C74.7803 28.0947 74.8125 27.7227 74.8125 27.3242ZM81.5977 18.5V32H79.0576V18.5H81.5977ZM88.0664 32.1758C87.3281 32.1758 86.666 32.0586 86.0801 31.8242C85.4941 31.584 84.9961 31.2529 84.5859 30.8311C84.1816 30.4092 83.8711 29.9199 83.6543 29.3633C83.4375 28.8008 83.3291 28.2031 83.3291 27.5703V27.2188C83.3291 26.498 83.4316 25.8389 83.6367 25.2412C83.8418 24.6436 84.1348 24.125 84.5156 23.6855C84.9023 23.2461 85.3711 22.9092 85.9219 22.6748C86.4727 22.4346 87.0938 22.3145 87.7852 22.3145C88.459 22.3145 89.0566 22.4258 89.5781 22.6484C90.0996 22.8711 90.5361 23.1875 90.8877 23.5977C91.2451 24.0078 91.5146 24.5 91.6963 25.0742C91.8779 25.6426 91.9688 26.2754 91.9688 26.9727V28.0273H84.4102V26.3398H89.4814V26.1465C89.4814 25.7949 89.417 25.4814 89.2881 25.2061C89.165 24.9248 88.9775 24.7021 88.7256 24.5381C88.4736 24.374 88.1514 24.292 87.7588 24.292C87.4248 24.292 87.1377 24.3652 86.8975 24.5117C86.6572 24.6582 86.4609 24.8633 86.3086 25.127C86.1621 25.3906 86.0508 25.7012 85.9746 26.0586C85.9043 26.4102 85.8691 26.7969 85.8691 27.2188V27.5703C85.8691 27.9512 85.9219 28.3027 86.0273 28.625C86.1387 28.9473 86.2939 29.2256 86.4932 29.46C86.6982 29.6943 86.9443 29.876 87.2314 30.0049C87.5244 30.1338 87.8555 30.1982 88.2246 30.1982C88.6816 30.1982 89.1064 30.1104 89.499 29.9346C89.8975 29.7529 90.2402 29.4805 90.5273 29.1172L91.7578 30.4531C91.5586 30.7402 91.2861 31.0156 90.9404 31.2793C90.6006 31.543 90.1904 31.7598 89.71 31.9297C89.2295 32.0938 88.6816 32.1758 88.0664 32.1758ZM98.0684 22.4902V24.2832H92.5312V22.4902H98.0684ZM93.9023 20.1436H96.4336V29.1348C96.4336 29.4102 96.4688 29.6211 96.5391 29.7676C96.6152 29.9141 96.7266 30.0166 96.873 30.0752C97.0195 30.1279 97.2041 30.1543 97.4268 30.1543C97.585 30.1543 97.7256 30.1484 97.8486 30.1367C97.9775 30.1191 98.0859 30.1016 98.1738 30.084L98.1826 31.9473C97.9658 32.0176 97.7314 32.0732 97.4795 32.1143C97.2275 32.1553 96.9492 32.1758 96.6445 32.1758C96.0879 32.1758 95.6016 32.085 95.1855 31.9033C94.7754 31.7158 94.459 31.417 94.2363 31.0068C94.0137 30.5967 93.9023 30.0576 93.9023 29.3896V20.1436ZM103.887 32.1758C103.148 32.1758 102.486 32.0586 101.9 31.8242C101.314 31.584 100.816 31.2529 100.406 30.8311C100.002 30.4092 99.6914 29.9199 99.4746 29.3633C99.2578 28.8008 99.1494 28.2031 99.1494 27.5703V27.2188C99.1494 26.498 99.252 25.8389 99.457 25.2412C99.6621 24.6436 99.9551 24.125 100.336 23.6855C100.723 23.2461 101.191 22.9092 101.742 22.6748C102.293 22.4346 102.914 22.3145 103.605 22.3145C104.279 22.3145 104.877 22.4258 105.398 22.6484C105.92 22.8711 106.356 23.1875 106.708 23.5977C107.065 24.0078 107.335 24.5 107.517 25.0742C107.698 25.6426 107.789 26.2754 107.789 26.9727V28.0273H100.23V26.3398H105.302V26.1465C105.302 25.7949 105.237 25.4814 105.108 25.2061C104.985 24.9248 104.798 24.7021 104.546 24.5381C104.294 24.374 103.972 24.292 103.579 24.292C103.245 24.292 102.958 24.3652 102.718 24.5117C102.478 24.6582 102.281 24.8633 102.129 25.127C101.982 25.3906 101.871 25.7012 101.795 26.0586C101.725 26.4102 101.689 26.7969 101.689 27.2188V27.5703C101.689 27.9512 101.742 28.3027 101.848 28.625C101.959 28.9473 102.114 29.2256 102.313 29.46C102.519 29.6943 102.765 29.876 103.052 30.0049C103.345 30.1338 103.676 30.1982 104.045 30.1982C104.502 30.1982 104.927 30.1104 105.319 29.9346C105.718 29.7529 106.061 29.4805 106.348 29.1172L107.578 30.4531C107.379 30.7402 107.106 31.0156 106.761 31.2793C106.421 31.543 106.011 31.7598 105.53 31.9297C105.05 32.0938 104.502 32.1758 103.887 32.1758ZM122.098 29.9434V32H115.655V29.9434H122.098ZM116.508 19.2031V32H113.871V19.2031H116.508ZM126.123 22.4902V32H123.583V22.4902H126.123ZM123.425 20.0117C123.425 19.6426 123.554 19.3379 123.812 19.0977C124.069 18.8574 124.415 18.7373 124.849 18.7373C125.276 18.7373 125.619 18.8574 125.877 19.0977C126.141 19.3379 126.272 19.6426 126.272 20.0117C126.272 20.3809 126.141 20.6855 125.877 20.9258C125.619 21.166 125.276 21.2861 124.849 21.2861C124.415 21.2861 124.069 21.166 123.812 20.9258C123.554 20.6855 123.425 20.3809 123.425 20.0117ZM133.356 29.3721C133.356 29.1904 133.304 29.0264 133.198 28.8799C133.093 28.7334 132.896 28.5986 132.609 28.4756C132.328 28.3467 131.921 28.2295 131.388 28.124C130.907 28.0186 130.459 27.8867 130.043 27.7285C129.633 27.5645 129.275 27.3682 128.971 27.1396C128.672 26.9111 128.438 26.6416 128.268 26.3311C128.098 26.0146 128.013 25.6543 128.013 25.25C128.013 24.8516 128.098 24.4766 128.268 24.125C128.443 23.7734 128.692 23.4629 129.015 23.1934C129.343 22.918 129.741 22.7041 130.21 22.5518C130.685 22.3936 131.218 22.3145 131.81 22.3145C132.636 22.3145 133.345 22.4463 133.937 22.71C134.534 22.9736 134.991 23.3369 135.308 23.7998C135.63 24.2568 135.791 24.7783 135.791 25.3643H133.26C133.26 25.1182 133.207 24.8984 133.102 24.7051C133.002 24.5059 132.844 24.3506 132.627 24.2393C132.416 24.1221 132.141 24.0635 131.801 24.0635C131.52 24.0635 131.276 24.1133 131.071 24.2129C130.866 24.3066 130.708 24.4355 130.597 24.5996C130.491 24.7578 130.438 24.9336 130.438 25.127C130.438 25.2734 130.468 25.4053 130.526 25.5225C130.591 25.6338 130.693 25.7363 130.834 25.8301C130.975 25.9238 131.156 26.0117 131.379 26.0938C131.607 26.1699 131.889 26.2402 132.223 26.3047C132.908 26.4453 133.521 26.6299 134.06 26.8584C134.599 27.0811 135.026 27.3857 135.343 27.7725C135.659 28.1533 135.817 28.6543 135.817 29.2754C135.817 29.6973 135.724 30.084 135.536 30.4355C135.349 30.7871 135.079 31.0947 134.728 31.3584C134.376 31.6162 133.954 31.8184 133.462 31.9648C132.976 32.1055 132.428 32.1758 131.818 32.1758C130.934 32.1758 130.184 32.0176 129.568 31.7012C128.959 31.3848 128.496 30.9834 128.18 30.4971C127.869 30.0049 127.714 29.501 127.714 28.9854H130.113C130.125 29.3311 130.213 29.6094 130.377 29.8203C130.547 30.0312 130.761 30.1836 131.019 30.2773C131.282 30.3711 131.566 30.418 131.871 30.418C132.199 30.418 132.472 30.374 132.688 30.2861C132.905 30.1924 133.069 30.0693 133.181 29.917C133.298 29.7588 133.356 29.5771 133.356 29.3721ZM142.119 22.4902V24.2832H136.582V22.4902H142.119ZM137.953 20.1436H140.484V29.1348C140.484 29.4102 140.52 29.6211 140.59 29.7676C140.666 29.9141 140.777 30.0166 140.924 30.0752C141.07 30.1279 141.255 30.1543 141.478 30.1543C141.636 30.1543 141.776 30.1484 141.899 30.1367C142.028 30.1191 142.137 30.1016 142.225 30.084L142.233 31.9473C142.017 32.0176 141.782 32.0732 141.53 32.1143C141.278 32.1553 141 32.1758 140.695 32.1758C140.139 32.1758 139.652 32.085 139.236 31.9033C138.826 31.7158 138.51 31.417 138.287 31.0068C138.064 30.5967 137.953 30.0576 137.953 29.3896V20.1436ZM146.232 22.4902V32H143.692V22.4902H146.232ZM143.534 20.0117C143.534 19.6426 143.663 19.3379 143.921 19.0977C144.179 18.8574 144.524 18.7373 144.958 18.7373C145.386 18.7373 145.729 18.8574 145.986 19.0977C146.25 19.3379 146.382 19.6426 146.382 20.0117C146.382 20.3809 146.25 20.6855 145.986 20.9258C145.729 21.166 145.386 21.2861 144.958 21.2861C144.524 21.2861 144.179 21.166 143.921 20.9258C143.663 20.6855 143.534 20.3809 143.534 20.0117ZM150.803 24.5205V32H148.271V22.4902H150.645L150.803 24.5205ZM150.434 26.9111H149.748C149.748 26.208 149.839 25.5752 150.021 25.0127C150.202 24.4443 150.457 23.9609 150.785 23.5625C151.113 23.1582 151.503 22.8506 151.954 22.6396C152.411 22.4229 152.921 22.3145 153.483 22.3145C153.929 22.3145 154.336 22.3789 154.705 22.5078C155.074 22.6367 155.391 22.8418 155.654 23.123C155.924 23.4043 156.129 23.7764 156.27 24.2393C156.416 24.7021 156.489 25.2676 156.489 25.9355V32H153.94V25.9268C153.94 25.5049 153.882 25.1768 153.765 24.9424C153.647 24.708 153.475 24.5439 153.246 24.4502C153.023 24.3506 152.748 24.3008 152.42 24.3008C152.08 24.3008 151.784 24.3682 151.532 24.5029C151.286 24.6377 151.081 24.8252 150.917 25.0654C150.759 25.2998 150.639 25.5752 150.557 25.8916C150.475 26.208 150.434 26.5479 150.434 26.9111ZM164.435 22.4902H166.729V31.6836C166.729 32.5508 166.535 33.2861 166.148 33.8896C165.768 34.499 165.234 34.959 164.549 35.2695C163.863 35.5859 163.066 35.7441 162.158 35.7441C161.76 35.7441 161.338 35.6914 160.893 35.5859C160.453 35.4805 160.031 35.3164 159.627 35.0938C159.229 34.8711 158.895 34.5898 158.625 34.25L159.741 32.7559C160.034 33.0957 160.374 33.3594 160.761 33.5469C161.147 33.7402 161.575 33.8369 162.044 33.8369C162.501 33.8369 162.888 33.752 163.204 33.582C163.521 33.418 163.764 33.1748 163.934 32.8525C164.104 32.5361 164.188 32.1523 164.188 31.7012V24.6875L164.435 22.4902ZM158.036 27.3594V27.1748C158.036 26.4482 158.124 25.7891 158.3 25.1973C158.481 24.5996 158.736 24.0869 159.064 23.6592C159.398 23.2314 159.803 22.9004 160.277 22.666C160.752 22.4316 161.288 22.3145 161.886 22.3145C162.519 22.3145 163.049 22.4316 163.477 22.666C163.904 22.9004 164.256 23.2344 164.531 23.668C164.807 24.0957 165.021 24.6025 165.173 25.1885C165.331 25.7686 165.454 26.4043 165.542 27.0957V27.5C165.454 28.1621 165.322 28.7773 165.146 29.3457C164.971 29.9141 164.739 30.4121 164.452 30.8398C164.165 31.2617 163.808 31.5898 163.38 31.8242C162.958 32.0586 162.454 32.1758 161.868 32.1758C161.282 32.1758 160.752 32.0557 160.277 31.8154C159.809 31.5752 159.407 31.2383 159.073 30.8047C158.739 30.3711 158.481 29.8613 158.3 29.2754C158.124 28.6895 158.036 28.0508 158.036 27.3594ZM160.567 27.1748V27.3594C160.567 27.752 160.605 28.1182 160.682 28.458C160.758 28.7979 160.875 29.0996 161.033 29.3633C161.197 29.6211 161.399 29.8232 161.64 29.9697C161.886 30.1104 162.176 30.1807 162.51 30.1807C162.973 30.1807 163.351 30.084 163.644 29.8906C163.937 29.6914 164.156 29.4189 164.303 29.0732C164.449 28.7275 164.534 28.3291 164.558 27.8779V26.7266C164.546 26.3574 164.496 26.0264 164.408 25.7334C164.32 25.4346 164.197 25.1797 164.039 24.9688C163.881 24.7578 163.676 24.5938 163.424 24.4766C163.172 24.3594 162.873 24.3008 162.527 24.3008C162.193 24.3008 161.903 24.377 161.657 24.5293C161.417 24.6758 161.215 24.8779 161.051 25.1357C160.893 25.3936 160.772 25.6982 160.69 26.0498C160.608 26.3955 160.567 26.7705 160.567 27.1748Z" fill="white"/>
</svg>
