<svg width="111" height="51" viewBox="0 0 111 51" fill="none" xmlns="http://www.w3.org/2000/svg">
<path d="M49.752 29.9434V32H42.9404V29.9434H49.752ZM43.8018 19.2031V32H41.165V19.2031H43.8018ZM48.8643 24.415V26.4189H42.9404V24.415H48.8643ZM49.7432 19.2031V21.2686H42.9404V19.2031H49.7432ZM56.5723 29.9258V18.5H59.1211V32H56.8271L56.5723 29.9258ZM50.5605 27.3594V27.1748C50.5605 26.4482 50.6426 25.7891 50.8066 25.1973C50.9707 24.5996 51.2109 24.0869 51.5273 23.6592C51.8438 23.2314 52.2334 22.9004 52.6963 22.666C53.1592 22.4316 53.6865 22.3145 54.2783 22.3145C54.835 22.3145 55.3213 22.4316 55.7373 22.666C56.1592 22.9004 56.5166 23.2344 56.8096 23.668C57.1084 24.0957 57.3486 24.6025 57.5303 25.1885C57.7119 25.7686 57.8438 26.4043 57.9258 27.0957V27.5C57.8438 28.1621 57.7119 28.7773 57.5303 29.3457C57.3486 29.9141 57.1084 30.4121 56.8096 30.8398C56.5166 31.2617 56.1592 31.5898 55.7373 31.8242C55.3154 32.0586 54.8232 32.1758 54.2607 32.1758C53.6689 32.1758 53.1416 32.0557 52.6787 31.8154C52.2217 31.5752 51.835 31.2383 51.5186 30.8047C51.208 30.3711 50.9707 29.8613 50.8066 29.2754C50.6426 28.6895 50.5605 28.0508 50.5605 27.3594ZM53.0918 27.1748V27.3594C53.0918 27.752 53.1211 28.1182 53.1797 28.458C53.2441 28.7979 53.3467 29.0996 53.4873 29.3633C53.6338 29.6211 53.8213 29.8232 54.0498 29.9697C54.2842 30.1104 54.5684 30.1807 54.9023 30.1807C55.3359 30.1807 55.6934 30.084 55.9746 29.8906C56.2559 29.6914 56.4697 29.4189 56.6162 29.0732C56.7686 28.7275 56.8564 28.3291 56.8799 27.8779V26.7266C56.8623 26.3574 56.8096 26.0264 56.7217 25.7334C56.6396 25.4346 56.5166 25.1797 56.3525 24.9688C56.1943 24.7578 55.9951 24.5938 55.7549 24.4766C55.5205 24.3594 55.2422 24.3008 54.9199 24.3008C54.5918 24.3008 54.3105 24.377 54.0762 24.5293C53.8418 24.6758 53.6514 24.8779 53.5049 25.1357C53.3643 25.3936 53.2588 25.6982 53.1885 26.0498C53.124 26.3955 53.0918 26.7705 53.0918 27.1748ZM63.7705 22.4902V32H61.2305V22.4902H63.7705ZM61.0723 20.0117C61.0723 19.6426 61.2012 19.3379 61.459 19.0977C61.7168 18.8574 62.0625 18.7373 62.4961 18.7373C62.9238 18.7373 63.2666 18.8574 63.5244 19.0977C63.7881 19.3379 63.9199 19.6426 63.9199 20.0117C63.9199 20.3809 63.7881 20.6855 63.5244 20.9258C63.2666 21.166 62.9238 21.2861 62.4961 21.2861C62.0625 21.2861 61.7168 21.166 61.459 20.9258C61.2012 20.6855 61.0723 20.3809 61.0723 20.0117ZM70.5205 22.4902V24.2832H64.9834V22.4902H70.5205ZM66.3545 20.1436H68.8857V29.1348C68.8857 29.4102 68.9209 29.6211 68.9912 29.7676C69.0674 29.9141 69.1787 30.0166 69.3252 30.0752C69.4717 30.1279 69.6562 30.1543 69.8789 30.1543C70.0371 30.1543 70.1777 30.1484 70.3008 30.1367C70.4297 30.1191 70.5381 30.1016 70.626 30.084L70.6348 31.9473C70.418 32.0176 70.1836 32.0732 69.9316 32.1143C69.6797 32.1553 69.4014 32.1758 69.0967 32.1758C68.54 32.1758 68.0537 32.085 67.6377 31.9033C67.2275 31.7158 66.9111 31.417 66.6885 31.0068C66.4658 30.5967 66.3545 30.0576 66.3545 29.3896V20.1436Z" fill="#232323"/>
<path d="M25.5 2H85.5V-2H25.5V2ZM85.5 49H25.5V53H85.5V49ZM25.5 49C12.5213 49 2 38.4787 2 25.5H-2C-2 40.6878 10.3122 53 25.5 53V49ZM109 25.5C109 38.4787 98.4787 49 85.5 49V53C100.688 53 113 40.6878 113 25.5H109ZM85.5 2C98.4787 2 109 12.5213 109 25.5H113C113 10.3122 100.688 -2 85.5 -2V2ZM25.5 -2C10.3122 -2 -2 10.3122 -2 25.5H2C2 12.5213 12.5213 2 25.5 2V-2Z" fill="#232323"/>
</svg>
