<svg width="253" height="41" viewBox="0 0 253 41" fill="none" xmlns="http://www.w3.org/2000/svg">
<rect width="253" height="41" rx="5" fill="black"/>
<path d="M116.199 23.0801V24H111.934V23.0801H116.199ZM112.156 15.4688V24H111.025V15.4688H112.156ZM117.043 20.9004V20.7656C117.043 20.3086 117.109 19.8848 117.242 19.4941C117.375 19.0996 117.566 18.7578 117.816 18.4688C118.066 18.1758 118.369 17.9492 118.725 17.7891C119.08 17.625 119.479 17.543 119.92 17.543C120.365 17.543 120.766 17.625 121.121 17.7891C121.48 17.9492 121.785 18.1758 122.035 18.4688C122.289 18.7578 122.482 19.0996 122.615 19.4941C122.748 19.8848 122.814 20.3086 122.814 20.7656V20.9004C122.814 21.3574 122.748 21.7812 122.615 22.1719C122.482 22.5625 122.289 22.9043 122.035 23.1973C121.785 23.4863 121.482 23.7129 121.127 23.877C120.775 24.0371 120.377 24.1172 119.932 24.1172C119.486 24.1172 119.086 24.0371 118.73 23.877C118.375 23.7129 118.07 23.4863 117.816 23.1973C117.566 22.9043 117.375 22.5625 117.242 22.1719C117.109 21.7812 117.043 21.3574 117.043 20.9004ZM118.127 20.7656V20.9004C118.127 21.2168 118.164 21.5156 118.238 21.7969C118.312 22.0742 118.424 22.3203 118.572 22.5352C118.725 22.75 118.914 22.9199 119.141 23.0449C119.367 23.166 119.631 23.2266 119.932 23.2266C120.229 23.2266 120.488 23.166 120.711 23.0449C120.938 22.9199 121.125 22.75 121.273 22.5352C121.422 22.3203 121.533 22.0742 121.607 21.7969C121.686 21.5156 121.725 21.2168 121.725 20.9004V20.7656C121.725 20.4531 121.686 20.1582 121.607 19.8809C121.533 19.5996 121.42 19.3516 121.268 19.1367C121.119 18.918 120.932 18.7461 120.705 18.6211C120.482 18.4961 120.221 18.4336 119.92 18.4336C119.623 18.4336 119.361 18.4961 119.135 18.6211C118.912 18.7461 118.725 18.918 118.572 19.1367C118.424 19.3516 118.312 19.5996 118.238 19.8809C118.164 20.1582 118.127 20.4531 118.127 20.7656ZM128.281 17.6602H129.266V23.8652C129.266 24.4238 129.152 24.9004 128.926 25.2949C128.699 25.6895 128.383 25.9883 127.977 26.1914C127.574 26.3984 127.109 26.502 126.582 26.502C126.363 26.502 126.105 26.4668 125.809 26.3965C125.516 26.3301 125.227 26.2148 124.941 26.0508C124.66 25.8906 124.424 25.6738 124.232 25.4004L124.801 24.7559C125.066 25.0762 125.344 25.2988 125.633 25.4238C125.926 25.5488 126.215 25.6113 126.5 25.6113C126.844 25.6113 127.141 25.5469 127.391 25.418C127.641 25.2891 127.834 25.0977 127.971 24.8438C128.111 24.5938 128.182 24.2852 128.182 23.918V19.0547L128.281 17.6602ZM123.916 20.9004V20.7773C123.916 20.293 123.973 19.8535 124.086 19.459C124.203 19.0605 124.369 18.7188 124.584 18.4336C124.803 18.1484 125.066 17.9297 125.375 17.7773C125.684 17.6211 126.031 17.543 126.418 17.543C126.816 17.543 127.164 17.6133 127.461 17.7539C127.762 17.8906 128.016 18.0918 128.223 18.3574C128.434 18.6191 128.6 18.9355 128.721 19.3066C128.842 19.6777 128.926 20.0977 128.973 20.5664V21.1055C128.93 21.5703 128.846 21.9883 128.721 22.3594C128.6 22.7305 128.434 23.0469 128.223 23.3086C128.016 23.5703 127.762 23.7715 127.461 23.9121C127.16 24.0488 126.809 24.1172 126.406 24.1172C126.027 24.1172 125.684 24.0371 125.375 23.877C125.07 23.7168 124.809 23.4922 124.59 23.2031C124.371 22.9141 124.203 22.5742 124.086 22.1836C123.973 21.7891 123.916 21.3613 123.916 20.9004ZM125 20.7773V20.9004C125 21.2168 125.031 21.5137 125.094 21.791C125.16 22.0684 125.26 22.3125 125.393 22.5234C125.529 22.7344 125.703 22.9004 125.914 23.0215C126.125 23.1387 126.377 23.1973 126.67 23.1973C127.029 23.1973 127.326 23.1211 127.561 22.9688C127.795 22.8164 127.98 22.6152 128.117 22.3652C128.258 22.1152 128.367 21.8438 128.445 21.5508V20.1387C128.402 19.9238 128.336 19.7168 128.246 19.5176C128.16 19.3145 128.047 19.1348 127.906 18.9785C127.77 18.8184 127.6 18.6914 127.396 18.5977C127.193 18.5039 126.955 18.457 126.682 18.457C126.385 18.457 126.129 18.5195 125.914 18.6445C125.703 18.7656 125.529 18.9336 125.393 19.1484C125.26 19.3594 125.16 19.6055 125.094 19.8867C125.031 20.1641 125 20.4609 125 20.7773ZM135.266 15.4688V24H134.135V15.4688H135.266ZM138.242 19.0137V24H137.158V17.6602H138.184L138.242 19.0137ZM137.984 20.5898L137.533 20.5723C137.537 20.1387 137.602 19.7383 137.727 19.3711C137.852 19 138.027 18.6777 138.254 18.4043C138.48 18.1309 138.75 17.9199 139.062 17.7715C139.379 17.6191 139.729 17.543 140.111 17.543C140.424 17.543 140.705 17.5859 140.955 17.6719C141.205 17.7539 141.418 17.8867 141.594 18.0703C141.773 18.2539 141.91 18.4922 142.004 18.7852C142.098 19.0742 142.145 19.4277 142.145 19.8457V24H141.055V19.834C141.055 19.502 141.006 19.2363 140.908 19.0371C140.811 18.834 140.668 18.6875 140.48 18.5977C140.293 18.5039 140.062 18.457 139.789 18.457C139.52 18.457 139.273 18.5137 139.051 18.627C138.832 18.7402 138.643 18.8965 138.482 19.0957C138.326 19.2949 138.203 19.5234 138.113 19.7812C138.027 20.0352 137.984 20.3047 137.984 20.5898Z" fill="white"/>
</svg>
