<svg width="60" height="56" viewBox="0 0 60 56" fill="none" xmlns="http://www.w3.org/2000/svg">
<path d="M0 0H32C47.464 0 60 12.536 60 28V28C60 43.464 47.464 56 32 56H0V0Z" fill="#262626"/>
<path d="M22.9593 37.6667C25.4913 37.6661 27.9503 36.8244 29.9448 35.2753L36.2157 41.503L38.2328 39.4998L31.9619 33.2722C33.5225 31.2912 34.3706 28.8485 34.3712 26.3333C34.3712 20.0844 29.2516 15 22.9593 15C16.667 15 11.5474 20.0844 11.5474 26.3333C11.5474 32.5822 16.667 37.6667 22.9593 37.6667ZM22.9593 17.8333C27.6796 17.8333 31.5183 21.6456 31.5183 26.3333C31.5183 31.0211 27.6796 34.8333 22.9593 34.8333C18.239 34.8333 14.4003 31.0211 14.4003 26.3333C14.4003 21.6456 18.239 17.8333 22.9593 17.8333Z" fill="white"/>
</svg>
