<svg width="219" height="62" viewBox="0 0 219 62" fill="none" xmlns="http://www.w3.org/2000/svg">
<path d="M33.2305 42.3711C33.2305 45.6523 33.0547 47.9844 32.7031 49.3672C32.5391 50.0469 32.1289 50.3867 31.4727 50.3867C29.7383 50.3867 27.1367 50.2812 23.668 50.0703C20.1992 49.8828 17.5977 49.7891 15.8633 49.7891C14.2227 49.7891 11.7734 49.8242 8.51562 49.8945C5.25781 49.9648 2.80859 50 1.16797 50C0.582031 50 0.289062 49.707 0.289062 49.1211C0.289062 46.5664 0.371094 42.7109 0.535156 37.5547C0.722656 32.3984 0.816406 28.5312 0.816406 25.9531C0.816406 23.2344 0.6875 19.168 0.429688 13.7539C0.195312 8.31641 0.078125 4.23828 0.078125 1.51953C0.078125 1.00391 0.371094 0.746094 0.957031 0.746094C1.37891 0.746094 2.02344 0.78125 2.89062 0.851562C3.75781 0.921875 4.41406 0.957031 4.85938 0.957031C5.28125 0.957031 5.9375 0.921875 6.82812 0.851562C7.71875 0.78125 8.375 0.746094 8.79688 0.746094C9.35938 0.746094 9.64062 0.96875 9.64062 1.41406C9.64062 3.89844 9.54688 7.63672 9.35938 12.6289C9.17188 17.6211 9.07812 21.3711 9.07812 23.8789C9.07812 25.0977 9.07812 26.9492 9.07812 29.4336C9.05469 31.918 9.04297 33.7695 9.04297 34.9883C9.04297 40.1914 9.25391 42.793 9.67578 42.793C18.3242 42.793 24.8516 42.582 29.2578 42.1602C29.4688 42.1367 30.0078 42.0547 30.875 41.9141C31.5781 41.7734 32.1172 41.7031 32.4922 41.7031C32.9844 41.7031 33.2305 41.9258 33.2305 42.3711Z" fill="#232323"/>
<path d="M69.125 32.8789C69.125 37.7773 67.5195 41.9609 64.3086 45.4297C61.0273 49.0156 56.9609 50.8086 52.1094 50.8086C47.2344 50.8086 43.1562 49.0273 39.875 45.4648C36.6641 42.0195 35.0586 37.8477 35.0586 32.9492C35.0586 28.0508 36.6641 23.8789 39.875 20.4336C43.1797 16.918 47.2578 15.1602 52.1094 15.1602C56.9375 15.1602 60.9922 16.918 64.2734 20.4336C67.5078 23.8555 69.125 28.0039 69.125 32.8789ZM61.707 32.9492C61.707 30.0898 60.8281 27.6523 59.0703 25.6367C57.2422 23.5039 54.9219 22.4375 52.1094 22.4375C49.2969 22.4375 46.9648 23.4922 45.1133 25.6016C43.3555 27.6406 42.4766 30.0898 42.4766 32.9492C42.4766 35.7617 43.3672 38.1992 45.1484 40.2617C47.0234 42.4414 49.3438 43.5312 52.1094 43.5312C54.8984 43.5312 57.2188 42.4414 59.0703 40.2617C60.8281 38.1992 61.707 35.7617 61.707 32.9492Z" fill="#232323"/>
<path d="M98.6562 18.1133C98.6562 18.6289 98.3867 19.7773 97.8477 21.5586C97.3086 23.3398 96.9336 24.2305 96.7227 24.2305C95.668 23.7617 94.6016 23.293 93.5234 22.8242C92.4688 22.3555 91.3086 22.1211 90.043 22.1211C87.1602 22.1211 84.7578 23.1875 82.8359 25.3203C80.9141 27.4531 79.9531 29.9727 79.9531 32.8789C79.9531 35.7383 80.9141 38.2109 82.8359 40.2969C84.8047 42.4531 87.207 43.5312 90.043 43.5312C91.6133 43.5312 93.1602 43.1445 94.6836 42.3711C96.207 41.5977 96.875 41.2109 96.6875 41.2109C96.9922 41.2109 97.332 42.1953 97.707 44.1641C98.0586 45.9453 98.2344 47.1758 98.2344 47.8555C98.2344 48.582 96.8633 49.2969 94.1211 50C91.8242 50.5859 90.125 50.8789 89.0234 50.8789C84.1953 50.8789 80.1172 49.0742 76.7891 45.4648C73.5312 41.9492 71.9023 37.7539 71.9023 32.8789C71.9023 27.9102 73.4961 23.6914 76.6836 20.2227C79.9648 16.6602 84.0547 14.8789 88.9531 14.8789C92.2344 14.8789 95.2344 15.7109 97.9531 17.375C98.4219 17.6562 98.6562 17.9023 98.6562 18.1133Z" fill="#232323"/>
<path d="M137.258 18.1836C137.258 18.2773 137.223 18.4883 137.152 18.8164C136.238 24.1836 135.781 28.8125 135.781 32.7031C135.781 32.9375 136.074 38.1992 136.66 48.4883L136.695 48.9805C136.719 49.6602 136.402 50 135.746 50C135.113 50 134.141 50.0703 132.828 50.2109C131.539 50.375 130.578 50.457 129.945 50.457C129.5 50.457 129.16 49.6367 128.926 47.9961C128.691 46.3555 128.469 45.5352 128.258 45.5352C128.117 45.5352 127.484 45.9922 126.359 46.9062C124.977 48.0312 123.688 48.8867 122.492 49.4727C120.641 50.4102 118.789 50.8789 116.938 50.8789C112.391 50.8789 108.559 49.0625 105.441 45.4297C102.488 41.9609 101.012 37.918 101.012 33.3008C101.012 28.0977 102.5 23.7969 105.477 20.3984C108.594 16.8594 112.695 15.0898 117.781 15.0898C121.367 15.0898 124.496 16.332 127.168 18.8164C127.566 19.2852 128.188 19.9648 129.031 20.8555C129.102 20.9258 129.172 20.9609 129.242 20.9609C129.383 20.9609 129.582 20.2227 129.84 18.7461C130.098 17.2695 130.426 16.5312 130.824 16.5312C131.457 16.5312 132.641 16.707 134.375 17.0586C136.297 17.4805 137.258 17.8555 137.258 18.1836ZM128.293 32.8789C128.293 29.9961 127.438 27.5234 125.727 25.4609C123.922 23.2344 121.613 22.1211 118.801 22.1211C115.988 22.1211 113.645 23.2227 111.77 25.4258C109.965 27.5352 109.062 30.0195 109.062 32.8789C109.062 35.7148 109.965 38.1758 111.77 40.2617C113.645 42.4414 115.988 43.5312 118.801 43.5312C121.543 43.5312 123.84 42.418 125.691 40.1914C127.426 38.1055 128.293 35.668 128.293 32.8789Z" fill="#232323"/>
<path d="M151.918 1.23828L151.883 1.69531C151.367 10.4141 151.109 17.9023 151.109 24.1602C151.109 26.9492 151.156 31.1328 151.25 36.7109C151.344 42.2656 151.391 46.4258 151.391 49.1914C151.391 49.7305 151.203 50 150.828 50H144.113C143.691 50 143.48 49.7305 143.48 49.1914C143.48 46.4258 143.504 42.2656 143.551 36.7109C143.598 31.1328 143.621 26.9492 143.621 24.1602C143.621 21.6289 143.492 17.832 143.234 12.7695C143 7.68359 142.883 3.88672 142.883 1.37891C142.883 0.910156 143.129 0.675781 143.621 0.675781C144.043 0.675781 144.676 0.710938 145.52 0.78125C146.363 0.851562 146.996 0.886719 147.418 0.886719C147.863 0.886719 148.52 0.851562 149.387 0.78125C150.254 0.710938 150.898 0.675781 151.32 0.675781C151.742 0.675781 151.941 0.863281 151.918 1.23828Z" fill="#232323"/>
<path d="M167.809 1.23828L167.773 1.69531C167.258 10.4141 167 17.9023 167 24.1602C167 26.9492 167.047 31.1328 167.141 36.7109C167.234 42.2656 167.281 46.4258 167.281 49.1914C167.281 49.7305 167.094 50 166.719 50H160.004C159.582 50 159.371 49.7305 159.371 49.1914C159.371 46.4258 159.395 42.2656 159.441 36.7109C159.488 31.1328 159.512 26.9492 159.512 24.1602C159.512 21.6289 159.383 17.832 159.125 12.7695C158.891 7.68359 158.773 3.88672 158.773 1.37891C158.773 0.910156 159.02 0.675781 159.512 0.675781C159.934 0.675781 160.566 0.710938 161.41 0.78125C162.254 0.851562 162.887 0.886719 163.309 0.886719C163.754 0.886719 164.41 0.851562 165.277 0.78125C166.145 0.710938 166.789 0.675781 167.211 0.675781C167.633 0.675781 167.832 0.863281 167.809 1.23828Z" fill="#232323"/>
<path d="M204.406 25.5312C204.406 29.4922 204.289 31.8828 204.055 32.7031C203.75 33.7578 200.844 38.3633 195.336 46.5195C189.852 54.6523 186.594 59.1992 185.562 60.1602C184.625 61.0039 181.602 61.4258 176.492 61.4258C175.883 61.4258 175.484 61.3555 175.297 61.2148C175.133 61.0977 174.734 60.2539 174.102 58.6836C173.492 57.1133 173.188 56.1758 173.188 55.8711C173.188 55.3555 173.809 55.0977 175.051 55.0977C177.676 55.0977 179.609 54.7227 180.852 53.9727C181.273 53.7148 181.906 52.9062 182.75 51.5469C183.617 50.1875 184.051 49.2734 184.051 48.8047C184.051 48.1719 182.352 45.6992 178.953 41.3867C175.367 36.8164 173.363 33.9219 172.941 32.7031C172.613 31.7422 172.449 29.4453 172.449 25.8125C172.449 24.9219 172.461 23.5859 172.484 21.8047C172.508 20 172.52 18.6406 172.52 17.7266C172.52 17.2109 172.801 16.9531 173.363 16.9531C174.113 16.9531 175.215 17 176.668 17.0938C178.145 17.1875 179.258 17.2344 180.008 17.2344C180.383 17.2344 180.57 17.4805 180.57 17.9727C180.57 18.6289 180.535 19.6133 180.465 20.9258C180.395 22.2383 180.359 23.2227 180.359 23.8789C180.359 26.7383 180.453 28.8711 180.641 30.2773C180.781 31.168 182.059 33.3828 184.473 36.9219C186.887 40.4609 188.375 42.2305 188.938 42.2305C189.336 42.2305 190.602 40.4961 192.734 37.0273C194.867 33.5352 196.004 31.3789 196.145 30.5586C196.332 29.3867 196.426 27.2539 196.426 24.1602C196.426 23.4805 196.355 22.4844 196.215 21.1719C196.074 19.8359 196.004 18.8398 196.004 18.1836C196.004 17.5977 196.191 17.3047 196.566 17.3047C197.316 17.3047 198.441 17.2578 199.941 17.1641C201.465 17.0469 202.602 16.9883 203.352 16.9883C204.055 16.9883 204.406 19.8359 204.406 25.5312Z" fill="#232323"/>
<path d="M218.645 44.832C218.645 46.3789 218.117 47.7383 217.062 48.9102C216.031 50.0586 214.754 50.6328 213.23 50.6328C211.707 50.6328 210.43 50.0352 209.398 48.8398C208.414 47.7148 207.922 46.3789 207.922 44.832C207.922 43.2617 208.426 41.9258 209.434 40.8242C210.441 39.6992 211.707 39.1367 213.23 39.1367C214.777 39.1367 216.066 39.6992 217.098 40.8242C218.129 41.9492 218.645 43.2852 218.645 44.832Z" fill="#232323"/>
</svg>
