<svg width="438" height="142" viewBox="0 0 438 142" fill="none" xmlns="http://www.w3.org/2000/svg">
<path d="M36.4414 7.88281C36.4414 8.32812 36.1953 8.55078 35.7031 8.55078C33.875 8.55078 30.875 8.44531 26.7031 8.23438C22.8125 8.04688 19.8125 7.97656 17.7031 8.02344L15.1367 8.05859C13.4961 8.08203 12.6289 8.11719 12.5352 8.16406C12.0664 8.35156 11.832 9.08984 11.832 10.3789V18.8516C11.832 20.4453 12.1719 21.2422 12.8516 21.2422C15.125 21.2422 18.5469 21.1367 23.1172 20.9258C27.7109 20.7148 31.1445 20.6094 33.418 20.6094C33.9102 20.6094 34.1562 20.7969 34.1562 21.1719C34.1562 21.5703 34.1211 22.168 34.0508 22.9648C34.0039 23.7383 33.9805 24.3242 33.9805 24.7227C33.9805 25.1445 34.0039 25.7891 34.0508 26.6562C34.0977 27.5 34.1211 28.1328 34.1211 28.5547C34.1211 28.8359 33.875 28.9766 33.3828 28.9766C31.7656 28.9766 29.3047 28.9297 26 28.8359C22.7188 28.7422 20.2578 28.6953 18.6172 28.6953C15.5938 28.6953 13.8828 28.7188 13.4844 28.7656C12.4297 28.8828 11.9023 29.3164 11.9023 30.0664C11.9023 32.1758 11.9609 35.3398 12.0781 39.5586C12.1953 43.7773 12.2539 46.9414 12.2539 49.0508C12.2539 49.7539 11.9727 50.1055 11.4102 50.1055C10.9414 50.1055 10.2383 50.0586 9.30078 49.9648C8.38672 49.8477 7.68359 49.7891 7.19141 49.7891C6.79297 49.7891 6.18359 49.8242 5.36328 49.8945C4.54297 49.9648 3.93359 50 3.53516 50C2.94922 50 2.65625 49.7422 2.65625 49.2266C2.65625 46.625 2.76172 42.7109 2.97266 37.4844C3.20703 32.2578 3.32422 28.3438 3.32422 25.7422C3.32422 23.3281 3.07812 15.4766 2.58594 2.1875V1.73047C2.5625 1.23828 2.85547 0.957031 3.46484 0.886719C3.65234 0.886719 5.14062 0.921875 7.92969 0.992188C11.6094 1.0625 15.0195 1.07422 18.1602 1.02734C22.4023 0.980469 27.8047 0.746094 34.3672 0.324219C35.2578 0.253906 35.7617 0.640625 35.8789 1.48438C35.8555 2.11719 35.9023 3.07812 36.0195 4.36719C36.3008 6.17188 36.4414 7.34375 36.4414 7.88281Z" fill="#232323"/>
<path d="M50.1172 7.95312C50.1172 10.8359 48.5117 12.2773 45.3008 12.2773C42.043 12.2773 40.4141 10.8359 40.4141 7.95312C40.4141 6.66406 40.918 5.59766 41.9258 4.75391C42.8633 3.95703 43.9883 3.55859 45.3008 3.55859C46.6133 3.55859 47.7383 3.96875 48.6758 4.78906C49.6367 5.60938 50.1172 6.66406 50.1172 7.95312ZM49.8711 17.4805C49.8711 19.2852 49.7539 22.0156 49.5195 25.6719C49.3086 29.3047 49.2031 32.0352 49.2031 33.8633C49.2031 35.5742 49.2383 38.1406 49.3086 41.5625C49.3789 44.9609 49.4141 47.5039 49.4141 49.1914C49.4141 49.6836 49.2031 49.9297 48.7812 49.9297H41.9258C41.4336 49.9297 41.1875 49.4492 41.1875 48.4883C41.1875 46.8711 41.2227 44.4453 41.293 41.2109C41.3867 37.9531 41.4336 35.5039 41.4336 33.8633C41.4336 32.0352 41.293 29.293 41.0117 25.6367C40.7539 21.9805 40.625 19.2383 40.625 17.4102C40.625 17.0117 40.8711 16.8125 41.3633 16.8125C41.7852 16.8125 42.4297 16.8711 43.2969 16.9883C44.1875 17.1055 44.8555 17.1641 45.3008 17.1641C45.7461 17.1641 46.4023 17.1055 47.2695 16.9883C48.1602 16.8711 48.8281 16.8125 49.2734 16.8125C49.6719 16.8125 49.8711 17.0352 49.8711 17.4805Z" fill="#232323"/>
<path d="M87.8398 49.2969C87.8398 49.8125 87.6055 50.0703 87.1367 50.0703C86.3633 50.0703 85.2031 50.0586 83.6562 50.0352C82.1328 50.0117 80.9844 50 80.2109 50C79.7891 50 79.5781 49.6602 79.5781 48.9805C79.5781 47.832 79.6133 46.0859 79.6836 43.7422C79.7539 41.3984 79.7891 39.6406 79.7891 38.4688C79.7891 37.5312 79.7773 36.1367 79.7539 34.2852C79.7305 32.4102 79.7188 31.0039 79.7188 30.0664C79.7188 27.3945 79.332 25.5078 78.5586 24.4062C77.6211 23.0938 75.8867 22.4375 73.3555 22.4375C72.1836 22.4375 70.5547 23.0938 68.4688 24.4062C66.2656 25.7891 65.1641 27.0195 65.1641 28.0977V49.1914C65.1641 49.7773 64.9414 50.0703 64.4961 50.0703C63.7461 50.0703 62.6211 50.0586 61.1211 50.0352C59.6211 50.0117 58.4961 50 57.7461 50C57.2539 50 57.0078 49.7305 57.0078 49.1914C57.0078 47.3398 57.0312 44.5625 57.0781 40.8594C57.1484 37.1562 57.1836 34.3672 57.1836 32.4922C57.1836 27.5 56.6562 22.8945 55.6016 18.6758C55.5312 18.4648 55.4961 18.3125 55.4961 18.2188C55.4961 17.9844 55.6484 17.8203 55.9531 17.7266C56.1172 17.7031 57.4531 17.4922 59.9609 17.0938C62.4922 16.6719 63.8164 16.4609 63.9336 16.4609C64.0742 16.4609 64.168 16.6484 64.2148 17.0234C64.332 18.4766 64.6016 19.9414 65.0234 21.418C66.2422 20.457 67.8477 19.2617 69.8398 17.832C72.3008 16.332 74.6797 15.582 76.9766 15.582C81.3828 15.582 84.3945 16.8594 86.0117 19.4141C87.207 21.2891 87.8047 24.3242 87.8047 28.5195C87.8047 29.2461 87.7812 30.3594 87.7344 31.8594C87.7109 33.3594 87.6992 34.4844 87.6992 35.2344C87.6992 36.8047 87.7227 39.1484 87.7695 42.2656C87.8164 45.3828 87.8398 47.7266 87.8398 49.2969Z" fill="#232323"/>
<path d="M128.34 0.957031C128.34 3.98047 128.199 8.51562 127.918 14.5625C127.66 20.5859 127.531 25.0977 127.531 28.0977C127.531 37.3555 127.73 44.3633 128.129 49.1211L128.164 49.5781C128.188 49.8125 127.871 49.9648 127.215 50.0352C126.77 50.082 126.137 50.082 125.316 50.0352C124.332 49.9648 123.875 49.9297 123.945 49.9297C123.594 49.9297 123.078 49.9648 122.398 50.0352C121.719 50.1055 121.203 50.1406 120.852 50.1406C120.523 50.1406 120.324 49.332 120.254 47.7148C120.207 46.0742 120.125 45.2422 120.008 45.2188C119.867 45.2891 119.691 45.4414 119.48 45.6758C116.27 49.1445 112.578 50.8789 108.406 50.8789C103.672 50.8789 99.7812 49.0742 96.7344 45.4648C93.8516 42.0664 92.4102 37.9648 92.4102 33.1602C92.4102 28.168 93.8633 23.9727 96.7695 20.5742C99.8164 17.0117 103.789 15.2305 108.688 15.2305C111.641 15.2305 114.219 16.0977 116.422 17.832C117.43 18.6992 118.426 19.5781 119.41 20.4688C119.598 20.3984 119.691 20.2344 119.691 19.9766V8.58594C119.691 7.8125 119.656 6.64062 119.586 5.07031C119.516 3.5 119.48 2.31641 119.48 1.51953C119.48 0.957031 119.668 0.675781 120.043 0.675781C120.91 0.675781 122.199 0.605469 123.91 0.464844C125.621 0.300781 126.898 0.21875 127.742 0.21875C128.141 0.21875 128.34 0.464844 128.34 0.957031ZM119.551 32.9492C119.551 30.1367 118.684 27.6641 116.949 25.5312C115.098 23.2578 112.801 22.1211 110.059 22.1211C107.176 22.1211 104.797 23.2461 102.922 25.4961C101.141 27.6055 100.25 30.1367 100.25 33.0898C100.25 35.9023 101.176 38.3516 103.027 40.4375C104.926 42.6406 107.27 43.7422 110.059 43.7422C112.871 43.7422 115.191 42.6289 117.02 40.4023C118.707 38.3164 119.551 35.832 119.551 32.9492Z" fill="#232323"/>
<path d="M172.215 43.5312C172.215 44.0469 172.168 44.75 172.074 45.6406C171.957 46.7422 171.887 47.457 171.863 47.7852C171.84 48.207 171.805 48.4648 171.758 48.5586C171.664 48.7227 171.441 48.8867 171.09 49.0508C169.168 49.9648 166.145 50.4219 162.02 50.4219C156.535 50.4219 153.793 47.9375 153.793 42.9688C153.793 40.9766 153.84 37.9883 153.934 34.0039C154.027 29.9961 154.074 26.9961 154.074 25.0039C154.074 24.043 153.594 23.5273 152.633 23.457C151.766 23.457 150.91 23.4453 150.066 23.4219C149.574 23.3047 149.328 22.3438 149.328 20.5391C149.328 19.8594 149.375 19.1445 149.469 18.3945C149.539 17.832 149.914 17.4922 150.594 17.375C151.18 17.375 151.754 17.3633 152.316 17.3398C153.395 17.293 153.934 16.8125 153.934 15.8984C153.934 14.9609 153.898 13.5312 153.828 11.6094C153.781 9.6875 153.758 8.24609 153.758 7.28516C153.758 5.57422 154.086 4.71875 154.742 4.71875C154.953 4.71875 157.156 5.08203 161.352 5.80859C161.891 5.87891 162.16 6.13672 162.16 6.58203C162.16 7.61328 162.078 9.16016 161.914 11.2227C161.773 13.2852 161.703 14.832 161.703 15.8633C161.703 16.543 162.02 16.8828 162.652 16.8828H171.09C171.488 16.8828 171.688 17.0234 171.688 17.3047C171.688 17.5859 171.641 18.043 171.547 18.6758C171.477 19.2852 171.441 19.7422 171.441 20.0469C171.441 20.3984 171.453 20.9375 171.477 21.6641C171.5 22.3906 171.512 22.9297 171.512 23.2812C171.512 23.7266 171.184 23.9492 170.527 23.9492C169.59 23.9492 168.172 23.8906 166.273 23.7734C164.375 23.6328 162.957 23.5625 162.02 23.5625C161.832 23.5625 161.691 24.2305 161.598 25.5664C161.48 27.2305 161.422 29.5625 161.422 32.5625V37.8008C161.422 39.8164 161.609 41.2227 161.984 42.0195C162.547 43.2383 163.707 43.8477 165.465 43.8477C166.191 43.8477 167.258 43.6953 168.664 43.3906C170.07 43.0625 171.113 42.8984 171.793 42.8984C172.074 42.8984 172.215 43.1094 172.215 43.5312Z" fill="#232323"/>
<path d="M207.934 48.7695C207.934 49.6367 207.688 50.0703 207.195 50.0703C206.469 50.0703 205.367 50.0586 203.891 50.0352C202.414 50.0117 201.312 50 200.586 50C200 50 199.707 49.6133 199.707 48.8398C199.707 47.7148 199.742 46.0156 199.812 43.7422C199.906 41.4688 199.953 39.7578 199.953 38.6094C199.953 37.5312 199.906 35.9023 199.812 33.7227C199.742 31.5195 199.707 29.8672 199.707 28.7656C199.707 24.5469 197.715 22.4375 193.73 22.4375C192.441 22.4375 190.754 23.082 188.668 24.3711C186.441 25.7539 185.328 27.0195 185.328 28.168V49.0508C185.328 49.7305 185.082 50.0703 184.59 50.0703C183.863 50.0703 182.773 50.0586 181.32 50.0352C179.867 50.0117 178.777 50 178.051 50C177.512 50 177.242 49.6836 177.242 49.0508V32.0703C177.242 29.3047 177.09 23.4219 176.785 14.4219C176.738 11.6328 176.539 7.50781 176.188 2.04688C176.141 1.76562 176.117 1.57812 176.117 1.48438C176.117 1.08594 176.258 0.839844 176.539 0.746094C176.938 0.605469 178.262 0.535156 180.512 0.535156C181.004 0.535156 181.742 0.453125 182.727 0.289062C183.711 0.101562 184.426 0.0078125 184.871 0.0078125C185.176 0.0078125 185.328 0.230469 185.328 0.675781C185.328 2.87891 185.234 6.19531 185.047 10.625C184.883 15.0312 184.801 18.3359 184.801 20.5391C184.801 21.0781 184.895 21.3594 185.082 21.3828C186.277 20.375 187.824 19.1562 189.723 17.7266C192.02 16.2969 194.445 15.582 197 15.582C201.406 15.582 204.441 16.8945 206.105 19.5195C207.301 21.4414 207.898 24.4883 207.898 28.6602C207.898 29.3867 207.875 30.5117 207.828 32.0352C207.805 33.5352 207.793 34.6484 207.793 35.375C207.793 36.875 207.816 39.1133 207.863 42.0898C207.91 45.0664 207.934 47.293 207.934 48.7695Z" fill="#232323"/>
<path d="M244.496 31.1211C244.496 32.8555 243.746 34.0156 242.246 34.6016C241.238 34.9766 233.984 35.668 220.484 36.6758C220.789 38.7383 221.926 40.4961 223.895 41.9492C225.77 43.332 227.785 44.0234 229.941 44.0234C233.645 44.0234 237.043 42.8281 240.137 40.4375C240.512 40.1328 240.887 39.8281 241.262 39.5234C241.449 39.5234 241.566 39.5469 241.613 39.5938C241.684 39.6406 242.129 40.4609 242.949 42.0547C243.77 43.625 244.18 44.4688 244.18 44.5859C244.18 44.7266 243.992 44.9961 243.617 45.3945C240.172 49.0508 235.754 50.8789 230.363 50.8789C224.926 50.8789 220.59 49.2617 217.355 46.0273C214.121 42.7695 212.504 38.4336 212.504 33.0195C212.504 28.1914 214.051 23.9844 217.145 20.3984C220.402 16.6719 224.398 14.8086 229.133 14.8086C233.539 14.8086 237.219 16.4258 240.172 19.6602C243.055 22.8008 244.496 26.6211 244.496 31.1211ZM236.129 28.9766C236.129 27.0312 235.355 25.3086 233.809 23.8086C232.285 22.3086 230.562 21.5586 228.641 21.5586C226.484 21.5586 224.562 22.4258 222.875 24.1602C221.211 25.8945 220.379 27.8398 220.379 29.9961C220.379 30.4883 220.801 30.7344 221.645 30.7344C225.113 30.7344 229.262 30.3828 234.09 29.6797C235.449 29.4922 236.129 29.2578 236.129 28.9766Z" fill="#232323"/>
<path d="M287.035 43.5312C287.035 44.0469 286.988 44.75 286.895 45.6406C286.777 46.7422 286.707 47.457 286.684 47.7852C286.66 48.207 286.625 48.4648 286.578 48.5586C286.484 48.7227 286.262 48.8867 285.91 49.0508C283.988 49.9648 280.965 50.4219 276.84 50.4219C271.355 50.4219 268.613 47.9375 268.613 42.9688C268.613 40.9766 268.66 37.9883 268.754 34.0039C268.848 29.9961 268.895 26.9961 268.895 25.0039C268.895 24.043 268.414 23.5273 267.453 23.457C266.586 23.457 265.73 23.4453 264.887 23.4219C264.395 23.3047 264.148 22.3438 264.148 20.5391C264.148 19.8594 264.195 19.1445 264.289 18.3945C264.359 17.832 264.734 17.4922 265.414 17.375C266 17.375 266.574 17.3633 267.137 17.3398C268.215 17.293 268.754 16.8125 268.754 15.8984C268.754 14.9609 268.719 13.5312 268.648 11.6094C268.602 9.6875 268.578 8.24609 268.578 7.28516C268.578 5.57422 268.906 4.71875 269.562 4.71875C269.773 4.71875 271.977 5.08203 276.172 5.80859C276.711 5.87891 276.98 6.13672 276.98 6.58203C276.98 7.61328 276.898 9.16016 276.734 11.2227C276.594 13.2852 276.523 14.832 276.523 15.8633C276.523 16.543 276.84 16.8828 277.473 16.8828H285.91C286.309 16.8828 286.508 17.0234 286.508 17.3047C286.508 17.5859 286.461 18.043 286.367 18.6758C286.297 19.2852 286.262 19.7422 286.262 20.0469C286.262 20.3984 286.273 20.9375 286.297 21.6641C286.32 22.3906 286.332 22.9297 286.332 23.2812C286.332 23.7266 286.004 23.9492 285.348 23.9492C284.41 23.9492 282.992 23.8906 281.094 23.7734C279.195 23.6328 277.777 23.5625 276.84 23.5625C276.652 23.5625 276.512 24.2305 276.418 25.5664C276.301 27.2305 276.242 29.5625 276.242 32.5625V37.8008C276.242 39.8164 276.43 41.2227 276.805 42.0195C277.367 43.2383 278.527 43.8477 280.285 43.8477C281.012 43.8477 282.078 43.6953 283.484 43.3906C284.891 43.0625 285.934 42.8984 286.613 42.8984C286.895 42.8984 287.035 43.1094 287.035 43.5312Z" fill="#232323"/>
<path d="M322.754 48.7695C322.754 49.6367 322.508 50.0703 322.016 50.0703C321.289 50.0703 320.188 50.0586 318.711 50.0352C317.234 50.0117 316.133 50 315.406 50C314.82 50 314.527 49.6133 314.527 48.8398C314.527 47.7148 314.562 46.0156 314.633 43.7422C314.727 41.4688 314.773 39.7578 314.773 38.6094C314.773 37.5312 314.727 35.9023 314.633 33.7227C314.562 31.5195 314.527 29.8672 314.527 28.7656C314.527 24.5469 312.535 22.4375 308.551 22.4375C307.262 22.4375 305.574 23.082 303.488 24.3711C301.262 25.7539 300.148 27.0195 300.148 28.168V49.0508C300.148 49.7305 299.902 50.0703 299.41 50.0703C298.684 50.0703 297.594 50.0586 296.141 50.0352C294.688 50.0117 293.598 50 292.871 50C292.332 50 292.062 49.6836 292.062 49.0508V32.0703C292.062 29.3047 291.91 23.4219 291.605 14.4219C291.559 11.6328 291.359 7.50781 291.008 2.04688C290.961 1.76562 290.938 1.57812 290.938 1.48438C290.938 1.08594 291.078 0.839844 291.359 0.746094C291.758 0.605469 293.082 0.535156 295.332 0.535156C295.824 0.535156 296.562 0.453125 297.547 0.289062C298.531 0.101562 299.246 0.0078125 299.691 0.0078125C299.996 0.0078125 300.148 0.230469 300.148 0.675781C300.148 2.87891 300.055 6.19531 299.867 10.625C299.703 15.0312 299.621 18.3359 299.621 20.5391C299.621 21.0781 299.715 21.3594 299.902 21.3828C301.098 20.375 302.645 19.1562 304.543 17.7266C306.84 16.2969 309.266 15.582 311.82 15.582C316.227 15.582 319.262 16.8945 320.926 19.5195C322.121 21.4414 322.719 24.4883 322.719 28.6602C322.719 29.3867 322.695 30.5117 322.648 32.0352C322.625 33.5352 322.613 34.6484 322.613 35.375C322.613 36.875 322.637 39.1133 322.684 42.0898C322.73 45.0664 322.754 47.293 322.754 48.7695Z" fill="#232323"/>
<path d="M338.68 7.95312C338.68 10.8359 337.074 12.2773 333.863 12.2773C330.605 12.2773 328.977 10.8359 328.977 7.95312C328.977 6.66406 329.48 5.59766 330.488 4.75391C331.426 3.95703 332.551 3.55859 333.863 3.55859C335.176 3.55859 336.301 3.96875 337.238 4.78906C338.199 5.60938 338.68 6.66406 338.68 7.95312ZM338.434 17.4805C338.434 19.2852 338.316 22.0156 338.082 25.6719C337.871 29.3047 337.766 32.0352 337.766 33.8633C337.766 35.5742 337.801 38.1406 337.871 41.5625C337.941 44.9609 337.977 47.5039 337.977 49.1914C337.977 49.6836 337.766 49.9297 337.344 49.9297H330.488C329.996 49.9297 329.75 49.4492 329.75 48.4883C329.75 46.8711 329.785 44.4453 329.855 41.2109C329.949 37.9531 329.996 35.5039 329.996 33.8633C329.996 32.0352 329.855 29.293 329.574 25.6367C329.316 21.9805 329.188 19.2383 329.188 17.4102C329.188 17.0117 329.434 16.8125 329.926 16.8125C330.348 16.8125 330.992 16.8711 331.859 16.9883C332.75 17.1055 333.418 17.1641 333.863 17.1641C334.309 17.1641 334.965 17.1055 335.832 16.9883C336.723 16.8711 337.391 16.8125 337.836 16.8125C338.234 16.8125 338.434 17.0352 338.434 17.4805Z" fill="#232323"/>
<path d="M376.402 49.2969C376.402 49.8125 376.168 50.0703 375.699 50.0703C374.926 50.0703 373.766 50.0586 372.219 50.0352C370.695 50.0117 369.547 50 368.773 50C368.352 50 368.141 49.6602 368.141 48.9805C368.141 47.832 368.176 46.0859 368.246 43.7422C368.316 41.3984 368.352 39.6406 368.352 38.4688C368.352 37.5312 368.34 36.1367 368.316 34.2852C368.293 32.4102 368.281 31.0039 368.281 30.0664C368.281 27.3945 367.895 25.5078 367.121 24.4062C366.184 23.0938 364.449 22.4375 361.918 22.4375C360.746 22.4375 359.117 23.0938 357.031 24.4062C354.828 25.7891 353.727 27.0195 353.727 28.0977V49.1914C353.727 49.7773 353.504 50.0703 353.059 50.0703C352.309 50.0703 351.184 50.0586 349.684 50.0352C348.184 50.0117 347.059 50 346.309 50C345.816 50 345.57 49.7305 345.57 49.1914C345.57 47.3398 345.594 44.5625 345.641 40.8594C345.711 37.1562 345.746 34.3672 345.746 32.4922C345.746 27.5 345.219 22.8945 344.164 18.6758C344.094 18.4648 344.059 18.3125 344.059 18.2188C344.059 17.9844 344.211 17.8203 344.516 17.7266C344.68 17.7031 346.016 17.4922 348.523 17.0938C351.055 16.6719 352.379 16.4609 352.496 16.4609C352.637 16.4609 352.73 16.6484 352.777 17.0234C352.895 18.4766 353.164 19.9414 353.586 21.418C354.805 20.457 356.41 19.2617 358.402 17.832C360.863 16.332 363.242 15.582 365.539 15.582C369.945 15.582 372.957 16.8594 374.574 19.4141C375.77 21.2891 376.367 24.3242 376.367 28.5195C376.367 29.2461 376.344 30.3594 376.297 31.8594C376.273 33.3594 376.262 34.4844 376.262 35.2344C376.262 36.8047 376.285 39.1484 376.332 42.2656C376.379 45.3828 376.402 47.7266 376.402 49.2969Z" fill="#232323"/>
<path d="M414.09 17.2344C414.09 20.0469 414.066 24.2773 414.02 29.9258C413.973 35.5508 413.949 39.7695 413.949 42.582C413.949 48.1602 412.754 52.2734 410.363 54.9219C407.855 57.7344 403.848 59.1406 398.34 59.1406C393.02 59.1406 388.719 58.1328 385.438 56.1172C384.922 55.7891 384.664 55.5078 384.664 55.2734C384.664 55.5312 385.016 53.7969 385.719 50.0703C385.789 49.6719 385.953 49.4727 386.211 49.4727C386.328 49.4727 386.48 49.5312 386.668 49.6484C390.184 51.6641 393.711 52.6719 397.25 52.6719C399.57 52.6719 401.492 52.1562 403.016 51.125C404.773 49.9531 405.652 48.2539 405.652 46.0273C405.652 45.5352 405.605 44.4336 405.512 42.7227C402.91 45.8867 399.605 47.4688 395.598 47.4688C391.262 47.4688 387.699 45.9102 384.91 42.793C382.238 39.793 380.902 36.1016 380.902 31.7188C380.902 27.2656 382.191 23.4805 384.77 20.3633C387.512 17.0352 391.074 15.3711 395.457 15.3711C399.324 15.3711 402.395 16.8594 404.668 19.8359C405.043 20.3281 405.312 20.5742 405.477 20.5742C405.664 20.5742 405.758 20.3633 405.758 19.9414C405.758 19.6367 405.734 19.1562 405.688 18.5C405.641 17.8203 405.617 17.3164 405.617 16.9883C405.617 15.582 405.758 14.8789 406.039 14.8789C406.273 14.8789 407.539 15.1016 409.836 15.5469C412.133 15.9688 413.387 16.2266 413.598 16.3203C413.926 16.4375 414.09 16.7422 414.09 17.2344ZM405.652 31.7188C405.652 29.0938 404.938 26.8672 403.508 25.0391C401.938 23.0469 399.875 22.0508 397.32 22.0508C394.789 22.0508 392.738 23.0586 391.168 25.0742C389.738 26.9023 389.023 29.1172 389.023 31.7188C389.023 34.2734 389.75 36.4766 391.203 38.3281C392.773 40.3438 394.812 41.3516 397.32 41.3516C399.805 41.3516 401.844 40.3438 403.438 38.3281C404.914 36.4766 405.652 34.2734 405.652 31.7188Z" fill="#232323"/>
<path d="M437.047 39.1719C437.047 42.6641 435.652 45.4648 432.863 47.5742C430.332 49.4961 427.25 50.457 423.617 50.457C422.211 50.457 421.414 50.4219 421.227 50.3516C420.828 50.1641 420.629 49.5898 420.629 48.6289C420.629 48.1133 420.559 47.3398 420.418 46.3086C420.301 45.2773 420.242 44.5156 420.242 44.0234C420.242 43.7188 420.453 43.5195 420.875 43.4258C421.18 43.3555 421.613 43.3555 422.176 43.4258C422.902 43.4961 423.254 43.5312 423.23 43.5312C427.66 43.5312 429.875 42.1719 429.875 39.4531C429.875 38.1641 428.902 36.9805 426.957 35.9023C423.793 34.168 421.977 33.1016 421.508 32.7031C419.562 31.0391 418.59 28.8594 418.59 26.1641C418.59 22.6484 419.914 19.9062 422.562 17.9375C424.953 16.1797 427.977 15.3008 431.633 15.3008C431.961 15.3008 432.195 15.4531 432.336 15.7578C432.5 16.0625 432.793 17.0117 433.215 18.6055C433.66 20.1992 433.883 21.1602 433.883 21.4883C433.883 21.7461 433.66 21.9102 433.215 21.9805C431.715 22.1914 430.203 22.3906 428.68 22.5781C426.875 23.0703 425.973 24.0547 425.973 25.5312C425.973 26.5859 426.922 27.6523 428.82 28.7305C431.633 30.3008 433.414 31.4375 434.164 32.1406C436.086 33.9688 437.047 36.3125 437.047 39.1719Z" fill="#232323"/>
<path d="M32.1875 105.531C32.1875 109.492 32.0703 111.883 31.8359 112.703C31.5312 113.758 28.625 118.363 23.1172 126.52C17.6328 134.652 14.375 139.199 13.3438 140.16C12.4062 141.004 9.38281 141.426 4.27344 141.426C3.66406 141.426 3.26562 141.355 3.07812 141.215C2.91406 141.098 2.51562 140.254 1.88281 138.684C1.27344 137.113 0.96875 136.176 0.96875 135.871C0.96875 135.355 1.58984 135.098 2.83203 135.098C5.45703 135.098 7.39062 134.723 8.63281 133.973C9.05469 133.715 9.6875 132.906 10.5312 131.547C11.3984 130.188 11.832 129.273 11.832 128.805C11.832 128.172 10.1328 125.699 6.73438 121.387C3.14844 116.816 1.14453 113.922 0.722656 112.703C0.394531 111.742 0.230469 109.445 0.230469 105.812C0.230469 104.922 0.242188 103.586 0.265625 101.805C0.289062 100 0.300781 98.6406 0.300781 97.7266C0.300781 97.2109 0.582031 96.9531 1.14453 96.9531C1.89453 96.9531 2.99609 97 4.44922 97.0938C5.92578 97.1875 7.03906 97.2344 7.78906 97.2344C8.16406 97.2344 8.35156 97.4805 8.35156 97.9727C8.35156 98.6289 8.31641 99.6133 8.24609 100.926C8.17578 102.238 8.14062 103.223 8.14062 103.879C8.14062 106.738 8.23438 108.871 8.42188 110.277C8.5625 111.168 9.83984 113.383 12.2539 116.922C14.668 120.461 16.1562 122.23 16.7188 122.23C17.1172 122.23 18.3828 120.496 20.5156 117.027C22.6484 113.535 23.7852 111.379 23.9258 110.559C24.1133 109.387 24.207 107.254 24.207 104.16C24.207 103.48 24.1367 102.484 23.9961 101.172C23.8555 99.8359 23.7852 98.8398 23.7852 98.1836C23.7852 97.5977 23.9727 97.3047 24.3477 97.3047C25.0977 97.3047 26.2227 97.2578 27.7227 97.1641C29.2461 97.0469 30.3828 96.9883 31.1328 96.9883C31.8359 96.9883 32.1875 99.8359 32.1875 105.531Z" fill="#232323"/>
<path d="M68.75 112.879C68.75 117.777 67.1445 121.961 63.9336 125.43C60.6523 129.016 56.5859 130.809 51.7344 130.809C46.8594 130.809 42.7812 129.027 39.5 125.465C36.2891 122.02 34.6836 117.848 34.6836 112.949C34.6836 108.051 36.2891 103.879 39.5 100.434C42.8047 96.918 46.8828 95.1602 51.7344 95.1602C56.5625 95.1602 60.6172 96.918 63.8984 100.434C67.1328 103.855 68.75 108.004 68.75 112.879ZM61.332 112.949C61.332 110.09 60.4531 107.652 58.6953 105.637C56.8672 103.504 54.5469 102.438 51.7344 102.438C48.9219 102.438 46.5898 103.492 44.7383 105.602C42.9805 107.641 42.1016 110.09 42.1016 112.949C42.1016 115.762 42.9922 118.199 44.7734 120.262C46.6484 122.441 48.9688 123.531 51.7344 123.531C54.5234 123.531 56.8438 122.441 58.6953 120.262C60.4531 118.199 61.332 115.762 61.332 112.949Z" fill="#232323"/>
<path d="M106.297 98.1133C106.297 99.8242 106.227 102.414 106.086 105.883C105.945 109.328 105.875 111.918 105.875 113.652C105.875 115.363 105.922 117.93 106.016 121.352C106.133 124.75 106.191 127.305 106.191 129.016C106.191 129.484 105.969 129.789 105.523 129.93C105.336 129.977 102.957 130 98.3867 130C98.1055 130 97.9297 129.121 97.8594 127.363C97.8125 125.605 97.6836 124.727 97.4727 124.727C97.3555 124.727 97.1797 124.832 96.9453 125.043C93.0312 128.441 89.1641 130.141 85.3438 130.141C80.1641 130.141 76.7422 128.266 75.0781 124.516C74.0469 122.195 73.5312 118.023 73.5312 112C73.5312 106.562 73.9648 101.957 74.832 98.1836C75.043 97.2695 75.4297 96.8125 75.9922 96.8125C76.6719 96.8125 77.6914 96.8242 79.0508 96.8477C80.4102 96.8711 81.4297 96.8828 82.1094 96.8828C82.5781 96.8828 82.8125 97.1406 82.8125 97.6562C82.8125 98.5703 82.6602 100.094 82.3555 102.227C82.0273 104.5 81.8516 106.105 81.8281 107.043C81.7578 108.449 81.7227 109.996 81.7227 111.684C81.7227 115.785 82.0156 118.539 82.6016 119.945C83.6094 122.477 85.8477 123.742 89.3164 123.742C90.793 123.742 92.5391 123.016 94.5547 121.562C96.6875 120.039 97.7891 118.574 97.8594 117.168C97.9766 115.41 98.0352 109.223 98.0352 98.6055C98.0352 97.457 98.5156 96.8828 99.4766 96.8828H105.277C105.957 96.8828 106.297 97.293 106.297 98.1133Z" fill="#232323"/>
<path d="M140.363 81.2383L140.328 81.6953C139.812 90.4141 139.555 97.9023 139.555 104.16C139.555 106.949 139.602 111.133 139.695 116.711C139.789 122.266 139.836 126.426 139.836 129.191C139.836 129.73 139.648 130 139.273 130H132.559C132.137 130 131.926 129.73 131.926 129.191C131.926 126.426 131.949 122.266 131.996 116.711C132.043 111.133 132.066 106.949 132.066 104.16C132.066 101.629 131.938 97.832 131.68 92.7695C131.445 87.6836 131.328 83.8867 131.328 81.3789C131.328 80.9102 131.574 80.6758 132.066 80.6758C132.488 80.6758 133.121 80.7109 133.965 80.7812C134.809 80.8516 135.441 80.8867 135.863 80.8867C136.309 80.8867 136.965 80.8516 137.832 80.7812C138.699 80.7109 139.344 80.6758 139.766 80.6758C140.188 80.6758 140.387 80.8633 140.363 81.2383Z" fill="#232323"/>
<path d="M179.211 112.879C179.211 117.777 177.605 121.961 174.395 125.43C171.113 129.016 167.047 130.809 162.195 130.809C157.32 130.809 153.242 129.027 149.961 125.465C146.75 122.02 145.145 117.848 145.145 112.949C145.145 108.051 146.75 103.879 149.961 100.434C153.266 96.918 157.344 95.1602 162.195 95.1602C167.023 95.1602 171.078 96.918 174.359 100.434C177.594 103.855 179.211 108.004 179.211 112.879ZM171.793 112.949C171.793 110.09 170.914 107.652 169.156 105.637C167.328 103.504 165.008 102.438 162.195 102.438C159.383 102.438 157.051 103.492 155.199 105.602C153.441 107.641 152.562 110.09 152.562 112.949C152.562 115.762 153.453 118.199 155.234 120.262C157.109 122.441 159.43 123.531 162.195 123.531C164.984 123.531 167.305 122.441 169.156 120.262C170.914 118.199 171.793 115.762 171.793 112.949Z" fill="#232323"/>
<path d="M214.543 106.727C214.543 110.031 214.438 111.953 214.227 112.492C213.875 113.547 211.977 116.629 208.531 121.738C204.992 126.965 202.883 129.719 202.203 130C201.875 130.141 200.891 130.211 199.25 130.211C197.68 130.211 196.648 130.141 196.156 130C195.5 129.789 193.355 127.141 189.723 122.055C186.184 117.109 184.203 114.098 183.781 113.02C183.219 111.543 182.938 109.258 182.938 106.164C182.938 105.203 182.961 103.762 183.008 101.84C183.055 99.918 183.078 98.4766 183.078 97.5156C183.078 97 183.336 96.7422 183.852 96.7422C184.625 96.7422 185.773 96.7773 187.297 96.8477C188.844 96.918 190.004 96.9531 190.777 96.9531C191.199 96.9531 191.41 97.1875 191.41 97.6562C191.41 98.4062 191.363 99.5195 191.27 100.996C191.176 102.449 191.129 103.551 191.129 104.301C191.129 106.457 191.246 108.426 191.48 110.207C191.598 111.098 192.781 113.277 195.031 116.746C197.305 120.215 198.711 121.949 199.25 121.949C199.766 121.949 201.043 120.25 203.082 116.852C205.098 113.523 206.176 111.426 206.316 110.559C206.504 109.387 206.598 107.371 206.598 104.512C206.598 103.738 206.516 102.578 206.352 101.031C206.211 99.4844 206.141 98.3242 206.141 97.5508C206.141 97.1992 206.316 97.0234 206.668 97.0234C207.441 97.0234 208.578 96.9883 210.078 96.918C211.578 96.8242 212.703 96.7773 213.453 96.7773C214.18 96.7773 214.543 100.094 214.543 106.727Z" fill="#232323"/>
<path d="M250.402 111.121C250.402 112.855 249.652 114.016 248.152 114.602C247.145 114.977 239.891 115.668 226.391 116.676C226.695 118.738 227.832 120.496 229.801 121.949C231.676 123.332 233.691 124.023 235.848 124.023C239.551 124.023 242.949 122.828 246.043 120.438C246.418 120.133 246.793 119.828 247.168 119.523C247.355 119.523 247.473 119.547 247.52 119.594C247.59 119.641 248.035 120.461 248.855 122.055C249.676 123.625 250.086 124.469 250.086 124.586C250.086 124.727 249.898 124.996 249.523 125.395C246.078 129.051 241.66 130.879 236.27 130.879C230.832 130.879 226.496 129.262 223.262 126.027C220.027 122.77 218.41 118.434 218.41 113.02C218.41 108.191 219.957 103.984 223.051 100.398C226.309 96.6719 230.305 94.8086 235.039 94.8086C239.445 94.8086 243.125 96.4258 246.078 99.6602C248.961 102.801 250.402 106.621 250.402 111.121ZM242.035 108.977C242.035 107.031 241.262 105.309 239.715 103.809C238.191 102.309 236.469 101.559 234.547 101.559C232.391 101.559 230.469 102.426 228.781 104.16C227.117 105.895 226.285 107.84 226.285 109.996C226.285 110.488 226.707 110.734 227.551 110.734C231.02 110.734 235.168 110.383 239.996 109.68C241.355 109.492 242.035 109.258 242.035 108.977Z" fill="#232323"/>
<line x1="275.998" y1="112.5" x2="401.002" y2="112.5" stroke="black"/>
</svg>
